<svg width="572" height="674" xmlns="http://www.w3.org/2000/svg"><path d="M266.598 249.568v16.247l36.264-.002v-16.245h-36.264zm0-29.786v16.247h36.264v-16.247h-36.264zm.003-13.652h36.264v-16.247h-36.264v16.247zm36.264-29.786V160.1h-36.264v16.247l36.264-.003zm0-29.785v-16.247h-36.264v16.247h36.264zm51.763 119.254v-16.245H318.36v16.247l36.268-.002zm43.408-46.146v16.247h95.279v-16.245l-95.279-.002zm0 29.786V265.7h95.279v-16.245l-95.279-.002zm0 29.786v16.247h95.279v-16.245l-95.279-.002zm0 29.786v16.247h95.279v-16.245l-95.279-.002zm106.962-89.358v16.247h35.418v-16.245l-35.418-.002zm0 29.786V265.7h35.418v-16.245l-35.418-.002zm0 29.786v16.247h35.418v-16.245l-35.418-.002zm0 29.786v16.247h35.418v-16.245l-35.418-.002zm-150.37-72.996v-16.247H318.36v16.247h36.268zm-36.265-46.146v16.247h36.265v-16.247h-36.265zm0-29.786v16.247h36.265V160.1l-36.265-.003zm0-29.785v16.247h36.265v-16.247h-36.265zM70.043 637.185h41.443v-16.247H70.043v16.247zm166.225-16.247v16.247h39.866v-16.247h-39.866zm-124.782 50.77v-16.247H70.043v16.247h41.443zm124.782-16.247v16.247h39.866v-16.247h-39.866zm1.65-250.652h16.004V106H366.95l.112 234.294h-48.124V356l217.053-1v95h16.004v-95H572V190H382.954V90h-33.008V77h17.004V28h-48.012V0h-17.004v28h-48.012v49h17.004v13h-33.008v314.809zm144.95-198.679H555.9v132.683H382.868V206.13zM333.782 90.024h-46.75V76.485h46.75v13.539zm-63.316-29.786V43.991h79.875v16.247h-79.875zM85.062 269.74h36.268v-16.247H85.062v16.247zm36.268-29.785v-16.247H85.062v16.247h36.268zm0-29.786v-16.247H85.062v16.247h36.268zm15.493 43.324v16.247h36.265v-16.247h-36.265zm0-29.785v16.247h36.265v-16.247h-36.265zm0-29.786v16.247h36.265v-16.247h-36.265zm63.135 75.818V153.645H56.378l.029 251.164h16.239V169.881h112.443v99.859h14.869zM19.285 674h16.239v-87.84h283.654V674h16.24V466.146h19.21v-61.337H0v61.337h19.285V674zm16.239-104.086v-43.76h43.74v43.76h-43.74zm0-60.007v-43.76h43.74v43.76h-43.74zm103.717 60.007H95.502v-43.76h43.74v43.76zm0-60.007H95.502v-43.76h43.74v43.76zm59.979 60.007h-43.74v-43.76h43.74v43.76zm0-60.007h-43.74v-43.76h43.74v43.76zm59.978 60.007h-43.74v-43.76h43.74v43.76zm0-60.007h-43.74v-43.76h43.74v43.76zm59.98 60.006h-43.74v-43.76h43.74v43.76zm0-60.007h-43.74v-43.76h43.74v43.76zM16.313 449.9v-28.433h322.079V449.9H16.313z" fill="#282E39" fill-rule="evenodd"/></svg>