<?xml version="1.0" encoding="UTF-8"?>
<svg width="74px" height="62px" viewBox="0 0 74 62" version="1.1" xmlns="http://www.w3.org/2000/svg" xmlns:xlink="http://www.w3.org/1999/xlink">
    <!-- Generator: Sketch 49.3 (51167) - http://www.bohemiancoding.com/sketch -->
    <title>10</title>
    <desc>Created with Sketch.</desc>
    <defs></defs>
    <g id="Page-1" stroke="none" stroke-width="1" fill="none" fill-rule="evenodd">
        <g id="10" fill-rule="nonzero">
            <g id="Group">
                <path d="M24.7,61.4 L2.4,61.4 C1.2,61.4 0.2,60.4 0.2,59.2 L0.2,14.9 C0.2,13.7 1.2,12.7 2.4,12.7 L4.7,12.7 C5.1,12.7 5.5,13 5.5,13.5 C5.5,13.9 5.2,14.3 4.7,14.3 L2.4,14.3 C2,14.3 1.7,14.6 1.7,15 L1.7,59.3 C1.7,59.7 2,60 2.4,60 L24.7,60 C25.1,60 25.4,59.7 25.4,59.3 L25.4,14.9 C25.4,14.5 25.1,14.2 24.7,14.2 L22.4,14.2 C22,14.2 21.6,13.9 21.6,13.4 C21.6,13 21.9,12.6 22.4,12.6 L24.7,12.6 C25.9,12.6 26.9,13.6 26.9,14.8 L26.9,59.1 C27,60.4 26,61.4 24.7,61.4 Z" id="Shape" fill="#344154"></path>
                <path d="M23.1,35.4 L4,35.4 L4,25.6 L23.2,25.6 L23.2,35.4 L23.1,35.4 Z M5.5,33.9 L21.7,33.9 L21.7,27.1 L5.5,27.1 L5.5,33.9 Z" id="Shape" fill="#344154"></path>
                <rect id="Rectangle-path" fill="#99DADD" transform="translate(13.568900, 48.571300) rotate(90.000000) translate(-13.568900, -48.571300) " x="6.3189" y="39.7213" width="14.5" height="17.7"></rect>
                <path d="M22.4,20.5 L4.7,20.5 C4.3,20.5 3.9,20.2 3.9,19.7 C3.9,19.3 4.2,18.9 4.7,18.9 L22.4,18.9 C22.8,18.9 23.2,19.2 23.2,19.7 C23.1,20.1 22.8,20.5 22.4,20.5 Z" id="Shape" fill="#344154"></path>
                <path d="M22.4,8.2 C22,8.2 21.6,7.9 21.6,7.4 L21.6,4.8 C21.6,3.2 20.3,2 18.8,2 L8.3,2 C6.7,2 5.5,3.3 5.5,4.8 L5.5,7.4 C5.5,7.8 5.2,8.2 4.7,8.2 C4.3,8.2 3.9,7.9 3.9,7.4 L3.9,4.8 C3.9,2.4 5.8,0.5 8.2,0.5 L18.7,0.5 C21.1,0.5 23,2.4 23,4.8 L23,7.4 C23.1,7.9 22.8,8.2 22.4,8.2 Z" id="Shape" fill="#344154"></path>
                <path d="M22.4,17.6 C22,17.6 21.6,17.3 21.6,16.8 L21.6,7.5 C21.6,7.1 21.9,6.7 22.4,6.7 C22.8,6.7 23.2,7 23.2,7.5 L23.2,16.8 C23.1,17.2 22.8,17.6 22.4,17.6 Z" id="Shape" fill="#344154"></path>
                <path d="M4.7,17.6 C4.3,17.6 3.9,17.3 3.9,16.8 L3.9,7.5 C3.9,7.1 4.2,6.7 4.7,6.7 C5.1,6.7 5.5,7 5.5,7.5 L5.5,16.8 C5.5,17.2 5.1,17.6 4.7,17.6 Z" id="Shape" fill="#344154"></path>
                <path d="M31.4,54.5 L26.2,54.5 C25.8,54.5 25.4,54.2 25.4,53.7 L25.4,22.7 C25.4,22.3 25.7,21.9 26.2,21.9 L31.4,21.9 C32.9,21.9 34.1,23.1 34.1,24.6 L34.1,51.7 C34.1,53.3 32.9,54.5 31.4,54.5 Z M27,53 L31.5,53 C32.1,53 32.7,52.5 32.7,51.8 L32.7,24.7 C32.7,24.1 32.2,23.5 31.5,23.5 L27,23.5 L27,53 Z" id="Shape" fill="#344154"></path>
            </g>
            <g id="Group" transform="translate(40.000000, 0.000000)">
                <path d="M24.5,61.4 L2.2,61.4 C1,61.4 0,60.4 0,59.2 L0,14.9 C0,13.7 1,12.7 2.2,12.7 L4.5,12.7 C4.9,12.7 5.3,13 5.3,13.5 C5.3,13.9 5,14.3 4.5,14.3 L2.2,14.3 C1.8,14.3 1.5,14.6 1.5,15 L1.5,59.3 C1.5,59.7 1.8,60 2.2,60 L24.5,60 C24.9,60 25.2,59.7 25.2,59.3 L25.2,14.9 C25.2,14.5 24.9,14.2 24.5,14.2 L22.2,14.2 C21.8,14.2 21.4,13.9 21.4,13.4 C21.4,13 21.7,12.6 22.2,12.6 L24.5,12.6 C25.7,12.6 26.7,13.6 26.7,14.8 L26.7,59.1 C26.7,60.4 25.7,61.4 24.5,61.4 Z" id="Shape" fill="#344154"></path>
                <path d="M22.9,35.4 L3.7,35.4 L3.7,25.6 L22.9,25.6 L22.9,35.4 Z M5.2,33.9 L21.4,33.9 L21.4,27.1 L5.2,27.1 L5.2,33.9 Z" id="Shape" fill="#344154"></path>
                <rect id="Rectangle-path" fill="#99DADD" transform="translate(13.343300, 48.596900) rotate(90.000000) translate(-13.343300, -48.596900) " x="6.0933" y="39.7469" width="14.5" height="17.7"></rect>
                <path d="M22.2,20.5 L4.5,20.5 C4.1,20.5 3.7,20.2 3.7,19.7 C3.7,19.3 4,18.9 4.5,18.9 L22.2,18.9 C22.6,18.9 23,19.2 23,19.7 C22.9,20.1 22.6,20.5 22.2,20.5 Z" id="Shape" fill="#344154"></path>
                <path d="M22.2,8.2 C21.8,8.2 21.4,7.9 21.4,7.4 L21.4,4.8 C21.4,3.2 20.1,2 18.6,2 L8.1,2 C6.5,2 5.3,3.3 5.3,4.8 L5.3,7.4 C5.3,7.8 5,8.2 4.5,8.2 C4.1,8.2 3.7,7.9 3.7,7.4 L3.7,4.8 C3.7,2.4 5.6,0.5 8,0.5 L18.5,0.5 C20.9,0.5 22.8,2.4 22.8,4.8 L22.8,7.4 C22.9,7.9 22.6,8.2 22.2,8.2 Z" id="Shape" fill="#344154"></path>
                <path d="M22.2,17.6 C21.8,17.6 21.4,17.3 21.4,16.8 L21.4,7.5 C21.4,7.1 21.7,6.7 22.2,6.7 C22.6,6.7 23,7 23,7.5 L23,16.8 C22.9,17.2 22.6,17.6 22.2,17.6 Z" id="Shape" fill="#344154"></path>
                <path d="M4.5,17.6 C4.1,17.6 3.7,17.3 3.7,16.8 L3.7,7.5 C3.7,7.1 4,6.7 4.5,6.7 C4.9,6.7 5.3,7 5.3,7.5 L5.3,16.8 C5.2,17.2 4.9,17.6 4.5,17.6 Z" id="Shape" fill="#344154"></path>
                <path d="M31.2,54.5 L26,54.5 C25.6,54.5 25.2,54.2 25.2,53.7 L25.2,22.7 C25.2,22.3 25.5,21.9 26,21.9 L31.2,21.9 C32.7,21.9 33.9,23.1 33.9,24.6 L33.9,51.7 C33.9,53.3 32.7,54.5 31.2,54.5 Z M26.7,53 L31.2,53 C31.8,53 32.4,52.5 32.4,51.8 L32.4,24.7 C32.4,24.1 31.9,23.5 31.2,23.5 L26.7,23.5 L26.7,53 Z" id="Shape" fill="#344154"></path>
            </g>
        </g>
    </g>
</svg>