<?xml version="1.0" encoding="UTF-8"?>
<svg width="250px" height="250px" viewBox="0 0 250 250" version="1.1" xmlns="http://www.w3.org/2000/svg" xmlns:xlink="http://www.w3.org/1999/xlink">
    <!-- Generator: Sketch 48.2 (47327) - http://www.bohemiancoding.com/sketch -->
    <title>1</title>
    <desc>Created with Sketch.</desc>
    <defs></defs>
    <g id="Page-1" stroke="none" stroke-width="1" fill="none" fill-rule="evenodd">
        <g id="1">
            <path d="M160.6,146.2 C159.4,143.1 157.5,140.4 154.9,138.3 C152.8,136.5 150.6,135.4 148.5,134.9 L132,130.1 C131.6,130 131.3,129.8 131,129.6 C130.1,129 129.6,128.1 129.4,127 L128.6,120.5 C133.2,116.9 136.6,111.6 138.3,105.3 C141.2,105 143.5,101.8 143.5,97.6 C143.5,93.8 141.6,90.7 139,90" id="Shape" stroke="#344154" stroke-width="3" stroke-linecap="round"></path>
            <path d="M92.5,90.2 C89.9,90.9 88.1,94 88.1,97.7 C88.1,101.8 90.3,105.1 93.3,105.4 C94.9,111.6 98.4,117 103,120.6 L102.2,127.1 C102.1,128.1 101.5,129.1 100.6,129.7 C100.3,129.9 100,130.1 99.6,130.2 L83.2,135 C81.1,135.5 78.9,136.6 76.8,138.4 C73.4,141.2 71.1,145.1 70.3,149.3 L66.4,168.6 C66.3,168.9 66.4,169.2 66.6,169.4 C66.8,169.6 67,169.7 67.3,169.7 L147,169.7" id="Shape" stroke="#344154" stroke-width="3" stroke-linecap="round"></path>
            <path d="M139,90.1 C139,90.1 140.4,62.8 115.8,62.8 C91.3,62.8 92.5,90.1 92.5,90.1" id="Shape" stroke="#344154" stroke-width="3" stroke-linecap="round"></path>
            <path d="M94.3,78.4 C95.3,76.4 97.1,74.9 99.2,74.2 C102.5,73 106.3,74 109.5,75.4 C114.1,77.5 118.2,80 123.4,80.6 C128.4,81.1 132.9,80.6 137.4,78.3" id="Shape" stroke="#344154" stroke-width="3" stroke-linecap="round"></path>
            <path d="M100.7,129.6 L115.8,145.4" id="Shape" stroke="#344154" stroke-width="3" stroke-linecap="round"></path>
            <path d="M131,129.6 L115.8,145.4" id="Shape" stroke="#344154" stroke-width="3" stroke-linecap="round"></path>
            <g id="Group" transform="translate(147.000000, 150.000000)" stroke="#344154" stroke-width="3">
                <circle id="Oval" cx="18.3" cy="18.9" r="18.3"></circle>
                <path d="M18.3,28.1 L18.3,9.6" id="Shape" stroke-linecap="round"></path>
                <path d="M9,18.9 L27.5,18.9" id="Shape" stroke-linecap="round"></path>
            </g>
            <path d="M132.7,134.5 L118.7,149.4 C117.9,150.2 116.9,150.6 115.9,150.6 C114.9,150.6 113.9,150.2 113.1,149.4 L99.1,134.5 L93.4,136.2 L115.9,160.3 L116,160.2 L116.1,160.3 L138.6,136.2 L132.7,134.5 Z" id="Shape" fill="#35B0CB" fill-rule="nonzero"></path>
        </g>
    </g>
</svg>