<?xml version="1.0" encoding="UTF-8"?>
<svg width="200px" height="200px" viewBox="0 0 200 200" version="1.1" xmlns="http://www.w3.org/2000/svg" xmlns:xlink="http://www.w3.org/1999/xlink">
    <!-- Generator: Sketch 49.3 (51167) - http://www.bohemiancoding.com/sketch -->
    <title>4</title>
    <desc>Created with Sketch.</desc>
    <defs></defs>
    <g id="Page-1" stroke="none" stroke-width="1" fill="none" fill-rule="evenodd">
        <g id="4">
            <path d="M40.4,127.1 C39.6,127.1 38.9,126.4 38.9,125.6 C38.9,91.1 67,63 101.6,63 C128.3,63 152.1,79.9 160.8,105.1 C161.1,105.9 160.7,106.7 159.9,107 C159.1,107.3 158.3,106.9 158,106.1 C149.7,82.1 127,66 101.6,66 C68.7,66 41.9,92.8 41.9,125.7 C41.9,126.5 41.3,127.1 40.4,127.1 Z" id="Shape" fill="#344154" fill-rule="nonzero"></path>
            <path d="M99.2,131.4 C98,131.4 96.8,131 95.8,130.3 C93.2,128.4 92.7,124.8 94.5,122.2 C96.4,119.6 100,119.1 102.6,120.9 C105.2,122.8 105.7,126.4 103.9,129 C103,130.2 101.7,131.1 100.1,131.3 C99.8,131.4 99.5,131.4 99.2,131.4 Z M96.9,124 C96,125.2 96.3,127 97.5,127.9 C98.1,128.3 98.8,128.5 99.6,128.4 C100.3,128.3 101,127.9 101.4,127.3 C101.8,126.7 102,126 101.9,125.2 C101.8,124.5 101.4,123.8 100.8,123.4 C99.6,122.5 97.8,122.8 96.9,124 Z" id="Shape" fill="#344154" fill-rule="nonzero"></path>
            <path d="M88.4,86.6 C87.8,86.6 87.2,86.2 87,85.6 L84.1,76.8 C83.8,76 84.3,75.2 85.1,74.9 C85.9,74.6 86.7,75.1 87,75.9 L89.9,84.7 C90.2,85.5 89.7,86.3 88.9,86.6 C88.7,86.5 88.5,86.6 88.4,86.6 Z" id="Shape" fill="#344154" fill-rule="nonzero"></path>
            <path d="M67.1,102.1 C66.8,102.1 66.5,102 66.2,101.8 L58.7,96.4 C58,95.9 57.9,95 58.4,94.3 C58.9,93.6 59.8,93.5 60.5,94 L68,99.4 C68.7,99.9 68.8,100.8 68.3,101.5 C68,101.8 67.5,102.1 67.1,102.1 Z" id="Shape" fill="#344154" fill-rule="nonzero"></path>
            <path d="M58.9,127.1 L49.7,127.1 C48.9,127.1 48.2,126.4 48.2,125.6 C48.2,124.8 48.9,124.1 49.7,124.1 L58.9,124.1 C59.7,124.1 60.4,124.8 60.4,125.6 C60.4,126.4 59.7,127.1 58.9,127.1 Z" id="Shape" fill="#344154" fill-rule="nonzero"></path>
            <path d="M136.1,102.1 C135.6,102.1 135.2,101.9 134.9,101.5 C134.4,100.8 134.6,99.9 135.2,99.4 L142.7,94 C143.4,93.5 144.3,93.7 144.8,94.3 C145.3,95 145.1,95.9 144.5,96.4 L137,101.8 C136.7,102 136.4,102.1 136.1,102.1 Z" id="Shape" fill="#344154" fill-rule="nonzero"></path>
            <path d="M114.8,86.6 C114.6,86.6 114.5,86.6 114.3,86.5 C113.5,86.2 113.1,85.4 113.3,84.6 L116.2,75.8 C116.5,75 117.3,74.6 118.1,74.8 C118.9,75.1 119.3,75.9 119.1,76.7 L116.2,85.5 C116,86.2 115.4,86.6 114.8,86.6 Z" id="Shape" fill="#344154" fill-rule="nonzero"></path>
            <path d="M99,136.8 C92.8,136.8 87.8,131.8 87.8,125.6 C87.8,119.4 92.8,114.4 99,114.4 C99.6,114.4 100.1,114.4 100.7,114.5 C100.8,114.5 100.8,114.5 100.9,114.5 L151.6,124 C152.3,124.1 152.8,124.8 152.8,125.5 C152.8,126.2 152.3,126.8 151.6,127 L100.9,136.5 C100.8,136.5 100.8,136.5 100.7,136.5 C100.2,136.8 99.6,136.8 99,136.8 Z M99,117.5 C94.5,117.5 90.8,121.2 90.8,125.7 C90.8,130.2 94.5,133.9 99,133.9 C99.4,133.9 99.9,133.9 100.4,133.8 C100.4,133.8 100.5,133.8 100.5,133.8 L143.2,125.8 L100.5,117.8 C100.5,117.8 100.4,117.8 100.4,117.8 C99.9,117.5 99.5,117.5 99,117.5 Z" id="Shape" fill="#344154" fill-rule="nonzero"></path>
        </g>
    </g>
</svg>