<?xml version="1.0" encoding="UTF-8"?>
<svg width="22px" height="29px" viewBox="0 0 22 29" version="1.1" xmlns="http://www.w3.org/2000/svg" xmlns:xlink="http://www.w3.org/1999/xlink">
    <!-- Generator: Sketch 48.2 (47327) - http://www.bohemiancoding.com/sketch -->
    <title>7</title>
    <desc>Created with Sketch.</desc>
    <defs></defs>
    <g id="Page-1" stroke="none" stroke-width="1" fill="none" fill-rule="evenodd">
        <g id="7" transform="translate(-1.000000, -1.000000)" fill-rule="nonzero">
            <polygon id="Shape" fill="#FFFFFF" points="2.6 4.07 19.77 4.07 19.77 6.82 10.02 27.41 8.68 28.57 3.1 28.16 11.79 9.15 2.1 8.49"></polygon>
            <path d="M20.17,1 L5.2,1 C4.53394846,0.928096155 3.87332765,1.17675679 3.42,1.67 L1.52,3.55 C1.12604799,4.03592 0.939243384,4.65740457 1,5.28 L1,7.72 C1,8.85 1.26,10 3.2,10 L11,10 L2.51,26.63 C2.14345965,27.1926835 2.11655253,27.9114881 2.44,28.5 C2.85973778,29.0990708 3.57303985,29.4212073 4.3,29.34 L8.1,29.34 C8.89989116,29.4232527 9.69971618,29.1818641 10.32,28.67 L10.4,28.59 L10.45,28.54 L12.31,26.67 C12.5827481,26.4032315 12.8032038,26.0878102 12.96,25.74 L21.19,8.4 C22.19,6.27 22.52,5.4 22.52,3.92 L22.52,3.05 C22.53,1 20.88,1 20.17,1 Z M8.09,27.34 L4.39,27.34 L14.28,8 L3,8 C3,7.93 3,7.84 3,7.73 L3,5.28 C3,5.16 3,5.07 3,5 L18.53,5 L18.53,5.91 C18.53,6.91 18.36,7.45 17.39,9.54 L9.15,26.89 C8.95,27.31 8.93,27.34 8.09,27.34 Z" id="Shape" fill="#59CCC3"></path>
        </g>
    </g>
</svg>