<svg width="21" height="19" xmlns="http://www.w3.org/2000/svg"><path d="M7.354 9.45a3.18 3.18 0 1 1 3.18 3.14 3.156 3.156 0 0 1-3.18-3.14m-1.719 0a4.9 4.9 0 1 0 4.9-4.84 4.872 4.872 0 0 0-4.9 4.84m8.846-5.03a1.145 1.145 0 1 0 2.29.01 1.145 1.145 0 0 0-2.29-.01m-7.8 12.7a5.3 5.3 0 0 1-1.772-.32 2.969 2.969 0 0 1-1.1-.71 2.888 2.888 0 0 1-.713-1.08 5.143 5.143 0 0 1-.329-1.75c-.046-.99-.055-1.29-.055-3.81s.01-2.82.055-3.81c.007-.598.118-1.19.329-1.75a3.1 3.1 0 0 1 1.81-1.79 5.494 5.494 0 0 1 1.772-.33c1.006-.04 1.308-.05 3.855-.05 2.547 0 2.848.01 3.855.05a5.486 5.486 0 0 1 1.771.33c.833.31 1.492.961 1.811 1.79.21.56.322 1.152.329 1.75.046.99.055 1.29.055 3.81s-.009 2.81-.055 3.81a5.143 5.143 0 0 1-.329 1.75 2.912 2.912 0 0 1-.713 1.08 2.957 2.957 0 0 1-1.1.71 5.288 5.288 0 0 1-1.771.32c-1.006.05-1.308.06-3.855.06-2.547 0-2.849-.01-3.855-.06M6.597.08a6.745 6.745 0 0 0-2.315.44 4.812 4.812 0 0 0-2.791 2.75 6.919 6.919 0 0 0-.443 2.29C1.001 6.57.991 6.89.991 9.45s.01 2.88.057 3.89c.017.783.167 1.557.443 2.29a4.75 4.75 0 0 0 1.1 1.67 4.7 4.7 0 0 0 1.69 1.08 7 7 0 0 0 2.315.44c1.018.05 1.343.06 3.934.06s2.915-.01 3.933-.06a6.992 6.992 0 0 0 2.315-.44 4.7 4.7 0 0 0 1.69-1.08 4.777 4.777 0 0 0 1.1-1.67 6.893 6.893 0 0 0 .443-2.29c.046-1.01.057-1.33.057-3.89s-.011-2.88-.057-3.89a6.919 6.919 0 0 0-.443-2.29 4.814 4.814 0 0 0-2.79-2.75 6.756 6.756 0 0 0-2.316-.44C13.445.03 13.12.02 10.529.02c-2.591 0-2.916.01-3.934.06" fill="#FFF" fill-rule="evenodd"/></svg>