<?xml version="1.0" encoding="UTF-8"?>
<svg width="277px" height="277px" viewBox="0 0 277 277" version="1.1" xmlns="http://www.w3.org/2000/svg" xmlns:xlink="http://www.w3.org/1999/xlink">
    <!-- Generator: Sketch 48.2 (47327) - http://www.bohemiancoding.com/sketch -->
    <title>4 максимум</title>
    <desc>Created with Sketch.</desc>
    <defs></defs>
    <g id="Page-1" stroke="none" stroke-width="1" fill="none" fill-rule="evenodd">
        <g id="4-максимум">
            <path d="M198.4,144.6 C190.1,120.7 167.4,103.5 140.6,103.5 C106.8,103.5 79.4,130.9 79.4,164.7" id="Shape" stroke="#2D64D3" stroke-width="3" stroke-linecap="round" stroke-linejoin="round"></path>
            <circle id="Oval" stroke="#2D64D3" stroke-width="2.99998476" stroke-linecap="round" stroke-linejoin="round" transform="translate(138.158360, 164.604280) rotate(-53.998744) translate(-138.158360, -164.604280) " cx="138.15836" cy="164.60428" r="4.29997816"></circle>
            <path d="M127.4,124.1 L124.5,115.3" id="Shape" stroke="#2D64D3" stroke-width="3" stroke-linecap="round" stroke-linejoin="round"></path>
            <path d="M106.1,139.6 L98.6,134.1" id="Shape" stroke="#2D64D3" stroke-width="3" stroke-linecap="round" stroke-linejoin="round"></path>
            <path d="M97.9,164.6 L88.7,164.6" id="Shape" stroke="#2D64D3" stroke-width="3" stroke-linecap="round" stroke-linejoin="round"></path>
            <path d="M175.1,139.6 L182.6,134.1" id="Shape" stroke="#2D64D3" stroke-width="3" stroke-linecap="round" stroke-linejoin="round"></path>
            <path d="M153.8,124.1 L156.6,115.3" id="Shape" stroke="#2D64D3" stroke-width="3" stroke-linecap="round" stroke-linejoin="round"></path>
            <path d="M139.7,174.2 L140,174.2 C140,174.2 140,174.2 140,174.2 L190.4,164.7 L140,155.2 C140,155.2 140,155.2 140,155.2 L139.7,155.1 C139.2,155 138.6,154.9 138.1,154.9 C132.8,154.9 128.4,159.2 128.4,164.6 C128.4,169.9 132.7,174.3 138.1,174.3 C138.6,174.3 139.2,174.3 139.7,174.2 Z" id="Shape" stroke="#2D64D3" stroke-width="3" stroke-linecap="round" stroke-linejoin="round"></path>
        </g>
    </g>
</svg>