<?xml version="1.0" encoding="UTF-8"?>
<svg width="4px" height="11px" viewBox="0 0 4 11" version="1.1" xmlns="http://www.w3.org/2000/svg" xmlns:xlink="http://www.w3.org/1999/xlink">
    <!-- Generator: Sketch 48.2 (47327) - http://www.bohemiancoding.com/sketch -->
    <title>i</title>
    <desc>Created with Sketch.</desc>
    <defs></defs>
    <g id="Page-1" stroke="none" stroke-width="1" fill="none" fill-rule="evenodd">
        <g id="i" transform="translate(-1.000000, 0.000000)" fill="#FFFFFF" fill-rule="nonzero">
            <path d="M4.73,8.72 L3.85,8.72 L3.85,3.37 C3.86014599,3.31629251 3.84384979,3.26098233 3.80620451,3.22135572 C3.76855923,3.18172911 3.71415688,3.16261977 3.66,3.17 L1.2,3.17 C1.14629251,3.15985401 1.09098233,3.17615021 1.05135572,3.21379549 C1.01172911,3.25144077 0.992619765,3.30584312 1,3.36 L1,4.25 C0.992619765,4.30415688 1.01172911,4.35855923 1.05135572,4.39620451 C1.09098233,4.43384979 1.14629251,4.45014599 1.2,4.44 L2.1,4.44 L2.1,8.72 L1.21,8.72 C1.07666667,8.72 1.01,8.78333333 1.01,8.91 L1.01,9.81 C0.998872221,9.86572243 1.01632047,9.92332013 1.05650017,9.96349983 C1.09667987,10.0036795 1.15427757,10.0211278 1.21,10.01 L4.73,10.01 C4.78572243,10.0211278 4.84332013,10.0036795 4.88349983,9.96349983 C4.92367953,9.92332013 4.94112778,9.86572243 4.93,9.81 L4.93,8.91 C4.93738023,8.85584312 4.91827089,8.80144077 4.87864428,8.76379549 C4.83901767,8.72615021 4.78370749,8.70985401 4.73,8.72 Z M4,0.68 C3.88735314,0.408431849 3.67156815,0.192646864 3.4,0.08 C3.27237988,0.0301163502 3.13698921,0.00303821574 3,3.61703397e-16 C2.69643311,-0.00432960991 2.40411398,0.114763371 2.19,0.33 C1.97069961,0.541384887 1.85085646,0.835545364 1.86,1.14 C1.85592517,1.44550137 1.97909472,1.73893473 2.2,1.95 C2.41037969,2.16468139 2.69944662,2.28392149 3,2.28 C3.30445464,2.28914354 3.59861511,2.16930039 3.81,1.95 C4.02523663,1.73588602 4.14432961,1.44356689 4.14,1.14 C4.12568398,0.978627669 4.07801073,0.821986986 4,0.68 Z" id="Shape"></path>
        </g>
    </g>
</svg>