<?xml version="1.0" encoding="UTF-8"?>
<svg width="250px" height="250px" viewBox="0 0 250 250" version="1.1" xmlns="http://www.w3.org/2000/svg" xmlns:xlink="http://www.w3.org/1999/xlink">
    <!-- Generator: Sketch 48.2 (47327) - http://www.bohemiancoding.com/sketch -->
    <title>6</title>
    <desc>Created with Sketch.</desc>
    <defs></defs>
    <g id="Page-1" stroke="none" stroke-width="1" fill="none" fill-rule="evenodd">
        <g id="6">
            <circle id="Oval" fill="#35B4CF" fill-rule="nonzero" cx="121.7" cy="129.5" r="32.1"></circle>
            <g id="Group" transform="translate(66.000000, 64.000000)" stroke="#344154" stroke-linecap="round" stroke-width="3">
                <g transform="translate(15.000000, 25.000000)" id="Shape" stroke-linejoin="round">
                    <path d="M0.8,40.5 L80.6,40.5"></path>
                    <path d="M40.7,0.6 L40.7,40.5"></path>
                    <path d="M0.8,40.5 C0.8,18.5 18.7,0.6 40.7,0.6 C62.7,0.6 80.6,18.6 80.6,40.6"></path>
                    <path d="M40.7,0.6 C40.7,0.6 19.3,9.1 19.3,40.5"></path>
                    <path d="M40.7,0.6 C40.7,0.6 62.1,9.1 62.1,40.5"></path>
                    <path d="M40.7,23.4 C18.7,23.4 13,11.8 13,11.8"></path>
                    <path d="M68.4,11.8 C68.4,11.8 62.7,23.4 40.7,23.4"></path>
                    <path d="M40.7,80.4 L40.7,40.5"></path>
                    <path d="M80.6,40.5 C80.6,62.5 62.7,80.4 40.7,80.4 C18.7,80.4 0.8,62.5 0.8,40.5"></path>
                    <path d="M40.7,80.4 C40.7,80.4 62.1,71.9 62.1,40.5"></path>
                    <path d="M40.7,80.4 C40.7,80.4 19.3,71.9 19.3,40.5"></path>
                    <path d="M68.4,69.2 C68.4,69.2 62.7,57.6 40.7,57.6"></path>
                    <path d="M13,69.2 C13,69.2 18.7,57.6 40.7,57.6"></path>
                </g>
                <g id="Shape">
                    <g>
                        <path d="M47.1,3.9 C43.3,12.5 34.2,12.9 23.9,19.5 C15.8,24.7 9.6,32.5 5.4,41.2 C-1.2,55.1 -1.7,71.8 4,86.1"></path>
                        <polyline points="40 2.8 49.3 0.6 51.5 10"></polyline>
                    </g>
                    <g transform="translate(2.000000, 97.000000)">
                        <path d="M4.6,6.7 C14,5.7 18.8,13.4 29.8,19 C38.3,23.4 48.3,24.9 57.9,24.1 C73.3,22.9 88,15 97.4,2.8"></path>
                        <polyline points="7.2 13.5 0.7 6.5 7.7 0"></polyline>
                    </g>
                    <g transform="translate(63.000000, 10.000000)">
                        <path d="M50.3,79 C44.8,71.4 49,63.3 48.4,51.1 C47.9,41.5 44.3,32.2 38.8,24.2 C30.1,11.5 15.9,2.7 0.6,0.6"></path>
                        <polyline points="54.9 73.3 52.1 82.5 42.9 79.6"></polyline>
                    </g>
                </g>
            </g>
        </g>
    </g>
</svg>