<?xml version="1.0" encoding="UTF-8"?>
<svg width="200px" height="200px" viewBox="0 0 200 200" version="1.1" xmlns="http://www.w3.org/2000/svg" xmlns:xlink="http://www.w3.org/1999/xlink">
    <!-- Generator: Sketch 49.3 (51167) - http://www.bohemiancoding.com/sketch -->
    <title>1</title>
    <desc>Created with Sketch.</desc>
    <defs></defs>
    <g id="Page-1" stroke="none" stroke-width="1" fill="none" fill-rule="evenodd">
        <g id="1">
            <path d="M131.7,100 C131.6,100 131.5,100 131.4,100 C130.6,99.9 130,99.1 130.2,98.3 L136.2,64.9 C136.1,53.1 126.5,43.5 114.7,43.5 L85.2,43.5 C73.4,43.5 63.8,53.1 63.7,64.9 L69.7,98.3 C69.8,99.1 69.3,99.9 68.5,100 C67.7,100.1 66.9,99.6 66.8,98.8 L60.8,65 C60.8,51.5 71.8,40.5 85.3,40.5 L114.8,40.5 C128.3,40.5 139.3,51.5 139.3,65 L139.3,65.3 L133.3,98.9 C133,99.5 132.4,100 131.7,100 Z" id="Shape" fill="#848DA0" fill-rule="nonzero"></path>
            <g id="Group" transform="translate(82.000000, 60.000000)" fill="#848DA0" fill-rule="nonzero">
                <path d="M1.6,17.3 C0.8,17.3 0.1,16.6 0.1,15.8 L0.1,1.7 C0.1,0.9 0.8,0.2 1.6,0.2 C2.4,0.2 3.1,0.9 3.1,1.7 L3.1,15.9 C3.1,16.7 2.4,17.3 1.6,17.3 Z" id="Shape"></path>
                <path d="M35.6,17.3 C34.8,17.3 34.1,16.6 34.1,15.8 L34.1,1.7 C34.1,0.9 34.8,0.2 35.6,0.2 C36.4,0.2 37.1,0.9 37.1,1.7 L37.1,15.9 C37.1,16.7 36.4,17.3 35.6,17.3 Z" id="Shape"></path>
                <path d="M17.9,17.3 C17.1,17.3 16.4,16.6 16.4,15.8 L16.4,1.7 C16.4,0.9 17.1,0.2 17.9,0.2 C18.7,0.2 19.4,0.9 19.4,1.7 L19.4,15.9 C19.4,16.7 18.8,17.3 17.9,17.3 Z" id="Shape"></path>
            </g>
            <g id="Group" transform="translate(42.000000, 83.000000)" fill="#848DA0" fill-rule="nonzero">
                <path d="M13.9,28 C6.4,28 0.3,21.9 0.3,14.4 C0.3,6.9 6.4,0.8 13.9,0.8 C21.4,0.8 27.5,6.9 27.5,14.4 L24.5,14.4 C24.5,8.6 19.8,3.8 13.9,3.8 C8,3.8 3.3,8.5 3.3,14.4 C3.3,20.2 8,25 13.9,25 L13.9,28 Z" id="Shape"></path>
                <path d="M26,63.6 C18.5,63.6 12.4,57.5 12.4,50 L15.4,50 C15.4,55.8 20.1,60.6 26,60.6 L26,63.6 Z" id="Shape"></path>
                <path d="M13.9,51.5 C13.1,51.5 12.4,50.8 12.4,50 L12.4,26.5 C12.4,25.7 13.1,25 13.9,25 C14.7,25 15.4,25.7 15.4,26.5 L15.4,50 C15.4,50.9 14.7,51.5 13.9,51.5 Z" id="Shape"></path>
            </g>
            <g id="Group" transform="translate(130.000000, 83.000000)" fill="#848DA0" fill-rule="nonzero">
                <path d="M13.9,28 L13.9,25 C19.7,25 24.5,20.3 24.5,14.4 C24.5,8.6 19.8,3.8 13.9,3.8 C8,3.8 3.3,8.5 3.3,14.4 L0.3,14.4 C0.3,6.9 6.4,0.8 13.9,0.8 C21.4,0.8 27.5,6.9 27.5,14.4 C27.5,22 21.4,28 13.9,28 Z" id="Shape"></path>
                <path d="M1.8,63.6 L1.8,60.6 C7.6,60.6 12.4,55.9 12.4,50 L15.4,50 C15.4,57.5 9.3,63.6 1.8,63.6 Z" id="Shape"></path>
                <path d="M13.9,51.5 C13.1,51.5 12.4,50.8 12.4,50 L12.4,26.5 C12.4,25.7 13.1,25 13.9,25 C14.7,25 15.4,25.7 15.4,26.5 L15.4,50 C15.4,50.9 14.7,51.5 13.9,51.5 Z" id="Shape"></path>
            </g>
            <rect id="Rectangle-path" fill="#848DA0" fill-rule="nonzero" x="68" y="143.6" width="63.8" height="3"></rect>
            <path d="M121.8,129.3 L78,129.3 C71.7,129.3 66.5,124.1 66.5,117.8 L66.5,114.6 C66.5,108.3 71.7,103.1 78,103.1 L121.8,103.1 C128.1,103.1 133.3,108.3 133.3,114.6 L133.3,117.8 C133.3,124.1 128.2,129.3 121.8,129.3 Z M78,106.1 C73.3,106.1 69.5,109.9 69.5,114.6 L69.5,117.8 C69.5,122.5 73.3,126.3 78,126.3 L121.8,126.3 C126.5,126.3 130.3,122.5 130.3,117.8 L130.3,114.6 C130.3,109.9 126.5,106.1 121.8,106.1 L78,106.1 Z" id="Shape" fill="#848DA0" fill-rule="nonzero"></path>
            <path d="M67,159.4 C62.7,159.4 59.1,155.9 59.1,151.5 C59.1,147.1 62.6,143.6 67,143.6 C71.4,143.6 74.9,147.1 74.9,151.5 C74.9,155.9 71.3,159.4 67,159.4 Z M67,146.6 C64.3,146.6 62.1,148.8 62.1,151.5 C62.1,154.2 64.3,156.4 67,156.4 C69.7,156.4 71.9,154.2 71.9,151.5 C71.9,148.8 69.7,146.6 67,146.6 Z" id="Shape" fill="#848DA0" fill-rule="nonzero"></path>
            <path d="M132.8,159.4 C128.5,159.4 124.9,155.9 124.9,151.5 C124.9,147.1 128.4,143.6 132.8,143.6 C137.2,143.6 140.7,147.1 140.7,151.5 C140.7,155.9 137.1,159.4 132.8,159.4 Z M132.8,146.6 C130.1,146.6 127.9,148.8 127.9,151.5 C127.9,154.2 130.1,156.4 132.8,156.4 C135.5,156.4 137.7,154.2 137.7,151.5 C137.7,148.8 135.5,146.6 132.8,146.6 Z" id="Shape" fill="#848DA0" fill-rule="nonzero"></path>
        </g>
    </g>
</svg>