<?xml version="1.0" encoding="UTF-8"?>
<svg width="56px" height="58px" viewBox="0 0 56 58" version="1.1" xmlns="http://www.w3.org/2000/svg" xmlns:xlink="http://www.w3.org/1999/xlink">
    <!-- Generator: Sketch 49.3 (51167) - http://www.bohemiancoding.com/sketch -->
    <title>11</title>
    <desc>Created with Sketch.</desc>
    <defs></defs>
    <g id="Page-1" stroke="none" stroke-width="1" fill="none" fill-rule="evenodd">
        <g id="11" fill-rule="nonzero">
            <g id="Group" fill="#344154">
                <path d="M52.6,55 L3.4,55 C1.8,55 0.6,53.7 0.6,52.2 L0.6,2.9 C0.6,1.3 1.9,0.1 3.4,0.1 L52.7,0.1 C54.3,0.1 55.5,1.4 55.5,2.9 L55.5,52.2 C55.4,53.7 54.2,55 52.6,55 Z M3.4,1.6 C2.7,1.6 2.1,2.2 2.1,2.9 L2.1,52.2 C2.1,52.9 2.7,53.5 3.4,53.5 L52.7,53.5 C53.4,53.5 54,52.9 54,52.2 L54,2.9 C54,2.2 53.4,1.6 52.7,1.6 L3.4,1.6 Z" id="Shape"></path>
                <path d="M37.6,41.9 C37.1,41.9 36.6,41.7 36.2,41.3 L34,39.1 C32.2,40 30.1,40.5 28,40.5 C25.9,40.5 23.9,40 22,39.1 L19.8,41.3 C19,42.1 17.7,42.1 17,41.3 L14.2,38.5 C13.4,37.7 13.4,36.4 14.2,35.7 L16.4,33.5 C15.5,31.7 15,29.6 15,27.6 C15,25.5 15.5,23.5 16.4,21.7 L14.2,19.5 C13.8,19.1 13.6,18.6 13.6,18.1 C13.6,17.6 13.8,17.1 14.2,16.7 L17,13.9 C17.4,13.5 17.9,13.3 18.4,13.3 C18.9,13.3 19.4,13.5 19.8,13.9 L22,16.1 C23.8,15.2 25.9,14.7 27.9,14.7 C29.9,14.7 32,15.2 33.8,16.1 L36,13.9 C36.4,13.5 36.9,13.3 37.4,13.3 C37.9,13.3 38.4,13.5 38.8,13.9 L41.6,16.7 C42.4,17.5 42.4,18.8 41.6,19.5 L39.4,21.7 C40.3,23.5 40.8,25.6 40.8,27.6 C40.8,29.7 40.3,31.7 39.4,33.5 L41.6,35.7 C42.4,36.5 42.4,37.8 41.6,38.5 L39,41.3 C38.6,41.7 38.1,41.9 37.6,41.9 Z M34.2,37.2 L37.2,40.2 C37.4,40.4 37.7,40.4 37.9,40.2 L40.7,37.4 C40.9,37.2 40.9,36.9 40.7,36.7 L37.7,33.7 L38,33.2 C39,31.5 39.5,29.5 39.5,27.5 C39.5,25.5 39,23.5 38,21.8 L37.7,21.3 L40.7,18.3 C40.9,18.1 40.9,17.8 40.7,17.6 L38,14.8 C37.8,14.6 37.5,14.6 37.3,14.8 L34.3,17.8 L33.8,17.5 C32,16.5 30,16 28,16 C26,16 24,16.5 22.3,17.5 L21.8,17.8 L18.8,14.8 C18.6,14.6 18.3,14.6 18.1,14.8 L15.3,17.6 C15.2,17.7 15.2,17.8 15.2,18 C15.2,18.1 15.3,18.3 15.3,18.4 L18.3,21.4 L18,21.8 C17,23.5 16.5,25.5 16.5,27.5 C16.5,29.5 17,31.5 18,33.2 L18.3,33.7 L15.3,36.7 C15.1,36.9 15.1,37.2 15.3,37.4 L18.1,40.2 C18.3,40.4 18.6,40.4 18.8,40.2 L21.8,37.2 L22.3,37.5 C24,38.5 26,39 28,39 C30,39 32,38.5 33.7,37.5 L34.2,37.2 Z" id="Shape"></path>
                <path d="M16.9,57.9 L7.1,57.9 C6.7,57.9 6.3,57.6 6.3,57.1 L6.3,55.1 C6.3,54.7 6.6,54.3 7.1,54.3 C7.6,54.3 7.9,54.6 7.9,55.1 L7.9,56.4 L16.2,56.4 L16.2,55.1 C16.2,54.7 16.5,54.3 17,54.3 C17.5,54.3 17.8,54.6 17.8,55.1 L17.8,57.1 C17.7,57.6 17.3,57.9 16.9,57.9 Z" id="Shape"></path>
                <path d="M48.9,57.9 L39.1,57.9 C38.7,57.9 38.3,57.6 38.3,57.1 L38.3,55.1 C38.3,54.7 38.6,54.3 39.1,54.3 C39.5,54.3 39.9,54.6 39.9,55.1 L39.9,56.4 L48.2,56.4 L48.2,55.1 C48.2,54.7 48.5,54.3 49,54.3 C49.5,54.3 49.8,54.6 49.8,55.1 L49.8,57.1 C49.6,57.6 49.3,57.9 48.9,57.9 Z" id="Shape"></path>
            </g>
            <circle id="Oval" fill="#99DADD" cx="28" cy="27.5" r="6.9"></circle>
        </g>
    </g>
</svg>