<?xml version="1.0" encoding="UTF-8"?>
<svg width="44px" height="29px" viewBox="0 0 44 29" version="1.1" xmlns="http://www.w3.org/2000/svg" xmlns:xlink="http://www.w3.org/1999/xlink">
    <!-- Generator: Sketch 48.2 (47327) - http://www.bohemiancoding.com/sketch -->
    <title>10</title>
    <desc>Created with Sketch.</desc>
    <defs></defs>
    <g id="Page-1" stroke="none" stroke-width="1" fill="none" fill-rule="evenodd">
        <g id="10" transform="translate(-1.000000, 0.000000)" fill-rule="nonzero">
            <path d="M41.38,8.16 L37.8,3.74 L28.21,3.74 L24.3,5.66 L22.8,11.12 L22.8,18.66 L24,25.33 L29.08,27.58 L35,27.58 L38.75,25.66 L42.33,19.74 L41.38,8.16 Z M35,21.49 L32,22 C31.3174568,20.7835925 30.6999225,19.5318337 30.15,18.25 C30.15,17.92 30.57,9.25 30.57,9.25 L32,8.16 L34.57,8.91 L35.07,14.51 L35,21.49 Z" id="Shape" fill="#FFFFFF"></path>
            <polygon id="Shape" fill="#FFFFFF" points="2.22 7.08 4.05 11.12 8.3 9.58 8.3 22.83 3.38 22.83 3.13 27.99 18.71 27.49 19.55 22.49 15.13 21.58 14.3 3.74 9.13 3.74"></polygon>
            <path d="M34,0 C30,0 27.1,1.24 25.36,3.73 C22.66,5.59 21.36,8.94 21.36,13.87 L21.36,17.14 C21.31,25.13 24.8,29 32,29 C36.06,29 38.94,27.75 40.68,25.22 C43.35,23.36 44.68,20.02 44.68,15.13 L44.68,11.87 C44.65,3.88 41.16,0 34,0 Z M23.31,17.14 L23.31,13.87 C23.31,7 25.91,4 32,4 C38.09,4 40.67,7 40.67,13.87 L40.67,17.14 C40.65,24.06 38.05,27 32,27 C25.95,27 23.31,24.06 23.31,17.14 Z" id="Shape" fill="#59CCC3"></path>
            <path d="M32.06,7.08 L31.9,7.08 C27.75,7.14 27.75,10.72 27.75,14.51 L27.75,16.51 C27.75,20.3 27.75,23.89 31.91,23.94 L32.06,23.94 C36.22,23.94 36.22,20.16 36.22,16.51 L36.22,14.51 C36.21,10.86 36.21,7.08 32.06,7.08 Z M34.22,14.51 L34.22,16.51 C34.227014,17.6537502 34.1534989,18.7965752 34,19.93 L33.88,19.93 C32.24,19.93 31.71,19.48 31.71,14.5 L31.71,12.5 C31.6856701,11.3540878 31.7424787,10.2078905 31.88,9.07 L32.02,9.07 C33.66,9.08 34.21,9.52 34.21,14.51 L34.22,14.51 Z" id="Shape" fill="#59CCC3"></path>
            <path d="M20.17,19.82 L17.79,19.82 L17.79,2.69 C17.79,1.06 17.06,0.34 15.44,0.34 L12.77,0.34 C11.833499,0.292485044 10.9013211,0.49618316 10.07,0.93 L4.29,3.78 C3.96743343,3.9262738 3.68074149,4.14129276 3.45,4.41 L1.56,6.3 L1.44,6.42 C1.29343638,6.59183171 1.17833889,6.78817449 1.1,7 C0.913694632,7.58512775 0.986479485,8.22199521 1.3,8.75 L2.55,11.21 C3.08,12.21 4.04,12.53 5.42,11.92 L7.42,11.03 L7.42,19.82 L6.42,19.82 C5.773721,19.7673026 5.13505018,19.9886601 4.66,20.43 L2.87,22.27 C2.33541193,22.7497501 2.06071358,23.4550567 2.13,24.17 L2.13,26.39 C2.03003924,27.0274694 2.24377506,27.674006 2.70399234,28.1262885 C3.16420962,28.578571 3.8143653,28.7810312 4.45,28.67 L18.17,28.67 C18.8499009,28.7346505 19.5225718,28.4883721 20,28 L22,26 C22.3983466,25.5422096 22.599632,24.9455422 22.56,24.34 L22.56,22.18 C22.6720808,21.5205214 22.4553515,20.8478369 21.9793651,20.3778252 C21.5033786,19.9078135 20.8280103,19.6995982 20.17,19.82 Z M18.49,26.39 C18.4958748,26.4765671 18.4958748,26.5634329 18.49,26.65 L18.19,26.65 L4.45,26.65 L4.15,26.65 C4.1441252,26.5634329 4.1441252,26.4765671 4.15,26.39 L4.15,24.18 C4.14150055,24.066826 4.14150055,23.953174 4.15,23.84 L4.45,23.84 L9.45,23.84 L9.45,8.58 L8,8.58 L4.61,10.1 C4.50677075,10.1486276 4.39974978,10.1887605 4.29,10.22 L3.07,7.84 C3,7.75 3,7.69 3,7.68 C3.0496048,7.64380662 3.10330999,7.61359745 3.16,7.59 L9,4.72 C9.55439249,4.42233657 10.1827067,4.2904253 10.81,4.34 L13.81,4.34 C13.8176239,4.45320512 13.8176239,4.56679488 13.81,4.68 L13.81,23.82 L18.19,23.82 L18.49,23.82 C18.4984995,23.933174 18.4984995,24.046826 18.49,24.16 L18.49,26.39 Z" id="Shape" fill="#59CCC3"></path>
        </g>
    </g>
</svg>