<?xml version="1.0" encoding="UTF-8"?>
<svg width="250px" height="250px" viewBox="0 0 250 250" version="1.1" xmlns="http://www.w3.org/2000/svg" xmlns:xlink="http://www.w3.org/1999/xlink">
    <!-- Generator: Sketch 48.2 (47327) - http://www.bohemiancoding.com/sketch -->
    <title>3</title>
    <desc>Created with Sketch.</desc>
    <defs></defs>
    <g id="Page-1" stroke="none" stroke-width="1" fill="none" fill-rule="evenodd">
        <g id="3">
            <polygon id="Shape" fill="#A9CCED" fill-rule="nonzero" points="121.7 162.5 82.7 162.5 82.7 84.1 141.4 84.1 141.4 113.4 122.5 113.5"></polygon>
            <g id="Group" transform="translate(76.000000, 64.000000)" stroke="#344154" stroke-width="3">
                <path d="M23.7,2.3 L23.7,14 C23.7,15.1 24.6,16 25.7,16 L26.5,16 C27.5,16 28.4,15.3 28.5,14.3 L28.5,14.1 C29,10.6 31.9,8 35.5,8 C39,8 42,10.6 42.5,14.1 L42.5,14.3 C42.6,15.3 43.5,16 44.5,16 C45.6,16 46.5,15.1 46.5,14 L46.5,2.3 C46.5,1.4 45.8,0.7 44.9,0.7 L25.2,0.7 C24.4,0.8 23.7,1.5 23.7,2.3 Z" id="Shape"></path>
                <g transform="translate(45.000000, 49.000000)">
                    <path d="M51.2,0.4 L2.2,0.4 C1.4,0.4 0.7,1.1 0.7,1.9 L0.7,70.7 C0.7,71.5 1.4,72.2 2.2,72.2 L51.2,72.2 C52,72.2 52.7,71.5 52.7,70.7 L52.7,1.9 C52.7,1.1 52,0.4 51.2,0.4 Z" id="Shape"></path>
                    <rect id="Rectangle-path" x="8" y="7.7" width="37.4" height="8.2"></rect>
                    <rect id="Rectangle-path" x="8" y="28.7" width="37.4" height="35.8"></rect>
                    <path d="M17.4,37.5 L17.4,64.5" id="Shape"></path>
                    <path d="M26.7,28.7 L26.7,64.7" id="Shape"></path>
                    <path d="M36,28.9 L36,64.9" id="Shape"></path>
                    <path d="M45.4,37.4 L8,37.4" id="Shape"></path>
                    <path d="M45.4,46.7 L8,46.7" id="Shape"></path>
                    <path d="M45.4,56 L8,56" id="Shape"></path>
                </g>
                <polyline id="Shape" points="46.5 7.4 71.7 7.4 71.7 49.4"></polyline>
                <polyline id="Shape" points="45.7 105.4 0.3 105.4 0.3 7.4 23.7 7.4"></polyline>
                <g transform="translate(18.000000, 27.000000)" id="Shape" stroke-linecap="round">
                    <path d="M0,0.5 L33.9,0.5"></path>
                    <path d="M0.3,9.4 L34.3,9.4"></path>
                </g>
            </g>
        </g>
    </g>
</svg>