<?xml version="1.0" encoding="UTF-8"?>
<svg width="132px" height="114px" viewBox="0 0 132 114" version="1.1" xmlns="http://www.w3.org/2000/svg" xmlns:xlink="http://www.w3.org/1999/xlink">
    <!-- Generator: Sketch 48.2 (47327) - http://www.bohemiancoding.com/sketch -->
    <title>feature3</title>
    <desc>Created with Sketch.</desc>
    <defs></defs>
    <g id="Page-1" stroke="none" stroke-width="1" fill="none" fill-rule="evenodd">
        <g id="feature3">
            <path d="M123.38,85.73 L48.73,85.73 C44.1538437,85.7244899 40.4455101,82.0161563 40.44,77.44 L40.44,57.93 C40.44,56.5492881 41.5592881,55.43 42.94,55.43 C44.3207119,55.43 45.44,56.5492881 45.44,57.93 L45.44,77.43 C45.44,79.2470168 46.9129832,80.72 48.73,80.72 L123.38,80.72 C125.194738,80.7145091 126.664509,79.2447375 126.67,77.43 L126.67,35.2 C126.664509,33.3852625 125.194738,31.9154909 123.38,31.91 L110.8,31.91 C109.419288,31.91 108.3,30.7907119 108.3,29.41 C108.3,28.0292881 109.419288,26.91 110.8,26.91 L123.38,26.91 C127.956156,26.9155101 131.66449,30.6238437 131.67,35.2 L131.67,77.43 C131.670003,82.010061 127.960058,85.7244819 123.38,85.73 Z" id="Shape" fill="#C2C2C2" fill-rule="nonzero"></path>
            <path d="M40.25,27 C35.8658641,26.9999133 32.3093078,23.4506884 32.3001745,19.0665619 C32.2910412,14.6824355 35.8327787,11.118423 40.2168762,11.1000697 C44.6009737,11.0817164 48.1724268,14.6159508 48.2,19 C48.2000859,23.3988252 44.6487393,26.9725073 40.25,27 Z M40.25,16.1 C39.0523232,16.100172 37.9736182,16.824447 37.5200995,17.9329371 C37.0665808,19.0414273 37.3282705,20.3141005 38.1823631,21.1537169 C39.0364556,21.9933333 40.3134159,22.2332313 41.4139922,21.7608317 C42.5145685,21.288432 43.2202996,20.1975048 43.2,19 C43.1626347,17.3897847 41.8604323,16.0964107 40.25,16.07 L40.25,16.1 Z" id="Shape" fill="#4E72CD" fill-rule="nonzero"></path>
            <path d="M54.2,27 C53.019981,27.0022254 51.8545658,26.7390671 50.79,26.23 C49.6008872,25.6055788 49.1176347,24.1531796 49.6955959,22.9408052 C50.2735571,21.7284307 51.7061783,21.1893637 52.94,21.72 C53.3338552,21.9061539 53.7643718,22.0018243 54.2,22 C55.4196614,22.0147636 56.5226348,21.2773778 56.9751678,20.1446794 C57.4277009,19.011981 57.1364612,17.7175825 56.2423859,16.8878709 C55.3483107,16.0581594 54.0357976,15.8642581 52.94,16.4 C51.6918365,16.9909447 50.2009447,16.4581635 49.61,15.21 C49.0190553,13.9618365 49.5518365,12.4709447 50.8,11.88 C53.7507657,10.4667626 57.2660249,11.0055865 59.6580153,13.2377693 C62.0500058,15.469952 62.8302235,18.9396261 61.6240669,21.980916 C60.4179102,25.0222058 57.4717063,27.0140043 54.2,27 Z" id="Shape" fill="#C2C2C2" fill-rule="nonzero"></path>
            <path d="M44.5,46.1 L34.59,46.1 C33.2092881,46.1 32.09,44.9807119 32.09,43.6 C32.09,42.2192881 33.2092881,41.1 34.59,41.1 L44.5,41.1 C45.8807119,41.1 47,42.2192881 47,43.6 C47,44.9807119 45.8807119,46.1 44.5,46.1 Z" id="Shape" fill="#4E72CD" fill-rule="nonzero"></path>
            <path d="M63.26,46.1 L53.34,46.1 C51.9592881,46.1 50.84,44.9807119 50.84,43.6 C50.84,42.2192881 51.9592881,41.1 53.34,41.1 L63.25,41.1 C64.6307119,41.1 65.75,42.2192881 65.75,43.6 C65.75,44.9807119 64.6307119,46.1 63.25,46.1 L63.26,46.1 Z" id="Shape" fill="#4E72CD" fill-rule="nonzero"></path>
            <path d="M82,46.1 L72.1,46.1 C70.7192881,46.1 69.6,44.9807119 69.6,43.6 C69.6,42.2192881 70.7192881,41.1 72.1,41.1 L82,41.1 C83.3807119,41.1 84.5,42.2192881 84.5,43.6 C84.5,44.9807119 83.3807119,46.1 82,46.1 Z" id="Shape" fill="#4E72CD" fill-rule="nonzero"></path>
            <path d="M100.77,46.1 L90.86,46.1 C89.4792881,46.1 88.36,44.9807119 88.36,43.6 C88.36,42.2192881 89.4792881,41.1 90.86,41.1 L100.77,41.1 C102.150712,41.1 103.27,42.2192881 103.27,43.6 C103.27,44.9807119 102.150712,46.1 100.77,46.1 Z" id="Shape" fill="#4E72CD" fill-rule="nonzero"></path>
            <path d="M104.66,58.82 L30.66,58.82 C25.8960671,58.8144894 22.0355106,54.9539329 22.03,50.19 L22.03,8.63 C22.0326423,6.3350556 22.9482142,4.13545131 24.5747338,2.51643589 C26.2012533,0.897420465 28.4050679,-0.0079700834 30.7,1.77635684e-15 L104.7,1.77635684e-15 C109.463933,0.00551062779 113.324489,3.86606705 113.33,8.63 L113.33,50.18 C113.330014,52.4766778 112.415614,54.6788542 110.788805,56.3000337 C109.161997,57.9212132 106.956664,58.8279746 104.66,58.82 Z M30.7,5 C28.6974864,5.0054939 27.0754939,6.62748642 27.07,8.63 L27.07,50.18 C27.0754939,52.1825136 28.6974864,53.8045061 30.7,53.81 L104.7,53.81 C106.702514,53.8045061 108.324506,52.1825136 108.33,50.18 L108.33,8.63 C108.327371,7.66112602 107.938584,6.73327872 107.24974,6.05194304 C106.560897,5.37060736 105.628845,4.99201118 104.66,5 L30.7,5 Z" id="Shape" fill="#4E72CD" fill-rule="nonzero"></path>
            <path d="M98.49,27 L88.36,27 C87.0922652,27 85.8764535,26.4963943 84.9800296,25.5999704 C84.0836057,24.7035465 83.58,23.4877348 83.58,22.22 L83.58,15.85 C83.58,13.2100789 85.7200789,11.07 88.36,11.07 L98.49,11.07 C101.129921,11.07 103.27,13.2100789 103.27,15.85 L103.27,22.19 C103.277989,23.4629247 102.777913,24.6864577 101.880621,25.5893805 C100.98333,26.4923033 99.7629498,27.0000251 98.49,27 Z M88.58,22 L98.27,22 L98.27,16.1 L88.58,16.1 L88.58,22 Z" id="Shape" fill="#4E72CD" fill-rule="nonzero"></path>
            <path d="M125.92,73.11 L42.92,73.11 C41.5392881,73.11 40.42,71.9907119 40.42,70.61 C40.42,69.2292881 41.5392881,68.11 42.92,68.11 L125.92,68.11 C127.300712,68.11 128.42,69.2292881 128.42,70.61 C128.42,71.9907119 127.300712,73.11 125.92,73.11 Z" id="Shape" fill="#C2C2C2" fill-rule="nonzero"></path>
            <path d="M29.8,53.93 C46.2580855,53.93 59.6,67.2719145 59.6,83.73 C59.6,100.188086 46.2580855,113.53 29.8,113.53 C13.3419145,113.53 2.01553418e-15,100.188086 0,83.73 C-2.01553418e-15,67.2719145 13.3419145,53.93 29.8,53.93 Z" id="Shape" fill="#4E72CD"></path>
            <polygon id="Shape" fill="#FFFFFF" fill-rule="nonzero" points="24.97 99.72 10.76 85.51 15 81.27 24.97 91.23 44.6 71.6 48.84 75.85"></polygon>
        </g>
    </g>
</svg>