<?xml version="1.0" encoding="UTF-8"?>
<svg width="23px" height="29px" viewBox="0 0 23 29" version="1.1" xmlns="http://www.w3.org/2000/svg" xmlns:xlink="http://www.w3.org/1999/xlink">
    <!-- Generator: Sketch 48.2 (47327) - http://www.bohemiancoding.com/sketch -->
    <title>8</title>
    <desc>Created with Sketch.</desc>
    <defs></defs>
    <g id="Page-1" stroke="none" stroke-width="1" fill="none" fill-rule="evenodd">
        <g id="8" fill-rule="nonzero">
            <path d="M16.37,14.51 L18.45,12 L18.45,6.89 C18.2075875,6.08374832 17.871988,5.30851336 17.45,4.58 C17.16,4.41 12.24,2.91 12.24,2.91 L6.73,2.91 L3.37,4.83 L1.78,9.49 L2.2,13.16 L4.62,15.36 L1.45,18.36 L1,22.58 L2.33,25.83 C2.33,25.83 6.33,27.66 6.7,27.66 L13.33,27.66 L16.75,26.83 L19.67,23.91 L20,18 L16.37,14.51 Z M9.78,7.66 C9.95,7.74 11.28,7.58 12.36,7.66 C13.44,7.74 12.36,10.38 12.36,10.38 L11.94,10.38 C11.94,10.38 10,9.33 9.2,9 C8.4,8.67 9.62,7.58 9.78,7.66 Z M9.78,20.33 C9.73807368,19.6906866 9.73807368,19.0493134 9.78,18.41 C10.3108711,18.1577114 10.8775701,17.9890511 11.46,17.91 C12.05,17.91 13.7,19.66 13.7,19.91 C13.7843654,20.7246603 13.9213177,21.5330132 14.11,22.33 C12.6202206,21.7688733 11.1730924,21.1004539 9.78,20.33 Z" id="Shape" fill="#FFFFFF"></path>
            <path d="M19.82,12.51 C21.3122137,11.1842984 22.1551269,9.27588456 22.13,7.28 L22.13,6.94 C22.13,2.6 18.68,0 12.89,0 L12.48,0 C8.4,0 5.31,1.4 3.77,3.77 C1.80472829,5.04213802 0.636166741,7.23933628 0.68,9.58 L0.68,9.92 C0.585754236,11.9735781 1.41475326,13.9617085 2.94,15.34 C1.10748422,16.6446734 0.0136277693,18.7505331 0,21 L0,21.3 C7.77156117e-16,24.19 1.37,29 10.52,29 L10.9,29 C15.11,29 18.07,27.72 19.64,25.34 C21.79,23.92 22.93,21.63 22.93,18.56 L22.93,18.3 C22.9344754,15.9694331 21.7655256,13.793157 19.82,12.51 Z M10.52,27 C4.79,27 2,25.15 2,21.32 L2,21 C2.01910385,18.9778117 3.25444441,17.166242 5.13,16.41 L7.08,15.72 L5.33,14.62 C3.61361339,13.6960714 2.58222087,11.8668092 2.68,9.92 L2.68,9.58 C2.68,6.14 5.68,4 10.48,4 L10.89,4 C13.07,4 18.13,4.48 18.13,8.94 L18.13,9.28 C18.1616613,11.1566597 17.1163804,12.8858419 15.44,13.73 L13.44,14.73 L15.51,15.55 C17.5426079,16.2413069 18.9069959,18.15306 18.9,20.3 L18.9,20.56 C18.9,24.9 16.28,27.01 10.9,27.01 L10.52,27 Z" id="Shape" fill="#59CCC3"></path>
            <path d="M10.21,13.6 L11.87,14.21 L12.31,13.85 C13.3770432,12.9338582 14.0266079,11.6239027 14.11,10.22 L14.11,10 C14.1240821,9.05236554 13.7384861,8.14260224 13.0477283,7.49370854 C12.3569705,6.84481485 11.4249061,6.51677604 10.48,6.59 L10.29,6.59 C9.41997711,6.51521561 8.55591375,6.78937771 7.88816411,7.35208808 C7.22041448,7.91479845 6.80376354,8.71988996 6.73,9.59 L6.73,9.7 C6.73,12 8.71,13 10.21,13.6 Z M12,9.31 C11.6234369,9.14548194 11.2834714,8.90750608 11,8.61 C11.4302904,8.65913341 11.8065538,8.92251773 12,9.31 Z" id="Shape" fill="#59CCC3"></path>
            <path d="M10.56,17.18 L8.39,16.39 L7.95,16.73 C6.86402461,17.5650563 6.23129608,18.8601147 6.24,20.23 L6.24,20.57 C6.24,22.86 7.91,24.28 10.59,24.28 L10.74,24.28 C14.2,24.28 14.74,22.36 14.74,21.21 L14.74,21 C14.71,18.73 12.41,17.87 10.56,17.18 Z M12.32,20.26 C11.32,20.21 10.63,19.87 10.38,19.26 C11.0749746,19.4898491 11.7295965,19.8272831 12.32,20.26 Z" id="Shape" fill="#59CCC3"></path>
        </g>
    </g>
</svg>