<?xml version="1.0" encoding="UTF-8"?>
<svg width="64px" height="56px" viewBox="0 0 64 56" version="1.1" xmlns="http://www.w3.org/2000/svg" xmlns:xlink="http://www.w3.org/1999/xlink">
    <!-- Generator: Sketch 49.3 (51167) - http://www.bohemiancoding.com/sketch -->
    <title>6</title>
    <desc>Created with Sketch.</desc>
    <defs></defs>
    <g id="Page-1" stroke="none" stroke-width="1" fill="none" fill-rule="evenodd">
        <g id="6" fill-rule="nonzero">
            <path d="M58.7,55.7 L5.3,55.7 C3.5,55.7 2.1,54.3 2.1,52.5 L2.1,27 C2.1,26.6 2.4,26.2 2.9,26.2 C3.4,26.2 3.7,26.5 3.7,27 L3.7,52.5 C3.7,53.4 4.5,54.2 5.4,54.2 L58.7,54.2 C59.6,54.2 60.4,53.4 60.4,52.5 L60.4,27 C60.4,26.6 60.7,26.2 61.2,26.2 C61.7,26.2 62,26.5 62,27 L62,52.5 C61.9,54.3 60.4,55.7 58.7,55.7 Z" id="Shape" fill="#344154"></path>
            <path d="M35.6,30.1 C35.2,30.1 34.9,29.8 34.9,29.4 C34.9,29 35.2,28.6 35.6,28.6 C44.4,28.4 53.3,27.6 62,26.1 C62.2,26.1 62.3,25.9 62.3,25.8 L62.3,11.4 C62.3,10.5 61.5,9.7 60.6,9.7 L3.4,9.7 C2.5,9.7 1.7,10.5 1.7,11.4 L1.7,25.7 C1.7,25.9 1.8,26 2,26 C10.7,27.5 19.6,28.3 28.4,28.5 C28.8,28.5 29.1,28.9 29.1,29.3 C29.1,29.7 28.7,30.1 28.3,30 C19.4,29.8 10.4,29 1.7,27.5 C0.8,27.4 0.2,26.6 0.2,25.7 L0.2,11.4 C0.2,9.6 1.6,8.2 3.4,8.2 L60.6,8.2 C62.4,8.2 63.8,9.6 63.8,11.4 L63.8,25.7 C63.8,26.6 63.2,27.4 62.3,27.5 C53.5,29.1 44.5,29.9 35.6,30.1 C35.6,30.1 35.6,30.1 35.6,30.1 Z" id="Shape" fill="#344154"></path>
            <path d="M34.8,33.7 L29.2,33.7 C28.3,33.7 27.7,33 27.7,32.2 L27.7,26.6 C27.7,25.7 28.4,25.1 29.2,25.1 L34.8,25.1 C35.7,25.1 36.3,25.8 36.3,26.6 L36.3,32.2 C36.4,33 35.7,33.7 34.8,33.7 Z M29.2,26.5 C29.2,26.5 29.1,26.5 29.2,26.5 L29.2,32.2 C29.2,32.2 29.2,32.2 29.2,32.2 L34.8,32.2 C34.8,32.2 34.8,32.2 34.8,32.2 L34.8,26.6 C34.8,26.6 34.8,26.6 34.8,26.6 L29.2,26.6 L29.2,26.5 Z" id="Shape" fill="#344154"></path>
            <path d="M45.5,9.7 C45.1,9.7 44.7,9.4 44.7,8.9 L44.7,3.8 C44.7,2.6 43.7,1.7 42.6,1.7 L21.3,1.7 C20.1,1.7 19.2,2.7 19.2,3.8 L19.2,9 C19.2,9.4 18.9,9.8 18.4,9.8 C18,9.8 17.6,9.5 17.6,9 L17.6,3.9 C17.6,1.9 19.2,0.3 21.2,0.3 L42.5,0.3 C44.5,0.3 46.1,1.9 46.1,3.9 L46.1,9 C46.3,9.4 46,9.7 45.5,9.7 Z" id="Shape" fill="#344154"></path>
            <path d="M5.4,46.2 C5.4,48.3 5.4,50.4 5.4,52.5 C23.1,52.5 40.9,52.5 58.6,52.5 C58.6,50.4 58.6,48.3 58.6,46.2 C40.9,47.5 23.1,47.5 5.4,46.2 Z" id="Shape" fill="#99DADD"></path>
        </g>
    </g>
</svg>