<svg width="20" height="16" xmlns="http://www.w3.org/2000/svg"><path d="M.002 13.82a8.007 8.007 0 0 0 5.726-1.6.1.1 0 0 0-.107-.04.364.364 0 0 0-.1-.01 4.1 4.1 0 0 1-.605-.1 3.93 3.93 0 0 1-2.772-2.48c-.013-.04-.021-.08-.033-.12.2.02.386.04.574.05.19.008.38.002.568-.02.19-.019.378-.052.563-.1a.206.206 0 0 0-.124-.05 3.936 3.936 0 0 1-2.405-1.78 3.792 3.792 0 0 1-.562-2.06c.039.01.071.02.1.03.358.19.745.318 1.146.38.1.02.207.03.312.04.05.005.1.005.15 0 .012-.04-.033-.05-.057-.07A3.932 3.932 0 0 1 1.209.87c.016-.03.034-.06.053-.09l.03-.03c.027.035.056.069.088.1a11.164 11.164 0 0 0 6.072 3.72c.502.11 1.01.19 1.522.24.109 0 .218.01.328.02h.081a.842.842 0 0 0-.01-.1 3.9 3.9 0 0 1 1.12-3.61A3.775 3.775 0 0 1 12.601.07a3.9 3.9 0 0 1 3.3.98c.068.06.13.13.191.19a.454.454 0 0 0 .167-.02 7.888 7.888 0 0 0 2.2-.84c.035-.02.07-.03.113-.05a.2.2 0 0 1-.028.14 3.9 3.9 0 0 1-1.483 1.88l-.121.09c.019.04.046.02.066.02a8.521 8.521 0 0 0 1.987-.54.1.1 0 0 1 .106-.02 7.455 7.455 0 0 1-.877 1.08c-.32.33-.67.632-1.045.9v.17c.013.407.002.814-.032 1.22a11.665 11.665 0 0 1-2.65 6.43 10.545 10.545 0 0 1-5.823 3.58c-.502.11-1.01.19-1.521.24a10.5 10.5 0 0 1-1.586.04 11.182 11.182 0 0 1-5.452-1.65.232.232 0 0 1-.111-.09z" fill="#FFF" fill-rule="evenodd"/></svg>