<?xml version="1.0" encoding="UTF-8"?>
<svg width="56px" height="52px" viewBox="0 0 56 52" version="1.1" xmlns="http://www.w3.org/2000/svg" xmlns:xlink="http://www.w3.org/1999/xlink">
    <!-- Generator: Sketch 49.3 (51167) - http://www.bohemiancoding.com/sketch -->
    <title>5</title>
    <desc>Created with Sketch.</desc>
    <defs></defs>
    <g id="Page-1" stroke="none" stroke-width="1" fill="none" fill-rule="evenodd">
        <g id="5" fill="#344154" fill-rule="nonzero">
            <g id="Group">
                <g transform="translate(3.000000, 0.000000)" id="Shape">
                    <path d="M19.9,10.9 C19.5,10.9 19.1,10.6 19.1,10.1 C19.1,5.5 15.4,1.8 10.8,1.8 C6.2,1.8 2.5,5.5 2.5,10.1 C2.5,10.5 2.2,10.9 1.7,10.9 C1.2,10.9 0.9,10.6 0.9,10.1 C0.9,4.7 5.3,0.3 10.7,0.3 C16.1,0.3 20.5,4.7 20.5,10.1 C20.7,10.5 20.4,10.9 19.9,10.9 Z"></path>
                    <path d="M10.9,23.3 C10.5,23.3 10.1,23 10.1,22.5 C10.1,22.1 10.4,21.7 10.9,21.7 C15.5,21.7 19.2,18 19.2,13.4 C19.2,13 19.5,12.6 20,12.6 C20.4,12.6 20.8,12.9 20.8,13.4 C20.7,18.9 16.3,23.3 10.9,23.3 Z"></path>
                    <path d="M19.9,14.4 C19.5,14.4 19.1,14.1 19.1,13.6 L19.1,10 C19.1,9.6 19.4,9.2 19.9,9.2 C20.3,9.2 20.7,9.5 20.7,10 L20.7,13.6 C20.7,14.1 20.4,14.4 19.9,14.4 Z"></path>
                </g>
                <g transform="translate(0.000000, 21.000000)" id="Shape">
                    <path d="M13.1,30.7 C6.4,30.7 0.9,25.2 0.9,18.5 C0.9,18.1 1.2,17.7 1.7,17.7 C2.2,17.7 2.5,18 2.5,18.5 C2.5,24.4 7.3,29.2 13.2,29.2 C19.1,29.2 23.9,24.4 23.9,18.5 C23.9,18.1 24.2,17.7 24.7,17.7 C25.1,17.7 25.5,18 25.5,18.5 C25.3,25.2 19.8,30.7 13.1,30.7 Z"></path>
                    <path d="M24.6,13.7 C24.2,13.7 23.8,13.4 23.8,12.9 C23.8,7 19,2.2 13.1,2.2 C12.7,2.2 12.3,1.9 12.3,1.4 C12.3,1 12.6,0.6 13.1,0.6 C19.8,0.6 25.3,6.1 25.3,12.8 C25.3,13.4 25,13.7 24.6,13.7 Z"></path>
                    <path d="M24.6,19.2 C24.2,19.2 23.8,18.9 23.8,18.4 L23.8,12.6 C23.8,12.2 24.1,11.8 24.6,11.8 C25,11.8 25.4,12.1 25.4,12.6 L25.4,18.4 C25.3,18.9 25,19.2 24.6,19.2 Z"></path>
                </g>
            </g>
            <g id="Group" transform="translate(30.000000, 26.000000)">
                <path d="M5.8,11.4 C2.9,11.4 0.5,9 0.5,6.1 C0.5,3.2 2.9,0.8 5.8,0.8 C8.7,0.8 11.1,3.2 11.1,6.1 C11.1,9 8.8,11.4 5.8,11.4 Z M5.8,2.3 C3.7,2.3 2,4 2,6.1 C2,8.2 3.7,9.9 5.8,9.9 C7.9,9.9 9.6,8.2 9.6,6.1 C9.6,4 7.9,2.3 5.8,2.3 Z" id="Shape"></path>
                <path d="M19.8,25.4 C16.9,25.4 14.5,23 14.5,20.1 C14.5,17.2 16.9,14.8 19.8,14.8 C22.7,14.8 25.1,17.2 25.1,20.1 C25.1,23 22.8,25.4 19.8,25.4 Z M19.8,16.3 C17.7,16.3 16,18 16,20.1 C16,22.2 17.7,23.9 19.8,23.9 C21.9,23.9 23.6,22.2 23.6,20.1 C23.6,18 21.9,16.3 19.8,16.3 Z" id="Shape"></path>
                <path d="M1.3,25.5 C1.1,25.5 0.9,25.4 0.8,25.3 C0.5,25 0.5,24.5 0.8,24.2 L21.5,3.5 C21.8,3.2 22.3,3.2 22.6,3.5 C22.9,3.8 22.9,4.3 22.6,4.6 L1.9,25.3 C1.7,25.4 1.5,25.5 1.3,25.5 Z" id="Shape"></path>
            </g>
        </g>
    </g>
</svg>