<?xml version="1.0" encoding="UTF-8"?>
<svg width="153px" height="117px" viewBox="0 0 153 117" version="1.1" xmlns="http://www.w3.org/2000/svg" xmlns:xlink="http://www.w3.org/1999/xlink">
    <!-- Generator: Sketch 48.2 (47327) - http://www.bohemiancoding.com/sketch -->
    <title>feature4</title>
    <desc>Created with Sketch.</desc>
    <defs></defs>
    <g id="Page-1" stroke="none" stroke-width="1" fill="none" fill-rule="evenodd">
        <g id="feature4">
            <path d="M122.82,75.83 L52.44,75.83 C51.0592881,75.83 49.94,74.7107119 49.94,73.33 L49.94,65.06 C49.94,63.6792881 51.0592881,62.56 52.44,62.56 C53.8207119,62.56 54.94,63.6792881 54.94,65.06 L54.94,70.83 L120.32,70.83 L120.32,65.06 C120.32,63.6792881 121.439288,62.56 122.82,62.56 C124.200712,62.56 125.32,63.6792881 125.32,65.06 L125.32,73.33 C125.32,74.7107119 124.200712,75.83 122.82,75.83 Z" id="Shape" fill="#C2C2C2" fill-rule="nonzero"></path>
            <path d="M116.93,82.92 L58.34,82.92 C56.9592881,82.92 55.84,81.8007119 55.84,80.42 L55.84,74 C55.84,72.6192881 56.9592881,71.5 58.34,71.5 C59.7207119,71.5 60.84,72.6192881 60.84,74 L60.84,78 L114.43,78 L114.43,74 C114.43,72.6192881 115.549288,71.5 116.93,71.5 C118.310712,71.5 119.43,72.6192881 119.43,74 L119.43,80.46 C119.408156,81.8250658 118.295241,82.9201748 116.93,82.92 Z" id="Shape" fill="#C2C2C2" fill-rule="nonzero"></path>
            <path d="M141.44,47.51 L129.35,47.51 C127.969288,47.51 126.85,46.3907119 126.85,45.01 C126.85,43.6292881 127.969288,42.51 129.35,42.51 L141.44,42.51 C145.045801,42.5155723 147.977984,39.6057383 148,36 L148,11.54 C147.99735,9.80283137 147.30472,8.13786563 146.074481,6.91137728 C144.844241,5.68488892 143.177169,4.99734581 141.44,5 L33.82,5 C30.2103412,5.00550674 27.2855067,7.93034116 27.28,11.54 L27.28,36 C27.2855067,39.6096588 30.2103412,42.5344933 33.82,42.54 L45.92,42.54 C47.3007119,42.54 48.42,43.6592881 48.42,45.04 C48.42,46.4207119 47.3007119,47.54 45.92,47.54 L33.82,47.54 C27.4511997,47.5289908 22.2910092,42.3688003 22.28,36 L22.28,11.54 C22.2910092,5.17119972 27.4511997,0.0110091868 33.82,0 L141.44,0 C147.816609,-9.54342939e-06 152.988968,5.16340017 153,11.54 L153,36 C152.97247,42.3648768 147.804936,47.5100595 141.44,47.51 Z" id="Shape" fill="#4E72CD" fill-rule="nonzero"></path>
            <path d="M136.82,26.25 L38.44,26.25 C37.0592881,26.25 35.94,25.1307119 35.94,23.75 C35.94,22.3692881 37.0592881,21.25 38.44,21.25 L136.82,21.25 C138.200712,21.25 139.32,22.3692881 139.32,23.75 C139.32,25.1307119 138.200712,26.25 136.82,26.25 Z" id="Shape" fill="#4E72CD" fill-rule="nonzero"></path>
            <path d="M129.35,67.56 L45.92,67.56 C44.5392881,67.56 43.42,66.4407119 43.42,65.06 L43.42,23.75 C43.42,22.3692881 44.5392881,21.25 45.92,21.25 C47.3007119,21.25 48.42,22.3692881 48.42,23.75 L48.42,62.56 L126.85,62.56 L126.85,23.75 C126.85,22.3692881 127.969288,21.25 129.35,21.25 C130.730712,21.25 131.85,22.3692881 131.85,23.75 L131.85,65.06 C131.85,65.7230412 131.586608,66.358926 131.117767,66.827767 C130.648926,67.2966079 130.013041,67.56 129.35,67.56 Z" id="Shape" fill="#4E72CD" fill-rule="nonzero"></path>
            <path d="M82.58,60.12 C81.1992881,60.12 80.08,59.0007119 80.08,57.62 L80.08,34.29 C80.08,32.9092881 81.1992881,31.79 82.58,31.79 C83.9607119,31.79 85.08,32.9092881 85.08,34.29 L85.08,57.62 C85.08,59.0007119 83.9607119,60.12 82.58,60.12 Z" id="Shape" fill="#C2C2C2" fill-rule="nonzero"></path>
            <path d="M92.24,48.18 L76.58,48.18 C75.1992881,48.18 74.08,47.0607119 74.08,45.68 C74.08,44.2992881 75.1992881,43.18 76.58,43.18 L92.24,43.18 C94.2337479,43.18 95.85,41.5637479 95.85,39.57 C95.85,37.5762521 94.2337479,35.96 92.24,35.96 L83.57,35.96 C82.1892881,35.96 81.07,34.8407119 81.07,33.46 C81.07,32.0792881 82.1892881,30.96 83.57,30.96 L92.24,30.96 C96.9951716,30.9600001 100.85,34.8148284 100.85,39.57 C100.85,44.3251716 96.9951716,48.1799999 92.24,48.18 Z" id="Shape" fill="#C2C2C2" fill-rule="nonzero"></path>
            <path d="M93.58,55.12 L76.58,55.12 C75.1992881,55.12 74.08,54.0007119 74.08,52.62 C74.08,51.2392881 75.1992881,50.12 76.58,50.12 L93.58,50.12 C94.9607119,50.12 96.08,51.2392881 96.08,52.62 C96.08,54.0007119 94.9607119,55.12 93.58,55.12 Z" id="Shape" fill="#C2C2C2" fill-rule="nonzero"></path>
            <path d="M29.8,56.89 C46.2580855,56.89 59.6,70.2319145 59.6,86.69 C59.6,103.148086 46.2580855,116.49 29.8,116.49 C13.3419145,116.49 2.01553418e-15,103.148086 0,86.69 C-2.01553418e-15,70.2319145 13.3419145,56.89 29.8,56.89 Z" id="Shape" fill="#4E72CD"></path>
            <polygon id="Shape" fill="#FFFFFF" fill-rule="nonzero" points="24.97 102.69 10.76 88.48 15 84.24 24.97 94.2 44.6 74.57 48.84 78.81"></polygon>
        </g>
    </g>
</svg>