<?xml version="1.0" encoding="UTF-8"?>
<svg width="250px" height="250px" viewBox="0 0 250 250" version="1.1" xmlns="http://www.w3.org/2000/svg" xmlns:xlink="http://www.w3.org/1999/xlink">
    <!-- Generator: Sketch 48.2 (47327) - http://www.bohemiancoding.com/sketch -->
    <title>4</title>
    <desc>Created with Sketch.</desc>
    <defs></defs>
    <g id="Page-1" stroke="none" stroke-width="1" fill="none" fill-rule="evenodd">
        <g id="4">
            <path d="M112.9,167.3 L122.1,121 L125,123.8 L127.9,121 L137.1,167.3 L125.1,179.5 C121.6,176 116.4,170.8 112.9,167.3 Z" id="Shape" fill="#FFC124" fill-rule="nonzero"></path>
            <g id="Group" transform="translate(78.000000, 63.000000)" stroke="#344154" stroke-linecap="round" stroke-linejoin="round" stroke-width="3">
                <polygon id="Shape" points="0.6 0.4 0.6 13.8 30.3 47.2 47 30.9"></polygon>
                <polygon id="Shape" points="93.4 0.4 93.4 13.8 63.7 47.2 47 30.9"></polygon>
            </g>
            <path d="M78.6,63.4 L171.4,63.4" id="Shape" stroke="#344154" stroke-width="3" stroke-linecap="round" stroke-linejoin="round"></path>
            <polyline id="Shape" stroke="#344154" stroke-width="3" stroke-linecap="round" stroke-linejoin="round" points="136.8 105.4 125 116.9 113.2 105.4"></polyline>
            <polyline id="Shape" stroke="#344154" stroke-width="3" stroke-linecap="round" stroke-linejoin="round" points="119.2 111.2 107.5 169 125 186.6"></polyline>
            <polyline id="Shape" stroke="#344154" stroke-width="3" stroke-linecap="round" stroke-linejoin="round" points="130.8 111.2 142.5 169 125 186.6"></polyline>
        </g>
    </g>
</svg>