<?xml version="1.0" encoding="UTF-8"?>
<svg width="250px" height="250px" viewBox="0 0 250 250" version="1.1" xmlns="http://www.w3.org/2000/svg" xmlns:xlink="http://www.w3.org/1999/xlink">
    <!-- Generator: Sketch 48.2 (47327) - http://www.bohemiancoding.com/sketch -->
    <title>5</title>
    <desc>Created with Sketch.</desc>
    <defs></defs>
    <g id="Page-1" stroke="none" stroke-width="1" fill="none" fill-rule="evenodd">
        <g id="5">
            <path d="M175.1,159.3 L175.1,107.1 L74.9,107.1 L74.9,159.3 L175.1,159.3 Z M125,109.5 C138.1,109.5 148.7,120.1 148.7,133.2 C148.7,146.3 138.1,156.9 125,156.9 C111.9,156.9 101.3,146.3 101.3,133.2 C101.3,120.1 111.9,109.5 125,109.5 Z" id="Shape" fill="#24ADA2" fill-rule="nonzero"></path>
            <path d="M127.4,118.5 C128.3,118.6 129.1,118.7 129.7,118.9 C130.4,119.1 131,119.2 131.6,119.5 L131.6,123.1 C130.5,122.7 130,122.5 128.9,122.3 C127.6,122 126.7,121.9 125.9,121.9 C124.4,121.9 123.2,122.3 122.2,123.1 C121.3,123.9 120.8,125 120.8,126.3 C120.8,127.1 120.9,127.8 121.2,128.4 C121.5,129 121.8,129.5 122.3,129.9 C122.8,130.3 123.8,130.9 125.4,131.6 L127.7,132.7 C129.6,133.6 131,134.7 131.8,135.9 C132.6,137.1 133,138.6 133,140.4 C133,142.2 132.4,143.8 131.3,145.1 C130.2,146.4 129,147 127.4,147.5 L127.4,150.8 L123.7,150.8 L123.7,147.7 C121.9,147.7 120.5,147.1 119.5,146.5 L119.5,142.9 C120,143.3 120.8,143.6 121.9,144 C123,144.4 124,144.5 124.9,144.5 C126.2,144.5 127.3,144.1 128,143.4 C128.8,142.6 129.1,141.7 129.1,140.5 C129.1,139.8 129,139.1 128.7,138.5 C128.4,137.9 128,137.4 127.5,137 C127,136.6 126,136 124.5,135.3 L122.7,134.5 C120.7,133.6 119.2,132.4 118.3,131 C117.4,129.6 116.9,127.9 116.9,125.7 C116.9,123.9 117.5,122.4 118.8,121.1 C120.1,119.8 121.4,119 123.6,118.7 L123.6,115.4 L127.4,115.4 L127.4,118.5 Z" id="Shape" fill="#344154" fill-rule="nonzero"></path>
            <rect id="Rectangle-path" stroke="#344154" stroke-width="3" transform="translate(124.971900, 133.178000) rotate(-90.000000) translate(-124.971900, -133.178000) " x="92.8719" y="77.128" width="64.2" height="112.1"></rect>
            <path d="M164.4,134.8 C164.4,134.1 163.9,133.6 163.2,133.6 C162.5,133.6 162,134.1 162,134.8 C162,135.5 162.5,136 163.2,136 C163.8,136 164.4,135.4 164.4,134.8 Z" id="Shape" stroke="#344154" stroke-width="3"></path>
            <path d="M88,134.8 C88,134.1 87.5,133.6 86.8,133.6 C86.1,133.6 85.6,134.1 85.6,134.8 C85.6,135.5 86.1,136 86.8,136 C87.5,136 88,135.4 88,134.8 Z" id="Shape" stroke="#344154" stroke-width="3"></path>
            <polyline id="Shape" stroke="#344154" stroke-width="3" points="78.9 101.1 78.9 92 171.1 92 171.1 101.1"></polyline>
            <polyline id="Shape" stroke="#344154" stroke-width="3" points="86.6 92 86.6 84.7 163.4 84.7 163.4 92"></polyline>
        </g>
    </g>
</svg>