<?xml version="1.0" encoding="UTF-8"?>
<svg width="277px" height="277px" viewBox="0 0 277 277" version="1.1" xmlns="http://www.w3.org/2000/svg" xmlns:xlink="http://www.w3.org/1999/xlink">
    <!-- Generator: Sketch 48.2 (47327) - http://www.bohemiancoding.com/sketch -->
    <title>2 бизнес</title>
    <desc>Created with Sketch.</desc>
    <defs></defs>
    <g id="Page-1" stroke="none" stroke-width="1" fill="none" fill-rule="evenodd">
        <g id="2-бизнес">
            <path d="M134.3,128.1 L124.1,113.9" id="Shape" stroke="#2D64D3" stroke-width="3" stroke-linecap="round" stroke-linejoin="round"></path>
            <polyline id="Shape" stroke="#2D64D3" stroke-width="3" stroke-linecap="round" stroke-linejoin="round" points="144.8 102.2 131.3 102.2 115.1 125.5 101.2 95 108 84.9 131.3 102.2"></polyline>
            <polyline id="Shape" stroke="#2D64D3" stroke-width="3" stroke-linecap="round" stroke-linejoin="round" points="122.3 175.9 84.3 175.9 84.3 105.9 101.2 95"></polyline>
            <path d="M143.5,128.1 L153.7,113.9" id="Shape" stroke="#2D64D3" stroke-width="3" stroke-linecap="round" stroke-linejoin="round"></path>
            <polyline id="Shape" stroke="#2D64D3" stroke-width="3" stroke-linecap="round" stroke-linejoin="round" points="133 102.2 146.5 102.2 162.7 125.5 176.6 95 169.8 84.9 146.5 102.2"></polyline>
            <polyline id="Shape" stroke="#2D64D3" stroke-width="3" stroke-linecap="round" stroke-linejoin="round" points="155.5 175.9 193.5 175.9 193.5 105.9 176.6 95"></polyline>
            <polyline id="Shape" stroke="#2D64D3" stroke-width="3" stroke-linecap="round" stroke-linejoin="round" points="134.3 128.1 143.5 128.1 155.5 175.9 139 192.9 122.3 175.9 134.3 128.1 143.5 128.1"></polyline>
            <path d="M169.8,84.9 L108,84.9" id="Shape" stroke="#2D64D3" stroke-width="3" stroke-linecap="round" stroke-linejoin="round"></path>
        </g>
    </g>
</svg>