<svg width="21" height="13" xmlns="http://www.w3.org/2000/svg"><path d="M17.824 8.54c.712.655 1.39 1.346 2.031 2.07.281.325.525.68.727 1.06a.757.757 0 0 1-.46 1.18H17.1a2.3 2.3 0 0 1-1.924-.79c-.416-.43-.806-.89-1.208-1.34a3.052 3.052 0 0 0-.542-.49.631.631 0 0 0-1 .25 3.224 3.224 0 0 0-.319 1.43.8.8 0 0 1-.961.94 7.658 7.658 0 0 1-4.32-.94 9.594 9.594 0 0 1-2.907-2.76 36.736 36.736 0 0 1-3.827-6.9c-.242-.54-.065-.84.526-.85.987-.02 1.973-.01 2.958 0a.875.875 0 0 1 .819.62 18.53 18.53 0 0 0 2 3.76c.201.322.457.606.757.84a.455.455 0 0 0 .782-.23 2.6 2.6 0 0 0 .173-.79c.09-.919.074-1.845-.048-2.76a1.138 1.138 0 0 0-.97-1.05c-.288-.06-.245-.17-.106-.33.209-.304.558-.482.927-.47h3.412c.45.047.777.45.731.9v3.84c-.019.388.163.758.481.98a.677.677 0 0 0 .682-.34 12.036 12.036 0 0 0 1.921-2.99c.231-.47.43-.96.624-1.45a.725.725 0 0 1 .77-.54h3.284c.098-.003.196.003.292.02a.58.58 0 0 1 .533.89 8.434 8.434 0 0 1-1.306 2.29c-.548.76-1.132 1.5-1.677 2.28a1.047 1.047 0 0 0 .161 1.67h.006z" fill="#FFF" fill-rule="evenodd"/></svg>