<?xml version="1.0" encoding="UTF-8"?>
<svg width="200px" height="200px" viewBox="0 0 200 200" version="1.1" xmlns="http://www.w3.org/2000/svg" xmlns:xlink="http://www.w3.org/1999/xlink">
    <!-- Generator: Sketch 49.3 (51167) - http://www.bohemiancoding.com/sketch -->
    <title>5</title>
    <desc>Created with Sketch.</desc>
    <defs></defs>
    <g id="Page-1" stroke="none" stroke-width="1" fill="none" fill-rule="evenodd">
        <g id="5">
            <path d="M144.4,133 C128.5,133 115.7,119.2 104.4,107 L104.3,106.9 C102.4,104.9 100.6,102.9 98.8,101.1 C98.2,100.5 98.2,99.6 98.8,99 C101.1,96.7 103.4,94.3 106.1,91.4 C117.5,79.3 129.3,66.9 144.3,66.9 C162.6,66.9 177.4,81.8 177.4,100 C177.5,118.2 162.7,133 144.4,133 Z M102,100 C103.5,101.5 105,103.1 106.5,104.8 L106.6,104.9 C117.5,116.7 129.8,130 144.4,130 C161,130 174.5,116.5 174.5,99.9 C174.5,83.3 161,69.8 144.4,69.8 C130.6,69.8 119.3,81.8 108.4,93.4 C106,95.9 104,98 102,100 Z" id="Shape" fill="#344154" fill-rule="nonzero"></path>
            <path d="M55.4,133 C37.1,133 22.3,118.1 22.3,99.9 C22.3,81.7 37.2,66.8 55.4,66.8 C70.5,66.8 82.2,79.3 93.6,91.3 L93.8,91.5 C96.3,94.1 98.6,96.6 100.9,98.9 C101.5,99.5 101.5,100.4 100.9,101 C99,103 97,105.1 95.3,107 C84.1,119.2 71.3,133 55.4,133 Z M55.4,69.8 C38.8,69.8 25.3,83.3 25.3,99.9 C25.3,116.5 38.8,130 55.4,130 C69.9,130 82.3,116.7 93.2,104.9 C94.6,103.3 96.2,101.6 97.8,99.9 C95.8,97.9 93.8,95.7 91.6,93.5 L91.4,93.3 C80.5,81.8 69.2,69.8 55.4,69.8 Z" id="Shape" fill="#344154" fill-rule="nonzero"></path>
        </g>
    </g>
</svg>