<?xml version="1.0" encoding="UTF-8"?>
<svg width="22px" height="29px" viewBox="0 0 22 29" version="1.1" xmlns="http://www.w3.org/2000/svg" xmlns:xlink="http://www.w3.org/1999/xlink">
    <!-- Generator: Sketch 48.2 (47327) - http://www.bohemiancoding.com/sketch -->
    <title>1</title>
    <desc>Created with Sketch.</desc>
    <defs></defs>
    <g id="Page-1" stroke="none" stroke-width="1" fill="none" fill-rule="evenodd">
        <g id="1" transform="translate(0.000000, -1.000000)" fill-rule="nonzero">
            <polygon id="Shape" fill="#FFFFFF" points="14.09 3.69 9.59 3.69 1.08 7.69 3 11.77 7.08 10.6 7.17 22.94 3.67 22.94 1.67 24.69 1.67 28.52 18.34 28.52 18.34 23.85 18.34 23.1 13.75 23.1"></polygon>
            <path d="M19.49,20.87 L17,20.87 L17,3.38 C17,1.73 16.31,1 14.66,1 L11.94,1 C10.9859696,0.947986048 10.0356621,1.15532585 9.19,1.6 L3.3,4.51 C3.02566579,4.62711801 2.77491907,4.793153 2.56,5 L0.5,7.1 L0.5,7.15 C0.347191175,7.33407045 0.228646568,7.54406376 0.15,7.77 C-0.0476030098,8.34855968 0.0068210762,8.98350735 0.3,9.52 L1.57,12 C2.11,13 3.07,13.34 4.47,12.71 L6.56,11.79 L6.56,20.79 L5.49,20.79 C4.81404093,20.7327343 4.14748095,20.9781162 3.67,21.46 L2,23.23 C1.38368643,23.7006973 1.05766603,24.4588843 1.14,25.23 L1.14,27.49 C1.05825174,28.1288395 1.27998925,28.7691473 1.73930933,29.2206157 C2.1986294,29.6720842 2.84266479,29.8827498 3.48,29.79 L17.48,29.79 C17.9436845,29.804626 18.4038545,29.705037 18.82,29.5 C19.1179743,29.3417692 19.3617692,29.0979743 19.52,28.8 L20.82,27.5 C21.515709,27.0862016 21.9063867,26.3048462 21.82,25.5 L21.82,23.25 C21.9202721,22.602239 21.709339,21.9451086 21.2507936,21.4767231 C20.7922482,21.0083376 20.1397437,20.7835018 19.49,20.87 Z M17.83,27.51 C17.83696,27.6032036 17.83696,27.6967964 17.83,27.79 C17.7201671,27.7985743 17.6098329,27.7985743 17.5,27.79 L3.5,27.79 C3.39016709,27.7985743 3.27983291,27.7985743 3.17,27.79 C3.16303998,27.6967964 3.16303998,27.6032036 3.17,27.51 L3.17,25.25 C3.15984098,25.130215 3.15984098,25.009785 3.17,24.89 C3.27649545,24.881453 3.38350455,24.881453 3.49,24.89 L8.56,24.89 L8.56,9.37 L7.16,9.37 L3.66,10.91 C3.54742454,10.9636392 3.43029506,11.0071444 3.31,11.04 L2.08,8.6 C2,8.49 2,8.43 2,8.42 C2.05435776,8.37481181 2.11499068,8.33775836 2.18,8.31 L8.08,5.39 C8.64974657,5.08425331 9.29542429,4.94886927 9.94,5 L12.66,5 L13,5 C13.0080688,5.11986436 13.0080688,5.24013564 13,5.36 L13,24.87 L17.45,24.87 C17.5564955,24.861453 17.6635045,24.861453 17.77,24.87 C17.780159,24.989785 17.780159,25.110215 17.77,25.23 L17.83,27.51 Z" id="Shape" fill="#59CCC3"></path>
        </g>
    </g>
</svg>