<?xml version="1.0" encoding="UTF-8"?>
<svg width="277px" height="277px" viewBox="0 0 277 277" version="1.1" xmlns="http://www.w3.org/2000/svg" xmlns:xlink="http://www.w3.org/1999/xlink">
    <!-- Generator: Sketch 48.2 (47327) - http://www.bohemiancoding.com/sketch -->
    <title>1 комфорт</title>
    <desc>Created with Sketch.</desc>
    <defs></defs>
    <g id="Page-1" stroke="none" stroke-width="1" fill="none" fill-rule="evenodd">
        <g id="1-комфорт">
            <path d="M107.2,136.5 L101.2,102.9 C101.2,90.2 111.5,79.9 124.2,79.9 L153.7,79.9 C166.4,79.9 176.7,90.2 176.7,102.9 L170.7,136.5" id="Shape" stroke="#2D64D3" stroke-width="3" stroke-linecap="round"></path>
            <g id="Group" transform="translate(122.000000, 99.000000)" stroke="#2D64D3" stroke-linecap="round" stroke-width="3">
                <path d="M0.6,0.7 L0.6,14.8" id="Shape"></path>
                <path d="M34.6,0.7 L34.6,14.8" id="Shape"></path>
                <path d="M16.9,0.7 L16.9,14.8" id="Shape"></path>
            </g>
            <g id="Group" transform="translate(82.000000, 123.000000)" stroke="#2D64D3" stroke-width="3">
                <path d="M12.9,24.5 C6.2,24.5 0.8,19.1 0.8,12.4 C0.8,5.7 6.2,0.3 12.9,0.3 C19.6,0.3 25,5.7 25,12.4" id="Shape"></path>
                <path d="M25,60.1 C18.3,60.1 12.9,54.7 12.9,48" id="Shape"></path>
                <path d="M12.9,24.5 L12.9,48.1" id="Shape" stroke-linecap="round"></path>
            </g>
            <g id="Group" transform="translate(170.000000, 123.000000)" stroke="#2D64D3" stroke-width="3">
                <path d="M12.9,24.5 C19.6,24.5 25,19.1 25,12.4 C25,5.7 19.6,0.3 12.9,0.3 C6.2,0.3 0.8,5.7 0.8,12.4" id="Shape"></path>
                <path d="M0.8,60.1 C7.5,60.1 12.9,54.7 12.9,48" id="Shape"></path>
                <path d="M12.9,24.5 L12.9,48.1" id="Shape" stroke-linecap="round"></path>
            </g>
            <path d="M107,183.1 L170.8,183.1" id="Shape" stroke="#2D64D3" stroke-width="3"></path>
            <path d="M170.8,155.8 C170.8,161.3 166.3,165.8 160.8,165.8 L117,165.8 C111.5,165.8 107,161.3 107,155.8 L107,152.6 C107,147.1 111.5,142.6 117,142.6 L160.8,142.6 C166.3,142.6 170.8,147.1 170.8,152.6 L170.8,155.8 Z" id="Shape" stroke="#2D64D3" stroke-width="3"></path>
            <circle id="Oval" stroke="#2D64D3" stroke-width="3" stroke-linecap="round" cx="106" cy="189.5" r="6.4"></circle>
            <circle id="Oval" stroke="#2D64D3" stroke-width="3" stroke-linecap="round" cx="171.8" cy="189.5" r="6.4"></circle>
        </g>
    </g>
</svg>