<?xml version="1.0" encoding="UTF-8"?>
<svg width="42px" height="66px" viewBox="0 0 42 66" version="1.1" xmlns="http://www.w3.org/2000/svg" xmlns:xlink="http://www.w3.org/1999/xlink">
    <!-- Generator: Sketch 49.3 (51167) - http://www.bohemiancoding.com/sketch -->
    <title>8</title>
    <desc>Created with Sketch.</desc>
    <defs></defs>
    <g id="Page-1" stroke="none" stroke-width="1" fill="none" fill-rule="evenodd">
        <g id="8" fill-rule="nonzero">
            <g id="Group">
                <rect id="Rectangle-path" fill="#99DADD" x="5.4" y="8.2" width="31.3" height="7.2"></rect>
                <rect id="Rectangle-path" fill="#99DADD" x="5.4" y="47.2" width="31.3" height="7.2"></rect>
                <path d="M36.8,66 L5.2,66 C2.7,66 0.7,64 0.7,61.5 L0.7,4.5 C0.7,2 2.7,0 5.2,0 L36.9,0 C39.4,0 41.4,2 41.4,4.5 L41.4,61.5 C41.3,64 39.3,66 36.8,66 Z M5.2,1.5 C3.6,1.5 2.2,2.8 2.2,4.5 L2.2,61.5 C2.2,63.1 3.5,64.5 5.2,64.5 L36.9,64.5 C38.5,64.5 39.9,63.2 39.9,61.5 L39.9,4.5 C39.9,2.9 38.6,1.5 36.9,1.5 L5.2,1.5 Z" id="Shape" fill="#344154"></path>
                <path d="M21,63.1 C19.2,63.1 17.8,61.7 17.8,59.9 C17.8,58.1 19.2,56.7 21,56.7 C22.8,56.7 24.2,58.1 24.2,59.9 C24.2,61.7 22.8,63.1 21,63.1 Z M21,58.2 C20,58.2 19.3,59 19.3,59.9 C19.3,60.9 20.1,61.6 21,61.6 C21.9,61.6 22.7,60.8 22.7,59.9 C22.7,59 22,58.2 21,58.2 Z" id="Shape" fill="#344154"></path>
            </g>
            <g id="Group" transform="translate(14.000000, 23.000000)" fill="#344154">
                <path d="M2.9,17.9 C2.5,17.9 2.1,17.6 2.1,17.1 L2.1,0.9 C2.1,0.5 2.4,0.1 2.9,0.1 C3.3,0.1 3.7,0.4 3.7,0.9 L3.7,17.1 C3.7,17.5 3.3,17.9 2.9,17.9 Z" id="Shape"></path>
                <path d="M10.3,10.1 C9.9,10.1 9.5,9.8 9.5,9.3 C9.5,8.9 9.8,8.60111178 10.3,8.60111178 C12.2,8.60111178 13.8,6.9 13.8,5 C13.8,3.1 12.2,1.69696514 10.3,1.69696514 C9.9,1.69696514 9.5,1.38423978 9.5,0.884239784 C9.5,0.484239784 9.8,0.100435697 10.3,0.100435697 C13,0.100435697 15.3,2.1 15.3,4.9 C15.2,7.8 13,10.1 10.3,10.1 Z" id="Shape"></path>
                <path d="M10.3,10.1 L2.9,10.1 C2.5,10.1 2.1,9.8 2.1,9.3 L2.1,0.9 C2.1,0.5 2.4,0.1 2.9,0.1 L10.3,0.1 C10.7,0.1 11.1,0.4 11.1,0.9 C11.1,1.3 10.8,1.7 10.3,1.7 L3.7,1.7 L3.7,8.6 L10.3,8.6 C10.7,8.6 11.1,8.9 11.1,9.4 C11,9.7 10.7,10.1 10.3,10.1 Z" id="Shape"></path>
                <path d="M12.4,13.6 L1,13.6 C0.6,13.6 0.2,13.3 0.2,12.8 C0.2,12.3 0.6,12 1,12 L12.3,12 C12.7,12 13.1,12.3 13.1,12.8 C13.1,13.3 12.8,13.6 12.4,13.6 Z" id="Shape"></path>
            </g>
        </g>
    </g>
</svg>