<?xml version="1.0" encoding="UTF-8"?>
<svg width="25px" height="29px" viewBox="0 0 25 29" version="1.1" xmlns="http://www.w3.org/2000/svg" xmlns:xlink="http://www.w3.org/1999/xlink">
    <!-- Generator: Sketch 48.2 (47327) - http://www.bohemiancoding.com/sketch -->
    <title>4</title>
    <desc>Created with Sketch.</desc>
    <defs></defs>
    <g id="Page-1" stroke="none" stroke-width="1" fill="none" fill-rule="evenodd">
        <g id="4" transform="translate(-1.000000, -1.000000)" fill-rule="nonzero">
            <path d="M20.13,18.52 L19.3,3.44 L11.47,4.44 L2,19 L2,22.92 L12.42,23.25 L13.12,28.75 L19.17,28.75 L19.75,23.58 L22.5,22.83 L22.5,18.52 L20.13,18.52 Z M12.71,17.19 L9,17.19 L12.75,13.19 L12.71,17.19 Z" id="Shape" fill="#FFFFFF"></path>
            <path d="M25.33,17.72 C25.33,16.27 24.73,15.72 23.26,15.72 L22.26,15.72 L22.26,3.61 C22.26,1.73 21.54,1 19.69,1 L15,1 C14.2295498,0.932727708 13.4628842,1.16559343 12.86,1.65 C12.7460495,1.74912529 12.6391253,1.85604952 12.54,1.97 L10.66,3.88 C10.4138211,4.13118777 10.1927712,4.40582555 10,4.7 L2,17.62 C1.22647964,18.6938561 0.870951893,20.012864 1,21.33 L1,22.25 C1,23.84 1.68,24.52 3.27,24.52 L12,24.52 L12,27.52 C12,29.61 13.21,29.79 14.46,29.79 L17.84,29.79 C18.5741473,29.9060836 19.3191383,29.6602366 19.84,29.13 L21.33,27.54 C21.88,27.27 22.27,26.71 22.27,25.54 L22.27,24.38 C22.6055651,24.2821112 22.8914797,24.0605273 23.07,23.76 L24.5,22.28 C24.7741086,22.1443032 24.9930712,21.9182773 25.12,21.64 C25.2783322,21.2743966 25.3534753,20.8781876 25.34,20.48 L25.33,17.72 Z M18.26,27.54 C18.26,27.65 18.26,27.73 18.26,27.8 L14.06,27.8 C14.06,27.74 14.06,27.65 14.06,27.54 L14.06,22.54 L3,22.54 C3,22.48 3,22.39 3,22.28 L3,21.36 C2.88052475,20.4115796 3.14315948,19.4545818 3.73,18.7 L11.73,5.78 C12.22,5 12.33,5 13,5 L17.64,5 C17.819634,4.98376706 18.000366,4.98376706 18.18,5 C18.1972325,5.19294933 18.1972325,5.38705067 18.18,5.58 L18.18,19.69 L21.25,19.69 L21.25,22.52 L18.26,22.52 L18.26,27.54 Z" id="Shape" fill="#59CCC3"></path>
            <path d="M5.88,19.69 L14,19.69 L14,9.06 L12.4,9.06 L5.88,19.69 Z M11.47,15.69 L12.05,14.76 L12.05,15.69 L11.47,15.69 Z" id="Shape" fill="#59CCC3"></path>
        </g>
    </g>
</svg>