<?xml version="1.0" encoding="UTF-8"?>
<svg width="22px" height="30px" viewBox="0 0 22 30" version="1.1" xmlns="http://www.w3.org/2000/svg" xmlns:xlink="http://www.w3.org/1999/xlink">
    <!-- Generator: Sketch 48.2 (47327) - http://www.bohemiancoding.com/sketch -->
    <title>2</title>
    <desc>Created with Sketch.</desc>
    <defs></defs>
    <g id="Page-1" stroke="none" stroke-width="1" fill="none" fill-rule="evenodd">
        <g id="2" fill-rule="nonzero">
            <polygon id="Shape" fill="#FFFFFF" points="2 5.12 3 9.12 6.84 8.2 10.76 8.28 11.59 9.12 11.59 10.78 10.76 12.78 4 16.62 1.5 19.87 0.84 25.28 0.84 27.45 3.25 27.87 17.92 27.87 17.92 23.62 7.67 22.87 8.75 20.12 13.67 17.45 16.59 15.45 18.75 8.95 17.67 5.12 13.17 2.28 5.42 3.03"></polygon>
            <path d="M13.82,18.78 C15.5170843,18.0507183 16.9929518,16.8886451 18.1,15.41 C20.49,13.65 21.52,11.41 21.52,8.17 L21.52,7.71 C21.52,2.71 18.35,0 12.58,0 L12.46,0 C9.64988401,0.00228295776 6.86510787,0.531424343 4.25,1.56 C3.84612791,1.71408128 3.49777611,1.98579568 3.25,2.34 L1.45,4.06 L1.39,4.12 C0.918448909,4.67347844 0.784434313,5.43927613 1.04,6.12 L1.73,8.88 C1.85013107,9.7075511 2.56381996,10.3186739 3.4,10.31 C3.67636331,10.3044079 3.9499607,10.2537417 4.21,10.16 C5.81968472,9.59615705 7.50544869,9.27923343 9.21,9.22 L9.36,9.22 C11,9.25 11,9.93 11,10.48 L11,10.79 C11.0070088,10.9265768 11.0070088,11.0634232 11,11.2 L10.16,11.59 L8.51,12.32 C6.60163551,13.0518012 4.93088432,14.2936224 3.68,15.91 C1.06,17.85 0,20.44 0,24.55 L0,27 C0,28.93 1.32,29.15 2.3,29.15 L17.1,29.15 C17.7758722,29.2127224 18.4451254,28.9750095 18.93,28.5 L20.75,26.68 C21.2245583,26.2567609 21.4695766,25.6330778 21.41,25 L21.41,22.48 C21.41,20.87 20.74,20.21 19.11,20.21 L10.87,20.21 L11.87,19.74 L13.82,18.78 Z M17.41,27 C17.41,27.05 17.41,27.1 17.41,27.13 L17.11,27.13 L2,27.13 C2,27.13 2,27.05 2,26.99 L2,24.55 C2,20 3.35,17.92 7.35,16.15 L9,15.42 C11.74,14.21 13,13.2 13,10.79 L13,10.48 C13,9.28 12.52,7.26 9.28,7.26 L9.17,7.26 C7.28003845,7.31039783 5.4086957,7.64757671 3.62,8.26 L3,5.66 C2.99632246,5.5900483 2.99632246,5.5199517 3,5.45 L3.08,5.45 C5.43407807,4.51930348 7.93877427,4.0278543 10.47,4 L10.59,4 C15.26,4 17.53,5.87 17.53,9.71 L17.53,10.17 C17.53,13.57 16.33,15.35 12.96,16.98 L10.96,17.98 C7.4,19.7 6.06,20.57 6.06,22.83 L6.06,24.25 L17.41,24.25 C17.41,24.31 17.41,24.4 17.41,24.51 L17.41,27 Z" id="Shape" fill="#59CCC3"></path>
        </g>
    </g>
</svg>