<?xml version="1.0" encoding="UTF-8"?>
<svg width="48px" height="68px" viewBox="0 0 48 68" version="1.1" xmlns="http://www.w3.org/2000/svg" xmlns:xlink="http://www.w3.org/1999/xlink">
    <!-- Generator: Sketch 49.3 (51167) - http://www.bohemiancoding.com/sketch -->
    <title>2</title>
    <desc>Created with Sketch.</desc>
    <defs></defs>
    <g id="Page-1" stroke="none" stroke-width="1" fill="none" fill-rule="evenodd">
        <g id="2" fill-rule="nonzero">
            <rect id="Rectangle-path" fill="#99DADD" x="4.7" y="22" width="22.1" height="33.5"></rect>
            <path d="M27.1,67.7 L4.5,67.7 C2,67.7 0,65.7 0,63.2 L0,21.1 C0,18.6 2,16.6 4.5,16.6 L27.1,16.6 C29.6,16.6 31.6,18.6 31.6,21.1 L31.6,63.2 C31.6,65.7 29.6,67.7 27.1,67.7 Z M4.5,18.1 C2.9,18.1 1.5,19.4 1.5,21.1 L1.5,63.2 C1.5,64.8 2.8,66.2 4.5,66.2 L27.1,66.2 C28.7,66.2 30.1,64.9 30.1,63.2 L30.1,21.1 C30.1,19.5 28.8,18.1 27.1,18.1 L4.5,18.1 Z" id="Shape" fill="#344154"></path>
            <path d="M15.8,65.6 C14.3,65.6 13.1,64.4 13.1,62.9 C13.1,61.4 14.3,60.2 15.8,60.2 C17.3,60.2 18.5,61.4 18.5,62.9 C18.5,64.4 17.3,65.6 15.8,65.6 Z M15.8,61.7 C15.2,61.7 14.6,62.2 14.6,62.9 C14.6,63.6 15.1,64.1 15.8,64.1 C16.5,64.1 17,63.6 17,62.9 C17,62.2 16.4,61.7 15.8,61.7 Z" id="Shape" fill="#344154"></path>
            <path d="M33.3,34.4 C32.9,34.4 32.6,34.1 32.6,33.8 C32.5,33.4 32.8,33 33.2,32.9 C40.8,31.8 46.5,25.1 46.5,17.4 C46.5,8.8 39.5,1.8 30.9,1.8 C23.2,1.8 16.5,7.5 15.4,15.1 C15.3,15.5 15,15.8 14.5,15.7 C14.1,15.6 13.8,15.3 13.9,14.8 C15.1,6.5 22.4,0.2 30.9,0.2 C40.3,0.2 48,7.9 48,17.3 C48,25.7 41.7,33 33.4,34.3 C33.3,34.4 33.3,34.4 33.3,34.4 Z" id="Shape" fill="#344154"></path>
        </g>
    </g>
</svg>