<?xml version="1.0" encoding="UTF-8"?>
<svg width="19px" height="18px" viewBox="0 0 19 18" version="1.1" xmlns="http://www.w3.org/2000/svg" xmlns:xlink="http://www.w3.org/1999/xlink">
    <!-- Generator: Sketch 48.2 (47327) - http://www.bohemiancoding.com/sketch -->
    <title>Фигура 19</title>
    <desc>Created with Sketch.</desc>
    <defs></defs>
    <g id="Page-1" stroke="none" stroke-width="1" fill="none" fill-rule="evenodd">
        <g id="Фигура-19" transform="translate(0.000000, -1.000000)" fill="#59CCC3">
            <path d="M17.169,19 L1.83,19 C0.80753299,18.9879198 -0.0116660178,18.1494718 5.78359517e-15,17.127 L5.78359517e-15,6.616 C-0.013903099,5.59296425 0.803969178,4.75226138 1.827,4.738 L5.11,4.738 L5.11,1.951 C5.10859761,1.64030274 5.26097435,1.34902732 5.517,1.173 C5.66881809,1.06021161 5.85287066,0.99921133 6.042,0.999 L12.982,0.999 C13.4913846,1.00613143 13.8986731,1.42460916 13.892,1.934 L13.892,2.31 C13.892153,2.37178022 13.886123,2.43342069 13.874,2.494 L13.874,4.738 L17.166,4.738 C17.6585065,4.74300507 18.1287566,4.94388148 18.4728769,5.29625761 C18.8169971,5.64863374 19.0066705,6.12351326 19,6.616 L19,17.126 C19.011666,18.1490241 18.1920193,18.9879197 17.169,19 Z M11.691,3.241 L7.3,3.241 L7.3,4.734 L11.692,4.734 L11.692,3.241 L11.691,3.241 Z M16.815,7.747 C16.8200062,7.33796305 16.4930231,7.00203371 16.084,6.996 L2.917,6.996 C2.50813375,7.00203236 2.18143714,7.33812709 2.187,7.747 L2.18693,11.508 L16.8150567,11.508 L16.815,7.747 Z M16.8150567,13.754 L10.606,13.754 L10.606,14.322 C10.6126732,14.8302863 10.2062801,15.2478687 9.698,15.255 L9.332,15.255 C8.8237199,15.2478687 8.41732678,14.8302863 8.424,14.322 L8.424,13.754 L2.18693,13.754 L2.187,16 C2.18143714,16.4088729 2.50813375,16.7449676 2.917,16.751 L16.084,16.751 C16.4930231,16.7449663 16.8200062,16.4090369 16.815,16 L16.8150567,13.754 Z" id="Фигура_19"></path>
        </g>
    </g>
</svg>