<?xml version="1.0" encoding="UTF-8"?>
<svg width="63px" height="54px" viewBox="0 0 63 54" version="1.1" xmlns="http://www.w3.org/2000/svg" xmlns:xlink="http://www.w3.org/1999/xlink">
    <!-- Generator: Sketch 49.3 (51167) - http://www.bohemiancoding.com/sketch -->
    <title>7</title>
    <desc>Created with Sketch.</desc>
    <defs></defs>
    <g id="Page-1" stroke="none" stroke-width="1" fill="none" fill-rule="evenodd">
        <g id="7" fill="#344154" fill-rule="nonzero">
            <g id="Group">
                <path d="M32.8,17.8 C32.4,17.8 32,17.5 32,17 C32,8.8 25.4,2.2 17.2,2.2 C9,2.2 2.4,8.8 2.4,17 C2.4,17.4 2.1,17.8 1.6,17.8 C1.1,17.8 1,17.5 1,17.1 C1,8.1 8.3,0.8 17.3,0.8 C26.3,0.8 33.6,8.1 33.6,17.1 C33.6,17.5 33.2,17.8 32.8,17.8 Z" id="Shape"></path>
                <path d="M17.3,53.2 C8.3,53.2 1,45.9 1,36.9 C1,36.5 1.3,36.1 1.8,36.1 C2.3,36.1 2.6,36.4 2.6,36.9 C2.6,45.1 9.2,51.7 17.4,51.7 C25.6,51.7 32.2,45.1 32.2,36.9 C32.2,36.5 32.5,36.1 33,36.1 C33.4,36.1 33.8,36.4 33.8,36.9 C33.6,45.9 26.3,53.2 17.3,53.2 Z" id="Shape"></path>
                <path d="M1.7,38.1 C1.3,38.1 0.9,37.8 0.9,37.3 L0.9,17.1 C0.9,16.7 1.2,16.3 1.7,16.3 C2.2,16.3 2.5,16.6 2.5,17.1 L2.5,37.4 C2.5,37.8 2.2,38.1 1.7,38.1 Z" id="Shape"></path>
                <path d="M32.8,38.1 C32.4,38.1 32,37.8 32,37.3 L32,17.1 C32,16.7 32.3,16.3 32.8,16.3 C33.2,16.3 33.6,16.6 33.6,17.1 L33.6,37.4 C33.6,37.8 33.2,38.1 32.8,38.1 Z" id="Shape"></path>
            </g>
            <g id="Group" transform="translate(38.000000, 28.000000)">
                <path d="M5.7,11.1 C2.8,11.1 0.4,8.7 0.4,5.8 C0.4,2.9 2.8,0.5 5.7,0.5 C8.6,0.5 11,2.9 11,5.8 C11,8.7 8.6,11.1 5.7,11.1 Z M5.7,2.1 C3.6,2.1 1.9,3.8 1.9,5.9 C1.9,8 3.6,9.7 5.7,9.7 C7.8,9.7 9.5,8 9.5,5.9 C9.5,3.8 7.8,2.1 5.7,2.1 Z" id="Shape"></path>
                <path d="M19.7,25.1 C16.8,25.1 14.4,22.7 14.4,19.8 C14.4,16.9 16.8,14.5 19.7,14.5 C22.6,14.5 25,16.9 25,19.8 C25,22.7 22.6,25.1 19.7,25.1 Z M19.7,16.1 C17.6,16.1 15.9,17.8 15.9,19.9 C15.9,22 17.6,23.7 19.7,23.7 C21.8,23.7 23.5,22 23.5,19.9 C23.5,17.8 21.8,16.1 19.7,16.1 Z" id="Shape"></path>
                <path d="M1.2,25.2 C1,25.2 0.8,25.1 0.7,25 C0.4,24.7 0.4,24.2 0.7,23.9 L21.4,3.2 C21.7,2.9 22.2,2.9 22.5,3.2 C22.8,3.5 22.8,4 22.5,4.3 L1.7,25 C1.6,25.2 1.4,25.2 1.2,25.2 Z" id="Shape"></path>
            </g>
        </g>
    </g>
</svg>