<?xml version="1.0" encoding="UTF-8"?>
<svg width="200px" height="200px" viewBox="0 0 200 200" version="1.1" xmlns="http://www.w3.org/2000/svg" xmlns:xlink="http://www.w3.org/1999/xlink">
    <!-- Generator: Sketch 49.3 (51167) - http://www.bohemiancoding.com/sketch -->
    <title>6</title>
    <desc>Created with Sketch.</desc>
    <defs></defs>
    <g id="Page-1" stroke="none" stroke-width="1" fill="none" fill-rule="evenodd">
        <g id="6">
            <g id="Group" transform="translate(43.000000, 44.000000)" fill="#344154" fill-rule="nonzero">
                <path d="M52.3,46.6 C51.8,46.6 51.4,46.4 51.1,46 L40.8,31.8 C40.3,31.1 40.5,30.2 41.1,29.7 C41.8,29.2 42.7,29.4 43.2,30 L53.5,44.2 C54,44.9 53.8,45.8 53.2,46.3 C52.9,46.5 52.6,46.6 52.3,46.6 Z" id="Shape"></path>
                <path d="M33.1,44 C33.1,44 33,44 33,44 C32.5,44 32,43.6 31.8,43.1 L17.9,12.7 C17.7,12.2 17.7,11.7 18,11.2 L24.8,1 C25,0.7 25.4,0.4 25.8,0.4 C26.2,0.3 26.6,0.4 27,0.7 L49.9,17.7 L62.9,17.7 C63.7,17.7 64.4,18.4 64.4,19.2 C64.4,20 63.7,20.7 62.9,20.7 L50.1,20.7 L34.4,43.4 C34.1,43.8 33.6,44 33.1,44 Z M20.9,12.2 L33.4,39.5 L47.2,19.5 L26.4,4 L20.9,12.2 Z" id="Shape"></path>
                <path d="M40.3,94.4 L2.3,94.4 C1.5,94.4 0.8,93.7 0.8,92.9 L0.8,22.9 C0.8,22.4 1.1,21.9 1.5,21.6 L18.4,10.7 C19.1,10.2 20,10.5 20.5,11.1 C20.9,11.8 20.7,12.7 20.1,13.2 L3.8,23.8 L3.8,91.4 L40.3,91.4 C41.1,91.4 41.8,92.1 41.8,92.9 C41.8,93.7 41.1,94.4 40.3,94.4 Z" id="Shape"></path>
                <path d="M61.5,46.6 C61.2,46.6 60.9,46.5 60.6,46.3 C59.9,45.8 59.8,44.9 60.3,44.2 L70.6,30 C71.1,29.3 72,29.2 72.7,29.7 C73.4,30.2 73.5,31.1 73,31.8 L62.7,46 C62.4,46.4 61.9,46.6 61.5,46.6 Z" id="Shape"></path>
                <path d="M80.7,44 C80.2,44 79.7,43.8 79.5,43.4 L63.8,20.7 L51,20.7 C50.2,20.7 49.5,20 49.5,19.2 C49.5,18.4 50.2,17.7 51,17.7 L64,17.7 L86.9,0.7 C87.2,0.5 87.7,0.4 88.1,0.4 C88.5,0.5 88.9,0.7 89.1,1 L95.9,11.2 C96.2,11.6 96.2,12.2 96,12.7 L82,43.1 C81.8,43.6 81.3,43.9 80.8,44 C80.7,44 80.7,44 80.7,44 Z M66.6,19.5 L80.4,39.5 L92.9,12.2 L87.5,4.1 L66.6,19.5 Z" id="Shape"></path>
                <path d="M111.5,94.4 L73.5,94.4 C72.7,94.4 72,93.7 72,92.9 C72,92.1 72.7,91.4 73.5,91.4 L110,91.4 L110,23.8 L93.8,13.3 C93.1,12.9 92.9,11.9 93.4,11.2 C93.8,10.5 94.8,10.3 95.5,10.8 L112.4,21.7 C112.8,22 113.1,22.5 113.1,23 L113.1,92.9 C113,93.7 112.3,94.4 111.5,94.4 Z" id="Shape"></path>
                <path d="M57,111.4 C56.6,111.4 56.2,111.2 55.9,110.9 L39.2,93.9 C38.8,93.5 38.7,93 38.8,92.5 L50.8,44.8 C50.8,44.6 50.9,44.4 51,44.3 C51.1,44.2 51.1,44.1 51.2,44 C51.5,43.8 51.8,43.6 52.2,43.6 C52.2,43.6 52.2,43.6 52.2,43.6 C52.2,43.6 52.2,43.6 52.2,43.6 L61.4,43.6 C61.4,43.6 61.4,43.6 61.4,43.6 C61.4,43.6 61.4,43.6 61.4,43.6 C61.8,43.6 62.1,43.7 62.4,44 C62.5,44.1 62.6,44.2 62.6,44.3 C62.7,44.5 62.8,44.6 62.8,44.8 L74.8,92.5 C74.9,93 74.8,93.5 74.4,93.9 L58,111 C57.7,111.2 57.3,111.4 57,111.4 Z M41.9,92.4 L56.9,107.7 L71.8,92.4 L60.3,46.6 L53.5,46.6 L41.9,92.4 Z" id="Shape"></path>
                <path d="M87.8,3.4 L26,3.4 C25.2,3.4 24.5,2.7 24.5,1.9 C24.5,1.1 25.2,0.4 26,0.4 L87.8,0.4 C88.6,0.4 89.3,1.1 89.3,1.9 C89.3,2.7 88.6,3.4 87.8,3.4 Z" id="Shape"></path>
            </g>
            <path d="M91.2,106.9 C90.7,106.9 90.2,106.6 89.9,106.1 C89.5,105.4 89.7,104.5 90.5,104.1 L105.7,95.4 C106.4,95 107.3,95.2 107.7,96 C108.1,96.7 107.9,97.6 107.1,98 L91.9,106.7 C91.7,106.8 91.5,106.9 91.2,106.9 Z" id="Shape" fill="#344154" fill-rule="nonzero"></path>
            <path d="M88.2,118.9 C87.7,118.9 87.2,118.6 86.9,118.1 C86.5,117.4 86.7,116.5 87.5,116.1 L108,104.4 C108.7,104 109.6,104.2 110,105 C110.4,105.7 110.2,106.6 109.4,107 L88.9,118.7 C88.7,118.8 88.4,118.9 88.2,118.9 Z" id="Shape" fill="#344154" fill-rule="nonzero"></path>
            <path d="M84.9,132.1 C84.4,132.1 83.9,131.8 83.6,131.3 C83.2,130.6 83.4,129.7 84.2,129.3 L110.5,114.3 C111.2,113.9 112.1,114.1 112.5,114.9 C112.9,115.6 112.7,116.5 111.9,116.9 L85.6,131.9 C85.4,132 85.1,132.1 84.9,132.1 Z" id="Shape" fill="#344154" fill-rule="nonzero"></path>
            <path d="M86.4,141.5 C85.9,141.5 85.4,141.2 85.1,140.7 C84.7,140 84.9,139.1 85.7,138.7 L112.8,123.3 C113.5,122.9 114.4,123.1 114.8,123.9 C115.2,124.6 115,125.5 114.2,125.9 L87.1,141.3 C86.9,141.5 86.6,141.5 86.4,141.5 Z" id="Shape" fill="#344154" fill-rule="nonzero"></path>
            <path d="M133.1,124.6 C132.8,124.6 132.5,124.5 132.2,124.3 L121,116 C120.6,115.7 120.4,115.3 120.4,114.8 L120.4,97.7 C120.4,96.9 121.1,96.2 121.9,96.2 L144.2,96.2 C145,96.2 145.7,96.9 145.7,97.7 L145.7,114.8 C145.7,115.3 145.5,115.7 145.1,116 L134,124.3 C133.7,124.5 133.4,124.6 133.1,124.6 Z M123.4,114.1 L133,121.3 L142.6,114.1 L142.6,99.3 L123.3,99.3 L123.3,114.1 L123.4,114.1 Z" id="Shape" fill="#344154" fill-rule="nonzero"></path>
        </g>
    </g>
</svg>