<?xml version="1.0" encoding="UTF-8"?>
<svg width="277px" height="277px" viewBox="0 0 277 277" version="1.1" xmlns="http://www.w3.org/2000/svg" xmlns:xlink="http://www.w3.org/1999/xlink">
    <!-- Generator: Sketch 48.2 (47327) - http://www.bohemiancoding.com/sketch -->
    <title>5 безграничный</title>
    <desc>Created with Sketch.</desc>
    <defs></defs>
    <g id="Page-1" stroke="none" stroke-width="1" fill="none" fill-rule="evenodd">
        <g id="5-безграничный">
            <path d="M183.4,107.3 C169,107.3 157.4,119.5 146.3,131.4 C143.8,134.1 141.4,136.6 138.9,139 C140.7,140.9 142.6,142.9 144.5,145 C155.6,157 168.2,170.6 183.4,170.6 C200.8,170.6 215,156.4 215,139 C215,121.5 200.8,107.3 183.4,107.3 Z" id="Shape" stroke="#2D64D3" stroke-width="3" stroke-linecap="round" stroke-linejoin="round"></path>
            <path d="M94.4,107.3 C77,107.3 62.8,121.5 62.8,138.9 C62.8,156.3 77,170.5 94.4,170.5 C109.6,170.5 122.2,156.9 133.3,144.9 C135.2,142.8 137.1,140.8 138.9,138.9 C136.5,136.5 134.1,133.9 131.5,131.3 C120.4,119.5 108.8,107.3 94.4,107.3 Z" id="Shape" stroke="#2D64D3" stroke-width="3" stroke-linecap="round" stroke-linejoin="round"></path>
        </g>
    </g>
</svg>