<?xml version="1.0" encoding="UTF-8"?>
<svg width="60px" height="44px" viewBox="0 0 60 44" version="1.1" xmlns="http://www.w3.org/2000/svg" xmlns:xlink="http://www.w3.org/1999/xlink">
    <!-- Generator: Sketch 49.3 (51167) - http://www.bohemiancoding.com/sketch -->
    <title>4</title>
    <desc>Created with Sketch.</desc>
    <defs></defs>
    <g id="Page-1" stroke="none" stroke-width="1" fill="none" fill-rule="evenodd">
        <g id="4" fill-rule="nonzero">
            <circle id="Oval" fill="#99DADD" cx="49.9" cy="10.7" r="7.1"></circle>
            <circle id="Oval" fill="#99DADD" cx="49.9" cy="33.4" r="7.1"></circle>
            <g id="Group" fill="#344154">
                <g id="Shape">
                    <path d="M5.9,43.3 C5.5,43.3 5.1,43 5.1,42.5 L5.1,1.4 C5.1,1 5.4,0.6 5.9,0.6 C6.3,0.6 6.7,0.9 6.7,1.4 L6.7,42.5 C6.6,43 6.3,43.3 5.9,43.3 Z"></path>
                    <path d="M24.5,23.5 C24.1,23.5 23.7,23.2 23.7,22.7 C23.7,22.3 24,21.9 24.5,21.9 C30,21.9 34.4,17.4 34.4,12 C34.4,6.6 29.9,2.1 24.5,2.1 C24.1,2.1 23.7,1.8 23.7,1.3 C23.7,0.9 24,0.5 24.5,0.5 C30.8,0.5 35.9,5.6 35.9,11.9 C35.9,18.2 30.8,23.5 24.5,23.5 Z"></path>
                    <path d="M24.5,23.5 L5.1,23.5 L5.1,0.7 L24.5,0.7 C24.9,0.7 25.3,1 25.3,1.5 C25.3,1.9 25,2.3 24.5,2.3 L6.6,2.3 L6.6,22 L24.5,22 C24.9,22 25.3,22.3 25.3,22.8 C25.3,23.2 24.9,23.5 24.5,23.5 Z"></path>
                    <path d="M29.9,32.4 L1.1,32.4 C0.7,32.4 0.3,32.1 0.3,31.6 C0.3,31.1 0.6,30.8 1.1,30.8 L29.8,30.8 C30.2,30.8 30.6,31.1 30.6,31.6 C30.6,32.1 30.3,32.4 29.9,32.4 Z"></path>
                </g>
                <path d="M49.8,20.6 C44.4,20.6 40,16.2 40,10.8 C40,5.4 44.4,1 49.8,1 C55.2,1 59.6,5.4 59.6,10.8 C59.6,16.2 55.2,20.6 49.8,20.6 Z M49.8,2.4 C45.2,2.4 41.5,6.1 41.5,10.7 C41.5,15.3 45.2,19 49.8,19 C54.4,19 58.1,15.3 58.1,10.7 C58.1,6.1 54.4,2.4 49.8,2.4 Z" id="Shape"></path>
                <g transform="translate(46.000000, 4.000000)" id="Shape">
                    <g transform="translate(0.000000, 2.000000)">
                        <path d="M3.5,9.7 C3,9.7 2.6,9.6 2.2,9.4 C1.7,9.2 1.2,8.8 0.9,8.3 C0.7,8 0.8,7.5 1.1,7.3 C1.4,7.1 1.9,7.2 2.1,7.5 C2.3,7.8 2.5,7.9 2.8,8.1 C3.1,8.2 3.4,8.3 3.9,8.2 C4.4,8.1 4.8,8 5,7.7 C5.2,7.4 5.3,7.1 5.2,6.6 C5.2,6.4 5.1,6.2 5,6.1 C4.9,6 4.9,5.9 4.8,5.8 C4.7,5.7 4.6,5.6 4.4,5.6 C4.2,5.5 3.9,5.5 3.6,5.4 C3.2,5.3 2.9,4.9 3,4.5 C3.1,4.1 3.5,3.8 3.9,3.9 C4.3,4 4.6,4.1 4.9,4.2 C5.2,4.3 5.5,4.5 5.8,4.7 C6.1,4.9 6.3,5.2 6.4,5.5 C6.5,5.8 6.6,6.1 6.7,6.5 C6.8,7.4 6.6,8.1 6.2,8.7 C5.7,9.3 5,9.7 4.1,9.8 C3.9,9.7 3.7,9.7 3.5,9.7 Z"></path>
                        <path d="M3.8,5.3 C3.8,5.3 3.7,5.3 3.7,5.3 C3.4,5.2 3.1,5.2 2.8,5.1 C2.5,5 2.2,4.8 2,4.7 C1.8,4.5 1.6,4.3 1.5,4 C1.4,3.7 1.3,3.4 1.2,3.1 C1.1,2.3 1.3,1.7 1.7,1.1 C2.1,0.6 2.7,0.2 3.6,0.1 C4.2,-8.01442246e-15 4.8,0.1 5.3,0.3 C5.8,0.5 6.2,0.8 6.5,1.3 C6.7,1.6 6.6,2.1 6.3,2.3 C6,2.5 5.5,2.4 5.3,2.1 C5.2,1.9 5,1.8 4.8,1.7 C4.6,1.6 4.3,1.6 3.9,1.6 C3.5,1.7 3.2,1.8 3,2 C2.9,2.1 2.8,2.4 2.8,2.9 C2.8,3.1 2.9,3.2 2.9,3.3 C2.9,3.4 3,3.5 3.1,3.5 C3.2,3.6 3.3,3.6 3.4,3.7 C3.6,3.8 3.8,3.8 4,3.9 C4.4,4 4.7,4.4 4.6,4.8 C4.5,5 4.2,5.3 3.8,5.3 Z"></path>
                    </g>
                    <path d="M3.8,13.3 C3.4,13.3 3,13 3,12.5 L3,10.9 C3,10.5 3.3,10.1 3.8,10.1 C4.3,10.1 4.6,10.4 4.6,10.9 L4.6,12.5 C4.5,13 4.2,13.3 3.8,13.3 Z"></path>
                    <path d="M3.8,3.2 C3.4,3.2 3,2.9 3,2.4 L3,0.8 C3,0.4 3.3,7.10542736e-15 3.8,7.10542736e-15 C4.3,7.10542736e-15 4.6,0.3 4.6,0.8 L4.6,2.4 C4.5,2.9 4.2,3.2 3.8,3.2 Z"></path>
                </g>
                <path d="M49.8,43.3 C44.4,43.3 40,38.9 40,33.5 C40,28.1 44.4,23.7 49.8,23.7 C55.2,23.7 59.6,28.1 59.6,33.5 C59.6,38.9 55.2,43.3 49.8,43.3 Z M49.8,25.1 C45.2,25.1 41.5,28.8 41.5,33.4 C41.5,38 45.2,41.7 49.8,41.7 C54.4,41.7 58.1,38 58.1,33.4 C58.1,28.8 54.4,25.1 49.8,25.1 Z" id="Shape"></path>
                <path d="M49.8,39.2 C46.6,39.2 44,36.6 44,33.4 C44,30.2 46.6,27.6 49.8,27.6 C50.9,27.6 51.9,27.9 52.9,28.5 C53.2,28.7 53.4,29.2 53.1,29.5 C52.9,29.9 52.4,30 52.1,29.7 C51.4,29.3 50.6,29 49.8,29 C47.5,29 45.5,30.9 45.5,33.3 C45.5,35.7 47.4,37.6 49.8,37.6 C50.6,37.6 51.4,37.4 52.1,36.9 C52.4,36.7 52.9,36.8 53.1,37.1 C53.3,37.4 53.2,37.9 52.9,38.1 C51.9,38.9 50.9,39.2 49.8,39.2 Z" id="Shape"></path>
                <g transform="translate(44.000000, 31.000000)" id="Shape">
                    <path d="M6.5,2 L1,2 C0.6,2 0.2,1.7 0.2,1.2 C0.2,0.8 0.5,0.4 1,0.4 L6.5,0.4 C6.9,0.4 7.3,0.7 7.3,1.2 C7.2,1.7 6.9,2 6.5,2 Z"></path>
                    <path d="M6.5,4.4 L1,4.4 C0.6,4.4 0.2,4.1 0.2,3.6 C0.2,3.2 0.5,2.8 1,2.8 L6.5,2.8 C6.9,2.8 7.3,3.1 7.3,3.6 C7.2,4 6.9,4.4 6.5,4.4 Z"></path>
                </g>
            </g>
        </g>
    </g>
</svg>