<?xml version="1.0" encoding="UTF-8"?>
<svg width="145px" height="114px" viewBox="0 0 145 114" version="1.1" xmlns="http://www.w3.org/2000/svg" xmlns:xlink="http://www.w3.org/1999/xlink">
    <!-- Generator: Sketch 48.2 (47327) - http://www.bohemiancoding.com/sketch -->
    <title>feature1</title>
    <desc>Created with Sketch.</desc>
    <defs></defs>
    <g id="Page-1" stroke="none" stroke-width="1" fill="none" fill-rule="evenodd">
        <g id="feature1">
            <path d="M100.58,107.87 L95.7,107.87 C94.3192881,107.87 93.2,106.750712 93.2,105.37 C93.2,103.989288 94.3192881,102.87 95.7,102.87 L100.58,102.87 C106.414763,102.87 112.010549,100.55215 116.136349,96.4263492 C120.26215,92.3005489 122.58,86.7047628 122.58,80.87 L122.58,76 C122.58,74.6192881 123.699288,73.5 125.08,73.5 C126.460712,73.5 127.58,74.6192881 127.58,76 L127.58,80.88 C127.574479,95.7877829 115.487784,107.870001 100.58,107.87 Z" id="Shape" fill="#C2C2C2" fill-rule="nonzero"></path>
            <path d="M132.09,51.58 C130.709288,51.58 129.59,50.4607119 129.59,49.08 C129.227232,24.9969001 109.600832,5.66390888 85.515,5.66390888 C61.429168,5.66390888 41.8027676,24.9969001 41.44,49.08 C41.44,50.4607119 40.3207119,51.58 38.94,51.58 C37.5592881,51.58 36.44,50.4607119 36.44,49.08 C36.8230055,22.2497878 58.6820542,0.700553353 85.515,0.700553353 C112.347946,0.700553353 134.206994,22.2497878 134.59,49.08 C134.59,49.7430412 134.326608,50.378926 133.857767,50.847767 C133.388926,51.3166079 132.753041,51.58 132.09,51.58 Z" id="Shape" fill="#4E72CD" fill-rule="nonzero"></path>
            <path d="M130.07,78.5 L125.07,78.5 C123.689288,78.5 122.57,77.3807119 122.57,76 L122.57,48.79 C122.57,47.4092881 123.689288,46.29 125.07,46.29 L130.07,46.29 C137.979673,46.3010163 144.388984,52.7103271 144.4,60.62 L144.4,64.17 C144.388984,72.0796729 137.979673,78.4889837 130.07,78.5 Z M127.57,73.5 L130.07,73.5 C135.220532,73.4944885 139.394488,69.320532 139.4,64.17 L139.4,60.63 C139.394488,55.479468 135.220532,51.3055115 130.07,51.3 L127.57,51.3 L127.57,73.5 Z" id="Shape" fill="#4E72CD" fill-rule="nonzero"></path>
            <path d="M121.49,83.87 L120.42,83.87 C117.064392,83.8644945 114.345506,81.1456082 114.34,77.79 L114.34,47 C114.345506,43.6443918 117.064392,40.9255055 120.42,40.92 L121.49,40.92 C124.845608,40.9255055 127.564494,43.6443918 127.57,47 L127.57,77.79 C127.564494,81.1456082 124.845608,83.8644945 121.49,83.87 Z M120.42,45.93 C119.827899,45.9351633 119.346126,46.4080963 119.33,47 L119.33,77.79 C119.340669,78.3819919 119.818008,78.8593309 120.41,78.87 L121.48,78.87 C122.071992,78.8593309 122.549331,78.3819919 122.56,77.79 L122.56,47 C122.549331,46.4080081 122.071992,45.9306691 121.48,45.92 L120.42,45.93 Z" id="Shape" fill="#4E72CD" fill-rule="nonzero"></path>
            <path d="M50.61,83.87 L49.54,83.87 C46.1843918,83.8644945 43.4655055,81.1456082 43.46,77.79 L43.46,47 C43.4655055,43.6443918 46.1843918,40.9255055 49.54,40.92 L50.61,40.92 C53.9656082,40.9255055 56.6844945,43.6443918 56.69,47 L56.69,77.79 C56.6844945,81.1456082 53.9656082,83.8644945 50.61,83.87 Z M49.54,45.93 C48.9478992,45.9351633 48.4661263,46.4080963 48.45,47 L48.45,77.79 C48.4606691,78.3819919 48.9380081,78.8593309 49.53,78.87 L50.6,78.87 C51.1919919,78.8593309 51.6693309,78.3819919 51.68,77.79 L51.68,47 C51.6693309,46.4080081 51.1919919,45.9306691 50.6,45.92 L49.54,45.93 Z" id="Shape" fill="#4E72CD" fill-rule="nonzero"></path>
            <path d="M46,78.5 L41,78.5 C37.1924112,78.5079638 33.5377532,77.0023545 30.8406907,74.3146698 C28.1436281,71.626985 26.6252984,67.9775934 26.62,64.17 L26.62,60.63 C26.6226463,56.8206729 28.1398058,53.1687114 30.8371563,50.4788639 C33.5345069,47.7890164 37.1906803,46.2820353 41,46.29 L46,46.29 C47.3807119,46.29 48.5,47.4092881 48.5,48.79 L48.5,76 C48.5,76.6630412 48.2366079,77.298926 47.767767,77.767767 C47.298926,78.2366079 46.6630412,78.5 46,78.5 Z M41,51.29 C35.849468,51.2955115 31.6755115,55.469468 31.67,60.62 L31.67,64.17 C31.6755115,69.320532 35.849468,73.4944885 41,73.5 L43.5,73.5 L43.5,51.29 L41,51.29 Z" id="Shape" fill="#4E72CD" fill-rule="nonzero"></path>
            <path d="M96.52,107.87 L90.17,107.87 C86.7205035,107.864494 83.925506,105.069496 83.92,101.62 L83.92,100.5 C83.925506,97.0505035 86.7205035,94.255506 90.17,94.25 L96.52,94.25 C99.9694965,94.255506 102.764494,97.0505035 102.77,100.5 L102.77,101.63 C102.758996,105.075591 99.9656038,107.864513 96.52,107.87 Z M90.17,99.24 C89.4796441,99.24 88.92,99.7996441 88.92,100.49 L88.92,101.62 C88.92,102.310356 89.4796441,102.87 90.17,102.87 L96.52,102.87 C97.2080901,102.86456 97.7645603,102.30809 97.77,101.62 L97.77,100.5 C97.7645603,99.8119099 97.2080901,99.2554397 96.52,99.25 L90.17,99.24 Z" id="Shape" fill="#4E72CD" fill-rule="nonzero"></path>
            <path d="M76.7599999,64.9 L73.76,64.9 C72.3792881,64.9 71.26,63.7807119 71.26,62.4 C71.26,61.0192881 72.3792881,59.9 73.76,59.9 L76.7599999,59.9 C77.6531639,59.8999999 78.4784815,60.3764972 78.9250635,61.15 C79.3716455,61.9235027 79.3716455,62.8764973 78.9250635,63.65 C78.4784815,64.4235028 77.6531639,64.9000001 76.7599999,64.9 Z" id="Shape" fill="#C2C2C2" fill-rule="nonzero"></path>
            <path d="M86.9999999,64.9 L84,64.9 C82.6192881,64.9 81.5,63.7807119 81.5,62.4 C81.5,61.0192881 82.6192881,59.9 84,59.9 L86.9999999,59.9 C87.8931639,59.8999999 88.7184815,60.3764972 89.1650635,61.15 C89.6116455,61.9235027 89.6116455,62.8764973 89.1650635,63.65 C88.7184815,64.4235028 87.8931639,64.9000001 86.9999999,64.9 Z" id="Shape" fill="#C2C2C2" fill-rule="nonzero"></path>
            <path d="M97.2599999,64.9 L94.26,64.9 C92.8792881,64.9 91.76,63.7807119 91.76,62.4 C91.76,61.0192881 92.8792881,59.9 94.26,59.9 L97.2599999,59.9 C98.1531639,59.8999999 98.9784815,60.3764972 99.4250635,61.15 C99.8716455,61.9235027 99.8716455,62.8764973 99.4250635,63.65 C98.9784815,64.4235028 98.1531639,64.9000001 97.2599999,64.9 Z" id="Shape" fill="#C2C2C2" fill-rule="nonzero"></path>
            <path d="M29.8,53.94 C41.8538848,53.9400007 52.7206782,61.2016201 57.3325655,72.3383446 C61.9444527,83.4750692 59.3930579,96.2933647 50.868244,104.815318 C42.3434301,113.337271 29.524279,115.884364 18.3891029,111.268739 C7.25392686,106.653114 -0.00404492777,95.7838841 0,83.73 C0.00552153728,67.2758198 13.3458189,53.9399991 29.8,53.94 Z" id="Shape" fill="#4E72CD"></path>
            <polygon id="Shape" fill="#FFFFFF" fill-rule="nonzero" points="24.97 99.73 10.76 85.52 15 81.28 24.97 91.24 44.6 71.61 48.84 75.85"></polygon>
        </g>
    </g>
</svg>