<?xml version="1.0" encoding="UTF-8"?>
<svg width="22px" height="29px" viewBox="0 0 22 29" version="1.1" xmlns="http://www.w3.org/2000/svg" xmlns:xlink="http://www.w3.org/1999/xlink">
    <!-- Generator: Sketch 48.2 (47327) - http://www.bohemiancoding.com/sketch -->
    <title>5</title>
    <desc>Created with Sketch.</desc>
    <defs></defs>
    <g id="Page-1" stroke="none" stroke-width="1" fill="none" fill-rule="evenodd">
        <g id="5" transform="translate(0.000000, -1.000000)" fill-rule="nonzero">
            <polygon id="Shape" fill="#FFFFFF" points="2.74 4.49 1.99 16.47 4.49 18.49 8.95 17.49 12.12 17.74 12.99 20.64 11.62 22.86 5.62 22.86 2.74 22.24 1.29 26.91 3.95 27.66 10.54 28.32 15.45 27.16 18.87 23.49 19.7 15.34 15.45 11.07 17.45 8.49 17.29 3.49 3.2 3.82"></polygon>
            <path d="M19.83,11.36 C19.0593123,10.6358996 18.1214493,10.1137194 17.1,9.84 C17.3598882,9.7524916 17.5936845,9.60121163 17.78,9.4 L19.63,7.54 L19.77,7.4 L19.87,7.3 C20.139571,6.92188332 20.2734789,6.46377742 20.25,6 L20.25,3.09 C20.25,1.25 19.13,1 18,1 L5.78,1 C5.11777911,0.942418605 4.46460155,1.18460804 4,1.66 L2,3.66 C1.67736509,4.06306975 1.50108398,4.5637081 1.5,5.08 L1,14.69 C0.94,15.91 0.94,16.14 0.94,16.26 C0.911369271,17.0022168 1.29642499,17.6991676 1.94,18.07 L3.14,18.86 C3.55845907,19.1553708 4.0492358,19.3316357 4.56,19.37 C4.90267042,19.3642173 5.24146474,19.2964585 5.56,19.17 L5.7,19.17 C6.99788816,18.6803509 8.36443451,18.3969191 9.75,18.33 L10,18.33 C10.5270811,18.2806668 11.0546789,18.4187628 11.49,18.72 C11.71,18.91 11.94,19.26 11.94,20.37 L11.94,20.63 C11.94,20.63 11.94,20.71 11.94,20.75 C11.7634611,20.7595032 11.5865389,20.7595032 11.41,20.75 L11,20.75 C9.14943193,20.6751158 7.32287363,20.3037269 5.59,19.65 C5.29071331,19.5290725 4.97259312,19.4613873 4.65,19.45 C4.15111909,19.4433644 3.67634736,19.6641885 3.36,20.05 L1.51,21.87 C1.12238305,22.2461609 0.857473222,22.730667 0.75,23.26 L0.22,25.2 C0.0950948367,25.6093463 0.0212026584,26.0325469 0,26.46 C0.0127758521,27.3138948 0.593685927,28.0543506 1.42,28.27 C3.92860143,29.1236003 6.55119477,29.5955323 9.2,29.67 L9.58,29.67 C12.93,29.67 15.58,28.95 17.21,27.6 C17.7452993,27.1556399 18.2105299,26.6330984 18.59,26.05 C18.8055486,25.9126348 19.0125932,25.7623606 19.21,25.6 C21.07,24.06 21.98,21.77 21.98,18.6 L21.98,18.07 C22,14.87 21.32,12.8 19.83,11.36 Z M9.58,27.67 L9.2,27.67 C6.77227867,27.5901874 4.36967012,27.1521242 2.07,26.37 L2.01,26.37 C2.01,26.22 2.09,25.99 2.15,25.72 L2.68,23.79 C2.70423565,23.6916377 2.7342885,23.5948008 2.77,23.5 L2.87,23.5 C4.83220128,24.2457319 6.9024757,24.6678922 9,24.75 L9.38,24.75 C10.5071375,24.7883277 11.6204535,24.4926032 12.58,23.9 C13.5601036,23.0960501 14.064809,21.8493526 13.92,20.59 L13.92,20.33 C14.0240383,19.1717416 13.6188551,18.0255477 12.81,17.19 C12.0196749,16.5404248 11.0105037,16.2183489 9.99,16.29 L9.73,16.29 C8.11337185,16.3692289 6.51986242,16.7068368 5.01,17.29 L4.87,17.29 L4.62,17.38 C4.49167966,17.3383261 4.3703313,17.277652 4.26,17.2 L3.08,16.43 C2.96,16.35 2.93,16.31 2.94,16.27 C2.95,16.23 2.94,15.95 3.01,14.82 L3.5,5.17 C3.49694989,5.11671028 3.49694989,5.06328972 3.5,5.01 L3.77,5.01 L16.25,5.01 C16.25,5.01 16.25,5.06 16.25,5.1 L16.25,8 L8.37,8 C7.96607305,7.95798544 7.56414555,8.09602039 7.27126274,8.37734203 C6.97837993,8.65866368 6.82427842,9.05470923 6.85,9.46 L6.69,14.39 L8,13.94 C9.10543675,13.603388 10.2544501,13.4315415 11.41,13.43 L11.79,13.43 C13.94,13.43 15.44,13.88 16.4,14.8 C17.36,15.72 18,17.42 18,20.06 L18,20.59 C18,23.14 17.33,24.93 16,26.06 C14.67,27.19 12.41,27.67 9.58,27.67 Z" id="Shape" fill="#59CCC3"></path>
        </g>
    </g>
</svg>