<?xml version="1.0" encoding="UTF-8"?>
<svg width="110px" height="117px" viewBox="0 0 110 117" version="1.1" xmlns="http://www.w3.org/2000/svg" xmlns:xlink="http://www.w3.org/1999/xlink">
    <!-- Generator: Sketch 48.2 (47327) - http://www.bohemiancoding.com/sketch -->
    <title>Page 1</title>
    <desc>Created with Sketch.</desc>
    <defs></defs>
    <g id="Page-1" stroke="none" stroke-width="1" fill="none" fill-rule="evenodd">
        <g transform="translate(4.000000, 4.000000)" stroke="#4E72CD" stroke-width="9">
            <polygon id="Stroke-1" points="0.5 108.009 101.167 108.009 101.167 82.722 0.5 82.722"></polygon>
            <path d="M55.7643,52.0051 L68.1753,52.0051" id="Stroke-3"></path>
            <path d="M73.7604,52.0051 L86.1704,52.0051" id="Stroke-4"></path>
            <path d="M55.7643,66.4553 L68.1753,66.4553" id="Stroke-5"></path>
            <path d="M73.7604,66.4553 L86.1704,66.4553" id="Stroke-6"></path>
            <polygon id="Stroke-7" points="20.806 51.804 36.94 51.804 36.94 24.282 20.806 24.282"></polygon>
            <polyline id="Stroke-8" points="40.3532 36.801 101.1662 36.801 101.1662 81.992 0.5002 81.992 0.5002 36.801 19.2542 36.801"></polyline>
            <path d="M76.3444,36.801 L76.3444,21.598" id="Stroke-10"></path>
            <polygon id="Stroke-11" points="52.764 19.115 99.925 19.115 99.925 0.499 52.764 0.499"></polygon>
            <path d="M35.6989,51.8039 L46.4039,51.8039" id="Stroke-13"></path>
            <g id="Group-18" transform="translate(11.000000, 51.509000)">
                <path d="M0.4977,0.2949 L11.2017,0.2949" id="Stroke-14"></path>
                <path d="M34.4723,43.4687 L47.0383,43.4687" id="Stroke-16"></path>
            </g>
        </g>
    </g>
</svg>