<?xml version="1.0" encoding="UTF-8"?>
<svg width="23px" height="29px" viewBox="0 0 23 29" version="1.1" xmlns="http://www.w3.org/2000/svg" xmlns:xlink="http://www.w3.org/1999/xlink">
    <!-- Generator: Sketch 48.2 (47327) - http://www.bohemiancoding.com/sketch -->
    <title>6</title>
    <desc>Created with Sketch.</desc>
    <defs></defs>
    <g id="Page-1" stroke="none" stroke-width="1" fill="none" fill-rule="evenodd">
        <g id="6" transform="translate(0.000000, -1.000000)" fill-rule="nonzero">
            <path d="M18.36,15.51 L14.36,13.08 L10.27,13.08 L6.27,13.65 L7.11,11 L9.11,8.92 L13.6,8.75 L17.1,9.33 L17.77,5.75 L14.34,4.49 L7.69,4.49 L3.44,7 L1.28,13.24 L1.28,22.16 L3.78,27.58 C5.57964023,27.834962 7.36272102,28.1955851 9.12,28.66 C9.28,28.91 14.34,28.24 14.34,28.24 L18.61,26 L19.88,18.58 L18.36,15.51 Z M12.28,22.25 L9.12,21 L8.69,17.76 L12.86,18.43 L13.44,21 L12.28,22.25 Z" id="Shape" fill="#FFFFFF"></path>
            <path d="M17.53,10.21 C17.5952116,10.1446409 17.6553834,10.0744405 17.71,10 L19.36,8.42 C19.7193983,8.10663019 19.9683482,7.6858698 20.07,7.22 L20.67,5 C20.7725582,4.65181138 20.8329897,4.29257984 20.85,3.93 C20.8372896,3.07500156 20.263498,2.33029326 19.44,2.1 C17.472081,1.39489888 15.4002961,1.0231267 13.31,1 L13,1 C9.99631286,0.849303749 7.07585219,2.01383744 5,4.19 C4.80551864,4.45006016 4.62525501,4.72045561 4.46,5 C3.96058331,5.34851783 3.4981711,5.74726459 3.08,6.19 C1,8.46 0,11.89 0,16.68 L0,17.68 C0,23.76 1.24,30 10.4,30 L10.81,30 C14.53,30 17.27,28.73 18.81,26.39 C21.08,24.85 22.32,22.26 22.32,18.77 L22.32,18.1 C22.35,13.78 20.76,11.18 17.53,10.21 Z M10.53,10.21 L10.53,10.12 C10.8832048,10.0329515 11.2463017,9.99260736 11.61,10 C11.24,10 10.86,10.09 10.5,10.19 L10.53,10.21 Z M10.4,28 C4.28,28 2,25.21 2,17.65 L2,16.65 C2,12.39 2.84,9.4 4.56,7.5 C6.24952919,5.78276751 8.59435192,4.87251024 11,5 L11.26,5 C13.0910795,5.00651279 14.9086388,5.31394382 16.64,5.91 L16.79,5.98 C16.79,6.11 16.72,6.32 16.68,6.45 L16.08,8.67 L15.97,8.67 C14.6461652,8.2361476 13.2630772,8.01013078 11.87,8 L11.61,8 C8.41,8 6.45,10 6.25,13.65 L6.15,15.35 L7.68,14.61 C8.96456538,14.0423408 10.3556684,13.7559373 11.76,13.77 L12.17,13.77 C16.56,13.77 18.35,15.6 18.35,20.1 L18.35,20.78 C18.35,26.78 14.25,28.02 10.81,28.02 L10.4,28 Z" id="Shape" fill="#59CCC3"></path>
            <path d="M10.59,16.8 L10.33,16.8 C9.13335487,16.7900387 7.94568537,17.0072126 6.83,17.44 L6.21,17.69 L6.21,19.3 C6.21,22.91 6.92,25.15 10.44,25.15 L10.55,25.15 C13.06,25.15 14.33,23.85 14.33,21.29 L14.33,20.5 C14.34,18 13.15,16.8 10.59,16.8 Z M10.59,18.8 C12.03,18.8 12.34,19.1 12.34,20.51 L12.34,21.16 C11.26,21.16 10.49,21.08 10.27,18.81 L10.59,18.81 L10.59,18.8 Z" id="Shape" fill="#59CCC3"></path>
        </g>
    </g>
</svg>