<?xml version="1.0" encoding="UTF-8"?>
<svg width="22px" height="30px" viewBox="0 0 22 30" version="1.1" xmlns="http://www.w3.org/2000/svg" xmlns:xlink="http://www.w3.org/1999/xlink">
    <!-- Generator: Sketch 48.2 (47327) - http://www.bohemiancoding.com/sketch -->
    <title>3</title>
    <desc>Created with Sketch.</desc>
    <defs></defs>
    <g id="Page-1" stroke="none" stroke-width="1" fill="none" fill-rule="evenodd">
        <g id="3" transform="translate(-1.000000, 0.000000)" fill-rule="nonzero">
            <path d="M2.91,4.53 L4.24,9.12 L9.41,7.95 C10.2678949,8.14933733 11.1357883,8.30288771 12.01,8.41 C12.32,8.41 12.82,9.79 12.82,9.79 L11.65,11.12 L7.86,12.12 L7,13.72 L6.83,17.45 C6.83,17.45 11.25,18.03 11.5,18.03 C12.0886615,18.3067335 12.6481212,18.6417393 13.17,19.03 L13.84,20.69 L12.84,22.36 L3.74,22.36 L1.74,27 L9.24,29.13 L12.91,28.34 L16.41,27 L19.83,23.42 L21.16,17.17 L19,15.53 L19.08,11.78 L18.58,4.53 C18.58,4.53 16.83,2.28 15.83,2.28 C14.83,2.28 7.08,2.86 6.25,2.86 C5.42,2.86 2.91,4.53 2.91,4.53 Z" id="Shape" fill="#FFFFFF"></path>
            <path d="M20.28,12.76 C21.6617707,11.3774003 22.3891543,9.47165507 22.28,7.52 L22.28,7.29 C22.26,4 20.71,0 13.36,0 L13,0 C10.3473588,0.0286568016 7.72176877,0.536835513 5.25,1.5 C4.81131927,1.67042124 4.429917,1.96167388 4.15,2.34 L2.51,3.95 L2.32,4.14 C2.0058308,4.47581167 1.83381688,4.92018098 1.84,5.38 C1.86525022,5.65479624 1.91886912,5.92624191 2,6.19 L2.61,8.72 C2.71268038,9.28408634 3.06977514,9.76929245 3.57782452,10.0350414 C4.0858739,10.3007903 4.68809186,10.3173785 5.21,10.08 C6.80732806,9.44899605 8.49533087,9.07763543 10.21,8.98 L10.4,8.98 C11.71,8.98 11.87,9.43 11.89,9.82 C11.6,9.82 11.28,9.82 10.89,9.82 L9.75,9.82 C9.16249873,9.77242587 8.58005703,9.95938246 8.13,10.34 L6,12.48 C5.65125422,12.9413096 5.48080327,13.5130305 5.52,14.09 L5.52,16.5 C5.41696487,17.1099825 5.61257544,17.732389 6.04603185,18.1737624 C6.47948825,18.6151359 7.09825262,18.8219788 7.71,18.73 L10,18.73 C12.68,18.73 12.68,19.39 12.68,20.38 L12.68,20.54 L12.07,20.54 L11.96,20.54 C10.0998722,20.4940309 8.25669958,20.1739186 6.49,19.59 C6.19786462,19.484463 5.89053413,19.4270496 5.58,19.42 C5.10504518,19.4120789 4.65369686,19.6266543 4.36,20 L2.52,21.81 L2.45,21.89 L2.32,22 C2.0799791,22.2913135 1.90903822,22.6331952 1.82,23 L1.31,24.76 C1.13627176,25.2497263 1.03192669,25.7613537 1,26.28 C0.970398826,27.2155329 1.59360011,28.0464679 2.5,28.28 C5.03079571,29.0762706 7.66692284,29.4875334 10.32,29.5 L10.51,29.5 C15.73,29.5 18.41,27.77 19.75,25.7 C21.9056108,24.1675347 23.1308844,21.6415861 23,19 L23,18.42 C23,15.76 22.1,13.85 20.28,12.76 Z M10.32,27.5 C7.89015283,27.475425 5.47733021,27.0912605 3.16,26.36 C3.02,26.36 2.97,26.27 3,26.27 C3.0408831,25.9489791 3.11804285,25.6336305 3.23,25.33 L3.77,23.52 L3.84,23.52 C5.81185794,24.156615 7.86809007,24.4937022 9.94,24.52 L10.05,24.52 C12.05,24.52 14.66,24.13 14.66,20.8 L14.66,20.34 C14.66,17.13 12.29,16.69 9.98,16.69 L7.57,16.69 C7.57,16.63 7.57,16.56 7.57,16.47 L7.57,14.08 C7.57,13.99 7.57,13.91 7.57,13.86 L8.9,13.86 C10.9,13.86 12.06,13.58 12.9,12.86 C13.6015834,12.1756793 13.9672048,11.2177513 13.9,10.24 L13.9,10 C13.9,9.1 13.56,7 10.41,7 L10.13,7 C8.20427415,7.08727852 6.30582969,7.48926231 4.51,8.19 L3.94,5.91 L3.94,5.77 C3.94,5.69 3.94,5.54 3.88,5.43 L4.08,5.33 C6.2901784,4.4820275 8.63294751,4.0317554 11,4 L11.35,4 C17.54,4 18.25,7 18.25,9.29 L18.25,9.52 C18.25,10.62 18.01,13.25 15.82,13.89 L15.1,14.1 L15.1,15.75 L15.86,15.94 C18.07,16.48 19.01,17.83 19.01,20.45 L19.01,21 C19.01,25.36 16.23,27.48 10.5,27.48 L10.32,27.5 Z" id="Shape" fill="#59CCC3"></path>
        </g>
    </g>
</svg>