<?xml version="1.0" encoding="UTF-8"?>
<svg width="66px" height="42px" viewBox="0 0 66 42" version="1.1" xmlns="http://www.w3.org/2000/svg" xmlns:xlink="http://www.w3.org/1999/xlink">
    <!-- Generator: Sketch 49.3 (51167) - http://www.bohemiancoding.com/sketch -->
    <title>10</title>
    <desc>Created with Sketch.</desc>
    <defs></defs>
    <g id="Page-1" stroke="none" stroke-width="1" fill="none" fill-rule="evenodd">
        <g id="10" fill-rule="nonzero">
            <path d="M34.2,12.1 C38.5,12.7 41.8,16.4 41.8,20.8 C41.8,25.7 37.9,29.6 33,29.6 C28.1,29.6 24.2,25.7 24.2,20.8 C24.2,16.4 27.5,12.7 31.8,12.1 L12.1,12.1 L12.1,32.8 L53.8,32.8 L53.8,12.1 L34.2,12.1 Z" id="Shape" fill="#99DADD"></path>
            <polygon id="Shape" fill="#344154" points="51.4 37.7 14.6 37.7 14.6 32.8 16.1 32.8 16.1 36.2 49.9 36.2 49.9 32.8 51.4 32.8"></polygon>
            <polygon id="Shape" fill="#344154" points="48.4 41.2 17.6 41.2 17.6 36.3 19.1 36.3 19.1 39.7 46.9 39.7 46.9 36.3 48.4 36.3"></polygon>
            <path d="M59.9,23.5 L53.8,23.5 L53.8,22 L59.9,22 C62,22 63.7,20.3 63.7,18.2 L63.7,6 C63.7,3.9 62,2.2 59.9,2.2 L6.1,2.2 C4,2.2 2.3,3.9 2.3,6 L2.3,18.2 C2.3,20.3 4,22 6.1,22 L12.2,22 L12.2,23.5 L6.1,23.5 C3.2,23.5 0.8,21.1 0.8,18.2 L0.8,6 C0.8,3.1 3.2,0.7 6.1,0.7 L59.9,0.7 C62.8,0.7 65.2,3.1 65.2,6 L65.2,18.2 C65.2,21.2 62.8,23.5 59.9,23.5 Z" id="Shape" fill="#344154"></path>
            <path d="M57.6,12.9 L8.4,12.9 C8,12.9 7.6,12.6 7.6,12.1 C7.6,11.7 7.9,11.3 8.4,11.3 L57.6,11.3 C58,11.3 58.4,11.6 58.4,12.1 C58.4,12.6 58,12.9 57.6,12.9 Z" id="Shape" fill="#344154"></path>
            <polygon id="Shape" fill="#344154" points="54.6 33.6 11.4 33.6 11.4 12.1 12.9 12.1 12.9 32.1 53.1 32.1 53.1 12.1 54.6 12.1"></polygon>
        </g>
    </g>
</svg>