<?xml version="1.0" encoding="UTF-8"?>
<svg width="277px" height="277px" viewBox="0 0 277 277" version="1.1" xmlns="http://www.w3.org/2000/svg" xmlns:xlink="http://www.w3.org/1999/xlink">
    <!-- Generator: Sketch 48.2 (47327) - http://www.bohemiancoding.com/sketch -->
    <title>6 бизнес прайм</title>
    <desc>Created with Sketch.</desc>
    <defs></defs>
    <g id="Page-1" stroke="none" stroke-width="1" fill="none" fill-rule="evenodd">
        <g id="6-бизнес-прайм">
            <g id="Group" transform="translate(84.000000, 84.000000)" stroke="#2D64D3" stroke-linecap="round" stroke-linejoin="round" stroke-width="3">
                <path d="M50.3,44.1 L40.1,29.9" id="Shape"></path>
                <polyline id="Shape" points="60.8 18.2 47.3 18.2 31.1 41.5 17.2 11 24 0.9 47.3 18.2"></polyline>
                <polyline id="Shape" points="38.3 91.9 0.3 91.9 0.3 21.9 17.2 11"></polyline>
                <path d="M59.5,44.1 L69.7,29.9" id="Shape"></path>
                <polyline id="Shape" points="49 18.2 62.5 18.2 78.7 41.5 92.6 11 85.8 0.9 62.5 18.2"></polyline>
                <polyline id="Shape" points="71.5 91.9 109.5 91.9 109.5 21.9 92.6 11"></polyline>
                <polyline id="Shape" points="50.3 44.1 59.5 44.1 71.5 91.9 55 108.9 38.3 91.9 50.3 44.1 59.5 44.1"></polyline>
                <path d="M85.8,0.9 L24,0.9" id="Shape"></path>
            </g>
            <path d="M130.2,144.4 L145.4,135.7" id="Shape" stroke="#2D64D3" stroke-width="3" stroke-linecap="round" stroke-linejoin="round"></path>
            <path d="M127.2,156.4 L147.7,144.7" id="Shape" stroke="#2D64D3" stroke-width="3" stroke-linecap="round" stroke-linejoin="round"></path>
            <path d="M123.9,169.6 L150.2,154.6" id="Shape" stroke="#2D64D3" stroke-width="3" stroke-linecap="round" stroke-linejoin="round"></path>
            <path d="M125.4,179 L152.4,163.6" id="Shape" stroke="#2D64D3" stroke-width="3" stroke-linecap="round" stroke-linejoin="round"></path>
            <polygon id="Shape" stroke="#2D64D3" stroke-width="3" stroke-linecap="round" stroke-linejoin="round" points="183.2 153.8 172.1 162.1 160.9 153.8 160.9 136.7 183.2 136.7"></polygon>
        </g>
    </g>
</svg>