<?xml version="1.0" encoding="UTF-8"?>
<svg width="23px" height="29px" viewBox="0 0 23 29" version="1.1" xmlns="http://www.w3.org/2000/svg" xmlns:xlink="http://www.w3.org/1999/xlink">
    <!-- Generator: Sketch 48.2 (47327) - http://www.bohemiancoding.com/sketch -->
    <title>9</title>
    <desc>Created with Sketch.</desc>
    <defs></defs>
    <g id="Page-1" stroke="none" stroke-width="1" fill="none" fill-rule="evenodd">
        <g id="9" transform="translate(-1.000000, 0.000000)" fill-rule="nonzero">
            <path d="M19.09,6.24 L15.09,2.91 L9.51,2.91 L3.68,5.24 L1.76,9.58 L2.59,15.36 L5,18.24 L11.17,19.49 L13.34,19.49 L12.76,21.91 L9.68,23.24 L4.43,22.16 L3.51,26.08 L6.18,27.41 L12.18,27.99 L17.1,26.24 L20.6,19.16 L20.6,14 L19.09,6.24 Z M10.17,11.74 C9.84,11.66 8.92,10.24 8.92,10.24 L9.84,7.74 L12.84,8.07 C12.84,8.07 13.67,11.49 13.76,11.74 C13.76,11.74 10.51,11.83 10.18,11.74 L10.17,11.74 Z" id="Shape" fill="#FFFFFF"></path>
            <path d="M13.14,0 L12.61,0 C8.84,0 6,1.31 4.46,3.65 C2.13802246,5.29377356 0.829647654,8.02018464 1,10.86 L1,11.39 C1,15.83 2.49,18.59 5.53,19.77 L3.63,21.67 L3.57,21.73 C3.30702701,22.0113691 3.12104098,22.3557876 3.03,22.73 L2.43,25.14 C2.34687583,25.44 2.29987637,25.7488536 2.29,26.06 C2.2599683,26.883742 2.79029652,27.6237349 3.58,27.86 C5.70153173,28.5766132 7.92104447,28.9611488 10.16,29 C13.28,29 16.68,28.43 18.89,25.3 C21.44,23.53 23.31,20 23.31,13.1 L23.31,12.2 C23.35,3.54 20.4,0 13.14,0 Z M12.85,20.11 L12.6,20.11 L12.85,20.11 Z M10.16,27 C8.16064976,26.9665608 6.17800052,26.6293755 4.28,26 C4.30046415,25.8787053 4.32716624,25.7585459 4.36,25.64 L4.95,23.3 L5,23.3 C6.62105013,23.8090519 8.30227891,24.1015858 10,24.17 L10.11,24.17 C14.26,24.17 14.9,21.07 15.02,18.75 L15.1,17.18 L13.64,17.77 C12.4760242,18.2075137 11.2434735,18.4343842 10,18.44 L9.56,18.44 C4.9,18.44 3,16.44 3,11.44 L3,10.91 C3,6.44 5.7,4 10.61,4 L11.14,4 C17.21,4 19.35,6.67 19.35,14.21 L19.35,15.11 C19.35,25.57 15,27 10.2,27 L10.16,27 Z" id="Shape" fill="#59CCC3"></path>
            <path d="M11.18,6.89 L10.84,6.89 C8.41,6.89 7,8.36 7,10.94 L7,11.28 C7,14 8.26,15.36 10.73,15.36 L11,15.36 C12.2293993,15.383519 13.4465933,15.1126504 14.55,14.57 L15.09,14.29 L15.09,13.16 C15.11,9.19 14.47,6.89 11.18,6.89 Z M13,11.36 L12.68,11.36 C11.68,11.36 10.97,11.21 10.97,9.28 L10.97,8.94 C10.97,8.94 10.97,8.94 10.97,8.94 L11.13,8.94 C12.15,8.89 12.84,8.9 13,11.36 Z" id="Shape" fill="#59CCC3"></path>
        </g>
    </g>
</svg>