<?xml version="1.0" encoding="UTF-8"?>
<svg width="155px" height="114px" viewBox="0 0 155 114" version="1.1" xmlns="http://www.w3.org/2000/svg" xmlns:xlink="http://www.w3.org/1999/xlink">
    <!-- Generator: Sketch 48.2 (47327) - http://www.bohemiancoding.com/sketch -->
    <title>feature2</title>
    <desc>Created with Sketch.</desc>
    <defs></defs>
    <g id="Page-1" stroke="none" stroke-width="1" fill="none" fill-rule="evenodd">
        <g id="feature2">
            <path d="M75.9,36.06 C74.5192881,36.06 73.4,34.9407119 73.4,33.56 L73.4,21.87 L45.79,21.87 L45.79,33.56 C45.79,34.9407119 44.6707119,36.06 43.29,36.06 C41.9092881,36.06 40.79,34.9407119 40.79,33.56 L40.79,19.37 C40.79,17.9892881 41.9092881,16.87 43.29,16.87 L75.9,16.87 C77.2807119,16.87 78.4,17.9892881 78.4,19.37 L78.4,33.56 C78.4,34.9407119 77.2807119,36.06 75.9,36.06 Z" id="Shape" fill="#C2C2C2" fill-rule="nonzero"></path>
            <path d="M75.9,45.5 L43.29,45.5 C41.9092881,45.5 40.79,44.3807119 40.79,43 C40.79,41.6192881 41.9092881,40.5 43.29,40.5 L75.9,40.5 C77.2807119,40.5 78.4,41.6192881 78.4,43 C78.4,44.3807119 77.2807119,45.5 75.9,45.5 Z" id="Shape" fill="#C2C2C2" fill-rule="nonzero"></path>
            <path d="M75.9,54 L43.29,54 C41.9092881,54 40.79,52.8807119 40.79,51.5 C40.79,50.1192881 41.9092881,49 43.29,49 L75.9,49 C77.2807119,49 78.4,50.1192881 78.4,51.5 C78.4,52.8807119 77.2807119,54 75.9,54 Z" id="Shape" fill="#C2C2C2" fill-rule="nonzero"></path>
            <path d="M75.9,62.57 L43.29,62.57 C41.9092881,62.57 40.79,61.4507119 40.79,60.07 C40.79,58.6892881 41.9092881,57.57 43.29,57.57 L75.9,57.57 C77.2807119,57.57 78.4,58.6892881 78.4,60.07 C78.4,61.4507119 77.2807119,62.57 75.9,62.57 Z" id="Shape" fill="#C2C2C2" fill-rule="nonzero"></path>
            <path d="M147.12,92.75 L25.56,92.75 C21.6521077,92.744492 18.485508,89.5778923 18.48,85.67 L18.48,80.15 C18.48,78.7692881 19.5992881,77.65 20.98,77.65 L151.7,77.65 C153.080712,77.65 154.2,78.7692881 154.2,80.15 L154.2,85.67 C154.194492,89.5778923 151.027892,92.744492 147.12,92.75 Z M23.47,82.65 L23.47,85.65 C23.4754725,86.7964778 24.4035222,87.7245275 25.55,87.73 L147.12,87.73 C148.266478,87.7245275 149.194527,86.7964778 149.2,85.65 L149.2,82.65 L23.47,82.65 Z" id="Shape" fill="#4E72CD" fill-rule="nonzero"></path>
            <path d="M143.19,82.65 L29.49,82.65 C28.1092881,82.65 26.99,81.5307119 26.99,80.15 L26.99,6.82 C26.9955074,3.0557016 30.0457016,0.00550739493 33.81,0 L138.87,0 C142.634298,0.00550739493 145.684493,3.0557016 145.69,6.82 L145.69,80.15 C145.69,81.5307119 144.570712,82.65 143.19,82.65 Z M32,77.65 L140.69,77.65 L140.69,6.82 C140.69,5.81484176 139.875158,5 138.87,5 L33.81,5 C32.8087492,5.00550146 31.9999849,5.81873408 32,6.82 L32,77.65 Z" id="Shape" fill="#4E72CD" fill-rule="nonzero"></path>
            <path d="M119.82,48.59 L99.82,48.59 C99.0552342,48.5894526 98.3327864,48.2388928 97.8590931,47.6384914 C97.3853999,47.0380901 97.2125741,46.2538999 97.39,45.51 L99.04,38.51 C99.3620917,36.851666 100.619221,35.5320702 102.26,35.13 L105.26,34.48 C105.832911,34.3570528 106.430782,34.43842 106.95,34.71 C107.712907,35.0771923 108.519359,35.3460095 109.35,35.51 C110.180367,35.3449742 110.986691,35.0761997 111.75,34.71 C112.268956,34.4376007 112.867122,34.3561935 113.44,34.48 L116.44,35.13 C118.020012,35.5219876 119.247792,36.7652114 119.62,38.35 L122.21,45.19 C122.502961,45.9590092 122.398711,46.8229389 121.931231,47.5001861 C121.463751,48.1774332 120.692922,48.5812463 119.87,48.58 L119.82,48.59 Z M102.94,43.59 L116.2,43.59 L114.83,40 L114.83,39.93 L113.16,39.57 C112.040366,40.0501428 110.864293,40.3861638 109.66,40.57 C109.437631,40.5993515 109.212369,40.5993515 108.99,40.57 C107.78573,40.3860582 106.60967,40.0500409 105.49,39.57 L103.83,39.93 L102.94,43.59 Z" id="Shape" fill="#C2C2C2" fill-rule="nonzero"></path>
            <path d="M109.3,35.92 C106.60436,36.0508514 104.10064,34.5273237 102.978057,32.0730619 C101.855473,29.6188001 102.340227,26.7283391 104.20207,24.7745899 C106.063913,22.8208407 108.927683,22.1974846 111.433146,23.2006032 C113.93861,24.2037219 115.580915,26.6311865 115.58,29.33 C115.658309,32.8811301 112.850782,35.8272449 109.3,35.92 Z M109.3,27.74 C108.624444,27.5914782 107.928713,27.8854997 107.564407,28.4734759 C107.200101,29.0614521 107.246561,29.8153296 107.680307,30.3541237 C108.114053,30.8929178 108.840622,31.0992863 109.492829,30.8689375 C110.145036,30.6385886 110.58084,30.0216893 110.58,29.33 C110.645532,28.5434874 110.082365,27.8439284 109.3,27.74 Z" id="Shape" fill="#C2C2C2" fill-rule="nonzero"></path>
            <path d="M122,48.59 L96.58,48.59 C95.1992881,48.59 94.08,47.4707119 94.08,46.09 L94.08,18.64 C94.08,17.2592881 95.1992881,16.14 96.58,16.14 L122,16.14 C123.380712,16.14 124.5,17.2592881 124.5,18.64 L124.5,46.09 C124.5,46.7530412 124.236608,47.388926 123.767767,47.857767 C123.298926,48.3266079 122.663041,48.59 122,48.59 Z M99.06,43.59 L119.5,43.59 L119.5,21.14 L99.08,21.14 L99.06,43.59 Z" id="Shape" fill="#C2C2C2" fill-rule="nonzero"></path>
            <path d="M29.8,54.18 C46.2554812,54.1800037 59.5963137,67.517857 59.5999925,83.9733378 C59.6036714,100.428819 46.268804,113.772636 29.8133244,113.779997 C13.3578448,113.787358 0.0110439471,100.455478 -7.17682546e-17,84 C-0.00530665627,76.0930839 3.13198435,68.5081983 8.7211437,62.9152878 C14.3103031,57.3223773 21.8930822,54.1799982 29.8,54.18 Z" id="Shape" fill="#4E72CD"></path>
            <polygon id="Shape" fill="#FFFFFF" fill-rule="nonzero" points="24.97 99.97 10.76 85.76 15 81.52 24.97 91.48 44.6 71.85 48.84 76.09"></polygon>
        </g>
    </g>
</svg>