<svg width="220" height="212" xmlns="http://www.w3.org/2000/svg" xmlns:xlink="http://www.w3.org/1999/xlink"><defs><path id="a" d="M.426.84h136v195.355h-136z"/></defs><g fill="none" fill-rule="evenodd"><g transform="translate(83 -.84)"><mask id="b" fill="#fff"><use xlink:href="#a"/></mask><path d="M68.426 58.84c-31.743 0-52-12.438-52-21s20.257-21 52-21 52 12.438 52 21-20.257 21-52 21zm68-21c0-21.093-29.233-37-68-37-38.767 0-68 15.907-68 37 0 .71.039 1.413.104 2.11H.426v15.749c15.174 1.66 29.119 7.454 40.688 16.233 8.28 1.872 17.482 2.908 27.312 2.908 21.31 0 39.724-4.813 52-12.646v4.646c0 8.562-20.257 21-52 21-4.164 0-8.125-.22-11.874-.61a82.48 82.48 0 0 1 9.979 16.583c.632.008 1.258.027 1.895.027 21.31 0 39.724-4.813 52-12.646v6c0 8.287-18.97 20.2-48.96 20.96a82.015 82.015 0 0 1 2.25 15.928c19.057-.728 35.463-5.357 46.71-12.533v7.29c0 8.153-18.37 19.809-47.523 20.908a81.779 81.779 0 0 1-4.083 16.087c21.14-.06 39.406-4.856 51.606-12.64v6c0 8.563-20.257 21-52 21-2.193 0-4.326-.064-6.407-.177a82.966 82.966 0 0 1-11.564 14.969c5.687.787 11.7 1.209 17.97 1.209 38.768 0 68-15.907 68-37v-29h-.058c.028-.45.059-.9.059-1.355v-29h-.175c.104-.873.175-1.752.175-2.645v-29h-.06c.029-.45.06-.9.06-1.355v-29z" fill="#000" mask="url(#b)"/></g><path d="M74.402 76.355C41.096 76.355 14 103.452 14 136.758s27.096 60.402 60.402 60.402c33.307 0 60.403-27.096 60.403-60.402S107.71 76.355 74.402 76.355m0 134.805C33.377 211.16 0 177.783 0 136.758c0-41.026 33.377-74.403 74.402-74.403 41.026 0 74.403 33.377 74.403 74.403 0 41.025-33.377 74.402-74.403 74.402" fill="#000"/><path d="M90.105 128.662h-19v-16h19c4.41 0 8 3.59 8 8 0 4.411-3.59 8-8 8m0-30h-33v30h-11.05v14h11.05v9.666h-11.05v14h11.05v13h14v-13h12.448v-14H71.106v-9.666h19c12.13 0 22-9.869 22-22 0-12.13-9.87-22-22-22" fill="#000"/></g></svg>