<?xml version="1.0" encoding="UTF-8"?>
<svg width="21px" height="21px" viewBox="0 0 21 21" version="1.1" xmlns="http://www.w3.org/2000/svg" xmlns:xlink="http://www.w3.org/1999/xlink">
    <!-- Generator: Sketch 48.2 (47327) - http://www.bohemiancoding.com/sketch -->
    <title>error</title>
    <desc>Created with Sketch.</desc>
    <defs></defs>
    <g id="Page-1" stroke="none" stroke-width="1" fill="none" fill-rule="evenodd">
        <g id="error" transform="translate(1.000000, 1.000000)">
            <circle id="Эллипс_15" stroke="#FE9E9E" stroke-width="2" cx="9.5" cy="9.5" r="9.5"></circle>
            <path d="M9.1,4.99 C8.565,4.99 8.446,5.07 8.475,5.56 L8.758,11.43 C8.773,11.79 8.877,11.88 9.338,11.88 L10.171,11.88 C10.632,11.88 10.781,11.82 10.796,11.4 L11.064,5.56 C11.093,5.07 10.974,4.99 10.439,4.99 L9.1,4.99 Z M9.755,15 C10.084677,15.0504525 10.4194409,14.9486079 10.6651638,14.7231027 C10.9108868,14.4975974 11.0410299,14.1727868 11.019,13.84 L11.019,13.72 C11.0532584,13.3815666 10.9281413,13.0464538 10.6804692,12.8132814 C10.4327971,12.5801091 10.0907543,12.4754115 9.755,12.53 L9.71,12.53 C9.37424575,12.4754115 9.03220292,12.5801091 8.78453079,12.8132814 C8.53685867,13.0464538 8.41174156,13.3815666 8.446,13.72 L8.446,13.84 C8.42397008,14.1727868 8.55411321,14.4975974 8.79983616,14.7231027 C9.04555911,14.9486079 9.38032299,15.0504525 9.71,15 L9.755,15 Z" id="_" fill="#FE9E9E"></path>
        </g>
    </g>
</svg>