<?xml version="1.0" encoding="UTF-8"?>
<svg width="292px" height="38px" viewBox="0 0 292 38" version="1.1" xmlns="http://www.w3.org/2000/svg" xmlns:xlink="http://www.w3.org/1999/xlink">
    <!-- Generator: Sketch 48.2 (47327) - http://www.bohemiancoding.com/sketch -->
    <title>Фигура 9</title>
    <desc>Created with Sketch.</desc>
    <defs></defs>
    <g id="Page-1" stroke="none" stroke-width="1" fill="none" fill-rule="evenodd">
        <g id="Фигура-9" transform="translate(0.000000, -1.000000)" fill="#FFFFFF">
            <path d="M85.117,11.08 C82.6716376,11.0816135 80.669955,13.0257256 80.597,15.47 L80.597,19.26 L74.345,19.26 L74.345,11.08 L74.133,11.08 C71.6872494,11.0810733 69.6849669,13.0253379 69.612,15.47 L69.612,30.4500026 L69.823,30.45 C72.2704175,30.4526221 74.275137,28.5064215 74.345,26.06 L74.345,22.4 L80.597,22.4 L80.597,30.45 L85.329,30.4500026 L85.329,11.08 L85.117,11.08 Z M273.199,11.08 C270.753037,11.0805488 268.750449,13.0251097 268.678,15.47 L268.678,19.26 L262.425,19.26 L262.425,11.08 L262.213,11.08 C259.767462,11.0815974 257.765485,13.025566 257.692,15.47 L257.692,30.4500017 L257.906,30.45 C260.353029,30.4520802 262.357148,28.506033 262.427,26.06 L262.427,22.4 L268.68,22.4 L268.68,30.45 L273.406,30.4500017 L273.406,11.08 L273.197,11.08 L273.199,11.08 Z M58.32,3.99 C52.829,3.99 49.274,8.62 48.778,15.37 L43.191,15.37 L43.191,4.37 L43.155,4.37 C41.8881849,4.34511423 40.6640153,4.82781827 39.7551099,5.71061538 C38.8462045,6.5934125 38.3280364,7.80299769 38.316,9.07 L38.316,30.45 L38.355,30.45 C41.0157283,30.4500385 43.176695,28.3006898 43.191,25.64 L43.191,18.83 L48.778,18.83 C49.202,25.16 52.77,30.87 58.32,30.87 C64.687,30.87 68.069,24.84 68.069,16.99 C68.069,9.66 64.467,3.99 58.32,3.99 Z M58.32,27.03 C55.425,27.03 53.511,22.39 53.511,16.96 C53.511,11.53 55.529,7.72 58.32,7.72 C61.111,7.72 63.231,11.53 63.231,16.96 C63.231,23.11 61.406,27.03 58.32,27.03 Z M102.182,11.08 C100.523288,10.9952562 98.9575801,11.849419 98.131,13.29 L91.959,23.81 L91.959,11.08 L87.226,11.08 L87.226,30.45 L89.226,30.45 C90.8820792,30.5244283 92.4424689,29.6729564 93.276,28.24 L99.796,17.36 L99.796,26.06 C99.8653107,28.5054849 101.868534,30.4515235 104.315,30.45 L104.529,30.45 L104.529,11.08 L102.177,11.08 L102.182,11.08 Z M197.345,11.08 C195.686021,10.9940838 194.119739,11.8485598 193.294,13.29 L187.121,23.81 L187.121,11.08 L182.387,11.08 L182.387,30.45 L184.393,30.45 C186.049326,30.5243517 187.609974,29.6729492 188.444,28.24 L194.962,17.36 L194.962,26.06 C195.031332,28.5062619 197.035757,30.4526073 199.483,30.45 L199.693,30.45 L199.693,11.08 L197.345,11.08 Z M121.345,21 C120.412573,18.6864382 118.567636,16.8595891 116.245,15.95 L124.769,4.37 L119.458,4.37 L111.224,15.85 L111.224,4.42 L111.118,4.42 C109.871907,4.359064 108.655532,4.81291636 107.753911,5.67520484 C106.85229,6.53749332 106.344669,7.73242904 106.35,8.98 L106.35,30.45 L106.45,30.45 C107.696262,30.5112194 108.912902,30.0574934 109.814745,29.1951733 C110.716589,28.3328531 111.224345,27.1377534 111.219,25.89 L111.219,17.92 C113.526671,17.9738972 115.569031,19.4273504 116.376,21.59 L119.876,30.45 L125.237,30.45 L121.345,21 Z M214.951,11.08 L200.714,11.08 L200.714,14.78 L205.506,14.78 L205.506,30.45 L205.718,30.45 C208.149808,30.4727629 210.140625,28.5217714 210.167,26.09 L210.167,14.78 L214.952,14.78 L214.952,11.08 L214.951,11.08 Z M179.162,26.79 L177.535,11.08 L166.195,11.08 L165.489,15.78 C164.852,19.97 163.851,25.23 160.021,27.48 L160.338,35.5 L160.59,35.5 C161.477414,35.5098648 162.332354,35.1665697 162.966513,34.5457282 C163.600672,33.9248866 163.962032,33.0774238 163.971,32.19 L164.036,30.45 L176.936,30.45 L177.112,35.5 L177.362,35.5 C178.249774,35.5101337 179.105179,35.1670202 179.739873,34.5462062 C180.374566,33.9253923 180.736506,33.0777811 180.746,32.19 L180.914,27.48 L179.162,26.79 Z M165.928,26.92 C168.119,24.65 169.165,20.56 169.661,17.41 L169.978,14.61 L173.651,14.61 L174.781,26.92 L165.928,26.92 Z M288.784,24.26 C287.975604,22.3482884 286.493011,20.8002137 284.618,19.91 L291.625,11.08 L286.525,11.08 L279.742,19.81 L279.742,11.08 L275.006,11.08 L275.006,30.4500027 L275.218,30.45 C277.665592,30.452637 279.670606,28.5065812 279.741,26.06 L279.741,21.65 C281.630117,21.7690262 283.267968,22.9989869 283.909,24.78 L286.753,30.45 L291.846,30.4500027 L288.784,24.26 Z M230.762,14.13 C229.726425,14.1385222 228.695038,14.262624 227.687,14.5 L227.687,8.41 L233.959,8.41 C236.176367,8.43388864 237.994093,6.6573328 238.021,4.44 L238.021,4.37 L222.951,4.37 L222.951,30.45 L230.617,30.45 C236.356,30.45 240.636,27.42 240.636,22.24 C240.636,17.79 237.082,14.13 230.758,14.13 L230.762,14.13 Z M230.55,27.26 L227.687,27.26 L227.687,18 C228.532787,17.7969893 229.397495,17.6830356 230.267,17.66 C233.69,17.66 235.694,19.66 235.694,22.13 C235.730367,23.5045357 235.199071,24.8333839 234.225086,25.8039633 C233.251101,26.7745426 231.9204,27.3011815 230.546,27.26 L230.55,27.26 Z M159.598,20.25 C159.598,14.44 156.736,11.08 151.58,11.08 C146.352,11.08 143.173,14.92 143.173,20.84 C143.173,26.92 146.599,30.73 152.357,30.73 C154.637536,30.7946931 156.900971,30.3183606 158.962,29.34 L158.962,25.51 C157.184186,26.8095635 155.017083,27.4655133 152.817,27.37 C149.852,27.37 148.224,25.71 147.836,22.56 L159.598,20.97 L159.598,20.25 Z M147.553,19.42 C147.553,15.99 148.789,14.16 151.437,14.09 L151.616,14.09 C152.921,14.09 155.36,14.5 155.502,18.34 L147.553,19.42 Z M241.24,24.95 C241.24,28.59 243.961,30.73 249.188,30.73 L250.177,30.73 C252.247154,30.698653 254.312698,30.5249094 256.359,30.21 L256.359,17.89 C256.359,13.05 253.039,11.08 249.047,11.08 C246.767134,11.0720575 244.513587,11.567155 242.447,12.53 L242.447,15.61 C244.221705,14.569061 246.218801,13.9657501 248.273,13.85 C250.534,13.85 252.088,14.5 252.088,16.96 L252.088,18.24 C246.188,18.79 241.244,19.97 241.244,24.95 L241.24,24.95 Z M252.084,28.1 C251.219126,28.2249588 250.345775,28.2818002 249.472,28.27 C246.928,28.27 245.445,27.2 245.445,24.81 C245.445,21.6 247.951,20.77 252.084,20.39 L252.084,28.1 Z M132.947,11.08 C130.658391,10.9948752 128.38256,11.4577213 126.309,12.43 L126.204,12.5 L126.204,38.1300233 L126.45,38.13 C128.869972,38.1377998 130.842013,36.1898851 130.864,33.77 L130.864,30.42 C131.71967,30.628224 132.597362,30.7323115 133.478,30.73 C138.599,30.73 141.956,26.72 141.956,20.7 C141.956,14.71 138.565,11.08 132.947,11.08 Z M132.525,27.76 C131.96055,27.7816543 131.397069,27.6968438 130.864,27.51 L130.864,14.33 C131.499986,14.1112016 132.16957,14.0062616 132.842,14.02 C135.916,14.02 137.258,16.2 137.258,20.84 C137.254,23.95 136.443,27.76 132.521,27.76 L132.525,27.76 Z M12.394,16.58 C13.803,14.73 17.194,10.4 17.194,10.4 C17.194,10.4 17.23,10.36 17.474,10.01 C17.5761001,9.90450713 17.6314156,9.7623424 17.6274645,9.61558557 C17.6235133,9.46882875 17.5606285,9.32984633 17.453,9.23 C17.345,9.14 14.796,7.63 14.796,7.63 C14.6035621,7.50441487 14.4879653,7.28978879 14.489,7.06 C14.5016339,6.64830293 14.8180599,6.31003974 15.228,6.27 C18.32749,5.82184383 21.4552787,5.59792905 24.587,5.6 C25.363,5.6 26.765,5.6 27.908,5.64 C24.8201833,2.64815063 20.6864965,0.979750006 16.387,0.99 C7.43279667,0.901181125 0.100865799,8.08583773 0.008,17.04 C0.0142797146,21.0590848 1.55195067,24.9247181 4.308,27.85 C6.484,24.79 11.306,18 12.394,16.58 Z M30.813,9.45 C30.453,9.78 26.307,13.61 21.442,17.77 C17.124,21.46 12.298,25.23 9.501,27.28 C8.001,28.38 6.959,29.12 6.246,29.62 C9.14739119,31.8684745 12.7153498,33.0859436 16.386,33.08 C25.3349553,33.168271 32.6629413,25.9888857 32.758,17.04 C32.7604557,14.3864166 32.0913524,11.7753658 30.813,9.45 Z" id="Фигура_9"></path>
        </g>
    </g>
</svg>