<?xml version="1.0" encoding="UTF-8"?>
<svg width="294px" height="39px" viewBox="0 0 294 39" version="1.1" xmlns="http://www.w3.org/2000/svg" xmlns:xlink="http://www.w3.org/1999/xlink">
    <!-- Generator: Sketch 48.2 (47327) - http://www.bohemiancoding.com/sketch -->
    <title>Page 1</title>
    <desc>Created with Sketch.</desc>
    <defs>
        <polygon id="path-1" points="0.01836 0.799178947 16.8141333 0.799178947 16.8141333 20.9569684 0.01836 20.9569684"></polygon>
        <polygon id="path-3" points="0 0.712866667 32.7997241 0.712866667 32.7997241 33.3868667 0 33.3868667"></polygon>
    </defs>
    <g id="Page-1" stroke="none" stroke-width="1" fill="none" fill-rule="evenodd">
        <g>
            <path d="M86.7848467,11 C84.3036437,11 82.1821862,13.0736401 82.1821862,15.5367339 L82.1821862,19.4416107 L75.8189705,19.4416107 L75.8189705,11 L75.6026605,11 C73.1214575,11 71,13.0736401 71,15.5367339 L71,31 L71.2151533,31 C73.697513,31 75.8189705,28.9286576 75.8189705,26.4655638 L75.8189705,22.6916537 L82.1821862,22.6916537 L82.1821862,31 L87,31 L87,11 L86.7848467,11 Z" id="Fill-1" fill="#1D1D1B"></path>
            <path d="M274.785988,11 C272.303449,11 270.182995,13.0736401 270.182995,15.5367339 L270.182995,19.4416107 L263.818162,19.4416107 L263.818162,11 L263.601836,11 C261.120454,11 259,13.0736401 259,15.5367339 L259,31 L259.215169,31 C261.695394,31 263.818162,28.9286576 263.818162,26.4655638 L263.818162,22.6916537 L270.182995,22.6916537 L270.182995,31 L275,31 L275,11 L274.785988,11 Z" id="Fill-3" fill="#1D1D1B"></path>
            <path d="M59.1699446,28.0003312 C56.2507161,28.0003312 54.3213672,23.1729049 54.3213672,17.5130838 C54.3213672,11.854422 56.3549742,7.89069228 59.1699446,7.89069228 C61.9803323,7.89069228 64.1204888,11.854422 64.1204888,17.5130838 C64.1204888,23.9183504 62.2816498,28.0003312 59.1699446,28.0003312 M59.1699446,4 C53.632805,4 50.0490739,8.82858562 49.5495513,15.8540908 L43.9150277,15.8540908 L43.9150277,4.39532958 L43.8795112,4.39532958 C41.1378652,4.39532958 39,6.59340841 39,9.29811196 L39,31.5687314 L39.0378079,31.5687314 L39.0389536,31.5687314 C41.7278977,31.5467042 43.9150277,29.3219609 43.9150277,26.5604505 L43.9150277,19.4607486 L49.5495513,19.4607486 C49.9757495,26.0526664 53.5732289,32 59.1699446,32 C65.5892687,32 69,25.7164624 69,17.5478635 C69,9.91023518 65.3681497,4 59.1699446,4" id="Fill-5" fill="#1D1D1B"></path>
            <path d="M102.689732,11 C101.167411,11 99.8013393,11.5020392 98.7109375,13.2861738 L92.6484375,24.1426274 L92.6484375,11 L88,11 L88,31 L89.96875,31 C91.46875,31 92.8348214,30.5014073 93.9475446,28.7138262 L100.350446,17.4863002 L100.350446,26.4655638 C100.350446,28.9286576 102.396205,31 104.790179,31 L105,31 L105,11 L102.689732,11 Z" id="Fill-7" fill="#1D1D1B"></path>
            <path d="M198.693894,11 C197.170256,11 195.800657,11.5020392 194.714576,13.2861738 L188.650164,24.1426274 L188.650164,11 L184,11 L184,31 L185.971241,31 C187.470322,31 188.836573,30.5014073 189.949442,28.7138262 L196.352068,17.4863002 L196.352068,26.4655638 C196.352068,28.9286576 198.399212,31 200.794616,31 L201,31 L201,11 L198.693894,11 Z" id="Fill-9" fill="#1D1D1B"></path>
            <path d="M122.082757,22.2201459 C120.981175,19.7135543 119.333373,17.9246128 116.951946,16.9938564 L125.523486,5 L120.182414,5 L111.901125,16.8855753 L111.901125,5.05183668 L111.795994,5.05183668 C109.060324,5.05183668 107,7.05734033 107,9.77934212 L107,32 L107.106273,32 C109.841944,32 111.901125,29.9944964 111.901125,27.2736465 L111.901125,19.031614 C114.352258,19.031614 116.201179,20.6811724 117.087929,22.828363 L120.608649,32 L126,32 L122.082757,22.2201459 Z" id="Fill-11" fill="#1D1D1B"></path>
            <path d="M216,11 L202,11 L202,14.822161 L206.708766,14.822161 L206.708766,31 L206.916653,31 C209.347597,31 211.292352,28.9631225 211.292352,26.5000287 L211.292352,14.822161 L216,14.822161 L216,11 Z" id="Fill-13" fill="#1D1D1B"></path>
            <path d="M166.932623,27.2174785 C169.134374,24.8902811 170.186144,20.7017816 170.68405,17.4815237 L171.002665,14.6143892 L174.694709,14.6143892 L175.829844,27.2174785 L166.932623,27.2174785 Z M180.232204,27.0773682 L178.598021,11 L167.204416,11 L166.495242,15.816148 C165.855729,20.1003326 164.849638,25.4860345 161,27.7847542 L161.318614,36 L161.572136,36 C163.44842,36 164.969547,34.4815692 164.969547,32.6054586 L165.03464,30.8307286 L178.001903,30.8307286 L178.180053,36 L178.430148,36 C180.309859,36 181.832128,34.4815692 181.832128,32.6054586 L182,27.7847542 L180.232204,27.0773682 Z" id="Fill-15" fill="#1D1D1B"></path>
            <g id="Group-19" transform="translate(277.000000, 11.000000)">
                <mask id="mask-2" fill="white">
                    <use xlink:href="#path-1"></use>
                </mask>
                <g id="Clip-18"></g>
                <path d="M13.75776,14.5132842 C12.7116933,12.4001263 11.46956,10.7837053 9.60182667,9.99170526 L16.5910933,0.799178947 L11.50696,0.799178947 L4.74096,9.88286316 L4.74096,0.799178947 L0.01836,0.799178947 L0.01836,20.9569684 L0.22916,20.9569684 C2.66129333,20.9569684 4.74096,18.8704421 4.74096,16.3867579 L4.74096,11.7957053 C6.71069333,11.7957053 8.12169333,13.2905474 8.89802667,15.0540211 L11.73476,20.9569684 L16.81436,20.9569684 L13.75776,14.5132842 Z" id="Fill-17" fill="#1D1D1B" mask="url(#mask-2)"></path>
            </g>
            <path d="M230.730146,28.6974274 L227.815729,28.6939716 L227.815729,19.1110969 C228.428682,18.9671061 229.50771,18.7632152 230.442174,18.7632152 C233.926754,18.7632152 235.96569,20.8297709 235.96569,23.3881992 C235.96569,26.1436068 234.003084,28.6974274 230.730146,28.6974274 M230.946415,15.1058492 C229.760987,15.1058492 228.500386,15.3074363 227.815729,15.4871368 L227.815729,9.18955587 L234.199692,9.18955587 C236.483809,9.18955587 238.334233,7.34647383 238.334233,5.07257136 L238.334233,5 L223,5 L223,32 L230.80185,32 C236.643408,32 241,28.8610009 241,23.4941764 C241,18.8945347 237.382421,15.1058492 230.946415,15.1058492" id="Fill-20" fill="#1D1D1B"></path>
            <path d="M148.533725,19.4868048 C148.533725,16.0005663 149.812107,14.1339903 152.553511,14.0648998 L152.738153,14.0648998 C154.08945,14.0648998 156.613283,14.4873712 156.760291,18.3949485 L148.533725,19.4868048 Z M161,20.3317476 C161,14.4160154 158.037496,11 152.701695,11 C147.28945,11 144,14.9087099 144,20.9309095 C144,27.125269 147.545832,31 153.506122,31 C156.794396,31 159.098305,30.2252803 160.341404,29.5898743 L160.341404,25.6834296 C159.098305,26.5283724 157.380076,27.582852 153.981252,27.582852 C150.911726,27.582852 149.227603,25.894099 148.826565,22.6898856 L161,21.0713558 L161,20.3317476 Z" id="Fill-22" fill="#1D1D1B"></path>
            <path d="M252.757929,28.3224601 C252.302495,28.4289274 251.145874,28.4991505 250.166241,28.4991505 C247.643319,28.4991505 246.171051,27.4072941 246.171051,24.9789331 C246.171051,21.7033639 248.657899,20.8595537 252.757929,20.4721939 L252.757929,28.3224601 Z M242,25.1193793 C242,28.8174199 244.69991,31 249.884413,31 L250.866301,31 C252.688035,31 255.702465,30.7179749 257,30.4710613 L257,17.9362329 C257,13.0092876 253.705997,11 249.744626,11 C246.730197,11 244.420337,11.881187 243.193822,12.4792162 L243.193822,15.6143391 C245.261311,14.5224827 247.116865,13.8179862 248.973546,13.8179862 C251.216895,13.8179862 252.757929,14.4873712 252.757929,16.9859554 L252.757929,18.2907464 C246.908312,18.8536641 242,20.0485899 242,25.1193793 Z" id="Fill-24" fill="#1D1D1B"></path>
            <path d="M133.420544,28.260274 C132.73844,28.260274 132.199452,28.1888601 131.734329,28.0080217 L131.734329,14.365667 C132.343721,14.1525772 132.953113,14.0443046 133.742552,14.0443046 C136.864531,14.0443046 138.227584,16.3007528 138.227584,21.0993048 C138.227584,24.3186886 137.40352,28.260274 133.420544,28.260274 M133.849888,11 C131.126091,11 128.8628,11.4653421 127.107336,12.3983298 L127,12.46744 L127,39 L127.250451,39 C129.724951,39 131.734329,36.9600971 131.734329,34.4882554 L131.734329,31.0166194 C132.416432,31.1951541 133.348987,31.3391337 134.388877,31.3391337 C139.590637,31.3391337 143,27.1844584 143,20.9553252 C143,14.7595952 139.556012,11 133.849888,11" id="Fill-26" fill="#1D1D1B"></path>
            <g id="Group-30">
                <mask id="mask-4" fill="white">
                    <use xlink:href="#path-3"></use>
                </mask>
                <g id="Clip-29"></g>
                <path d="M0,17.051 C0,8.02966667 7.34306897,0.711733333 16.4032759,0.711733333 C25.458931,0.711733333 32.7997241,8.02966667 32.7997241,17.051 C32.7997241,26.0678 25.458931,33.3868667 16.4032759,33.3868667 C7.34306897,33.3868667 0,26.0678 0,17.051" id="Fill-28" fill="#E32413" mask="url(#mask-4)"></path>
            </g>
            <path d="M18.2493099,10.602245 C18.4984079,10.2239666 18.3935839,9.94462251 18.2267671,9.79214721 C18.121943,9.69554072 15.5892584,8.11608284 15.5892584,8.11608284 C15.4066616,7.98805015 15.2860576,7.77272244 15.2860576,7.52946032 C15.2860576,7.1407065 15.5148671,6.85088704 16.0175717,6.69841174 C17.6451626,6.24331371 23.3642734,6.00005159 25.3052093,6.00005159 C26.226083,6.00005159 28.0430335,5.99539585 29.2366752,6.07454334 C30.582481,6.16300229 31.5923988,6.45049388 31.8471326,7.1232475 C32.3430744,8.43383671 31.5236433,9.24393449 30.9375302,9.7886554 C30.630948,10.0808027 26.490961,14.1126687 21.6307313,18.4960426 C17.3475975,22.3626299 12.5606319,26.2967254 9.78561206,28.4465108 C5.88119745,31.4599348 5.12263191,31.8987378 5.12263191,31.8987378 C5.02457069,31.9580984 4.84873678,32 4.7213699,32 C4.31898075,32 4,31.6880658 4,31.2667218 C4,31.1107547 4.0473399,30.9582794 4.12849401,30.8395582 C4.12849401,30.8395582 11.8122106,19.4039107 13.2064834,17.4752728 C14.6131547,15.5408152 17.9652705,11.0200971 17.9652705,11.0200971 C17.9652705,11.0200971 18.0047204,10.9677201 18.2493099,10.602245" id="Fill-31" fill="#E32413"></path>
            <path d="M17.2448156,10.6062431 C17.4961682,10.2281176 17.3868354,9.9488865 17.224527,9.79647285 C17.1163214,9.69874196 14.5881428,8.11643234 14.5881428,8.11643234 C14.4044187,7.9919418 14.2838146,7.77553769 14.2838146,7.52655662 C14.2838146,7.14028691 14.5024801,6.84825771 15.0164566,6.70282484 C16.6440491,6.24442043 22.3631656,6.00009321 24.300722,6.00009321 C25.2215967,6.00009321 27.038549,5.9942759 28.2321919,6.07455484 C29.5746176,6.16763188 30.5879179,6.45035338 30.8482876,7.12167151 C31.3419756,8.4410385 30.5225437,9.24615487 29.9375572,9.78949208 C29.6264661,10.0838482 25.486475,14.1152474 20.630749,18.492195 C16.3419752,22.3618728 11.5550048,26.2955411 8.78336357,28.436313 C4.87894505,31.4531724 4.12376018,31.8941249 4.12376018,31.8941249 C4.01555458,31.9499711 3.8453562,32 3.71911634,32 C3.31334537,32 3,31.6777208 3,31.2646914 C3,31.1006431 3.04508566,30.9540468 3.127367,30.8318832 C3.127367,30.8318832 10.8065827,19.4078404 12.2064926,17.4753284 C13.6041482,15.541653 16.9675387,11.0204359 16.9675387,11.0204359 C16.9675387,11.0204359 17.0024801,10.9715704 17.2448156,10.6062431" id="Fill-33" fill="#FEFEFE"></path>
        </g>
    </g>
</svg>